<svg width="24" height="24" viewBox="0 0 24 24" fill="none" xmlns="http://www.w3.org/2000/svg">
<path d="M13 20.0003C13.2652 20.0003 13.5196 20.1056 13.7071 20.2931C13.8946 20.4807 14 20.735 14 21.0003C14 21.2655 13.8946 21.5198 13.7071 21.7074C13.5196 21.8949 13.2652 22.0003 13 22.0003C12.7348 22.0003 12.4804 21.8949 12.2929 21.7074C12.1054 21.5198 12 21.2655 12 21.0003C12 20.735 12.1054 20.4807 12.2929 20.2931C12.4804 20.1056 12.7348 20.0003 13 20.0003ZM9.5 19.0003C9.76522 19.0003 10.0196 19.1056 10.2071 19.2931C10.3946 19.4807 10.5 19.735 10.5 20.0003C10.5 20.2655 10.3946 20.5198 10.2071 20.7074C10.0196 20.8949 9.76522 21.0003 9.5 21.0003C9.23478 21.0003 8.98043 20.8949 8.79289 20.7074C8.60536 20.5198 8.5 20.2655 8.5 20.0003C8.5 19.735 8.60536 19.4807 8.79289 19.2931C8.98043 19.1056 9.23478 19.0003 9.5 19.0003ZM16.5 19.0003C16.7652 19.0003 17.0196 19.1056 17.2071 19.2931C17.3946 19.4807 17.5 19.735 17.5 20.0003C17.5 20.2655 17.3946 20.5198 17.2071 20.7074C17.0196 20.8949 16.7652 21.0003 16.5 21.0003C16.2348 21.0003 15.9804 20.8949 15.7929 20.7074C15.6054 20.5198 15.5 20.2655 15.5 20.0003C15.5 19.735 15.6054 19.4807 15.7929 19.2931C15.9804 19.1056 16.2348 19.0003 16.5 19.0003ZM13.002 6.00926C16.17 6.00926 17.968 8.10626 18.229 10.6393H18.309C18.7933 10.6386 19.2729 10.7333 19.7206 10.9181C20.1682 11.1028 20.5751 11.374 20.9179 11.716C21.2608 12.058 21.5329 12.4642 21.7187 12.9114C21.9046 13.3586 22.0005 13.838 22.001 14.3223C22.0003 14.8064 21.9043 15.2858 21.7184 15.7328C21.5325 16.1799 21.2604 16.586 20.9176 16.9279C20.5747 17.2698 20.1679 17.5408 19.7203 17.7255C19.2728 17.9102 18.7932 18.0049 18.309 18.0043H7.694C7.20982 18.0049 6.73024 17.9102 6.28266 17.7255C5.83509 17.5408 5.42827 17.2698 5.08543 16.9279C4.7426 16.586 4.47046 16.1799 4.28457 15.7328C4.09867 15.2858 4.00266 14.8064 4.002 14.3223C4.00252 13.838 4.09844 13.3586 4.28428 12.9114C4.47012 12.4642 4.74223 12.058 5.08508 11.716C5.42793 11.374 5.83479 11.1028 6.28243 10.9181C6.73008 10.7333 7.20973 10.6386 7.694 10.6393H7.774C8.037 8.08926 9.834 6.00926 13.002 6.00926ZM13.002 7.50626C10.93 7.50626 9.125 9.14026 9.125 11.3963C9.125 11.7533 8.806 12.0343 8.441 12.0343H7.751C6.489 12.0343 5.467 13.0343 5.467 14.2703C5.467 15.5053 6.489 16.5063 7.75 16.5063H18.253C19.514 16.5063 20.536 15.5063 20.536 14.2703C20.536 13.0353 19.514 12.0343 18.253 12.0343H17.563C17.197 12.0343 16.878 11.7543 16.878 11.3963C16.878 9.11126 15.073 7.50626 13.002 7.50626ZM6.589 2.00126C7.38593 2.04431 8.16138 2.27527 8.852 2.67526C9.86586 3.259 10.6461 4.17602 11.06 5.27026C10.56 5.41026 10.097 5.60826 9.674 5.85426C9.49394 5.35302 9.2037 4.89857 8.82468 4.52439C8.44566 4.15022 7.98751 3.86586 7.484 3.69226C7.644 5.04426 7.437 6.20526 6.862 7.30326L6.744 7.51626C6.173 8.49226 5.312 9.22426 4.025 9.82026C4.34368 10.085 4.70566 10.2927 5.095 10.4343C4.64464 10.7371 4.25014 11.1157 3.929 11.5533C3.21018 11.1725 2.59376 10.624 2.132 9.95426C2.06676 9.85956 2.02418 9.75112 2.00753 9.63734C1.99089 9.52356 2.00063 9.40747 2.03601 9.29805C2.07138 9.18863 2.13145 9.08882 2.21156 9.00632C2.29166 8.92381 2.38967 8.86084 2.498 8.82226C4.141 8.23426 5.025 7.57226 5.532 6.60626C6.084 5.55126 6.186 4.43226 5.819 2.92926C5.79077 2.81524 5.78972 2.69618 5.81593 2.58168C5.84214 2.46718 5.89487 2.36044 5.96989 2.27005C6.0449 2.17966 6.1401 2.10815 6.24781 2.06129C6.35552 2.01443 6.47273 1.99352 6.59 2.00026" fill="black"/>
</svg>
