<svg width="24" height="24" viewBox="0 0 24 24" fill="none" xmlns="http://www.w3.org/2000/svg">
<path d="M13.0005 6.00006C16.169 6.00006 17.9665 8.09756 18.228 10.6301H18.308C20.347 10.6301 22 12.2791 22 14.3126C22 16.3461 20.347 17.9951 18.308 17.9951L17.4465 17.9956L17.427 18.0426L17.394 18.1066L15.644 21.1381C15.5484 21.3063 15.3914 21.4311 15.2059 21.4863C15.0204 21.5415 14.8207 21.5229 14.6487 21.4343C14.4766 21.3457 14.3454 21.194 14.2826 21.011C14.2197 20.8279 14.2301 20.6277 14.3115 20.4521L14.345 20.3876L15.726 17.9951L13.578 17.9956L13.559 18.0426L13.5255 18.1066L11.7755 21.1381C11.6792 21.3049 11.5223 21.4283 11.3374 21.4826C11.1526 21.537 10.9539 21.5181 10.7826 21.4298C10.6113 21.3416 10.4805 21.1908 10.4174 21.0088C10.3542 20.8268 10.3636 20.6274 10.4435 20.4521L10.4765 20.3876L11.858 17.9951L9.71 17.9956L9.6905 18.0426L9.6575 18.1066L7.9075 21.1381C7.81187 21.3063 7.65489 21.4311 7.46939 21.4863C7.28389 21.5415 7.08423 21.5229 6.91215 21.4343C6.74007 21.3457 6.6089 21.194 6.54607 21.011C6.48323 20.8279 6.4936 20.6277 6.575 20.4521L6.6085 20.3876L7.9895 17.9951H7.693C5.654 17.9951 4.001 16.3466 4.001 14.3126C4.001 12.2786 5.654 10.6301 7.693 10.6301H7.773C8.036 8.08056 9.832 6.00006 13.0005 6.00006ZM13.0005 7.24756C10.8705 7.24756 9.013 8.97156 9.013 11.3526C9.013 11.7301 8.685 12.0266 8.3095 12.0266H7.5995C6.302 12.0266 5.2505 13.0831 5.2505 14.3866C5.2505 15.6906 6.302 16.7476 7.599 16.7476H18.402C19.699 16.7476 20.7505 15.6906 20.7505 14.3871C20.7505 13.0836 19.699 12.0261 18.402 12.0261H17.692C17.316 12.0261 16.988 11.7301 16.988 11.3531C16.988 8.94106 15.131 7.24806 13.0005 7.24806M6.589 2.00106C7.384 2.04406 8.156 2.27306 8.852 2.67506C9.86703 3.25835 10.6479 4.17618 11.061 5.27156C10.6831 5.37791 10.3165 5.52109 9.9665 5.69906C9.6465 4.82856 8.9365 4.12106 7.9705 3.56806C7.74576 3.44137 7.50652 3.34231 7.258 3.27306C7.44 4.79306 7.3815 5.82706 6.7295 7.06206L6.5955 7.30156C5.948 8.40006 4.992 9.05006 3.533 9.72156C3.694 9.88056 3.939 10.0676 4.139 10.2086C4.366 10.3686 4.59983 10.5049 4.8405 10.6176C4.49468 10.8859 4.18805 11.2013 3.9295 11.5546L3.7745 11.4686C3.12103 11.0928 2.55997 10.5755 2.1325 9.95456C2.06715 9.85988 2.02446 9.75144 2.00773 9.63763C1.991 9.52381 2.00067 9.40767 2.03601 9.29819C2.07134 9.18871 2.13138 9.08883 2.21149 9.00627C2.2916 8.9237 2.38963 8.86068 2.498 8.82206C4.1405 8.23406 5.0255 7.57206 5.5315 6.60606C6.084 5.55106 6.1865 4.43206 5.8195 2.92906C5.79172 2.81526 5.79095 2.69653 5.81726 2.58238C5.84356 2.46823 5.8962 2.36181 5.97098 2.27163C6.04575 2.18146 6.14058 2.11002 6.24789 2.06304C6.3552 2.01606 6.47202 1.99484 6.589 2.00106Z" fill="black"/>
</svg>
