<svg width="24" height="24" viewBox="0 0 24 24" fill="none" xmlns="http://www.w3.org/2000/svg">
<path d="M12.75 2.75C12.75 2.55109 12.671 2.36032 12.5303 2.21967C12.3897 2.07902 12.1989 2 12 2C11.8011 2 11.6103 2.07902 11.4697 2.21967C11.329 2.36032 11.25 2.55109 11.25 2.75V4.25C11.25 4.44891 11.329 4.63968 11.4697 4.78033C11.6103 4.92098 11.8011 5 12 5C12.1989 5 12.3897 4.92098 12.5303 4.78033C12.671 4.63968 12.75 4.44891 12.75 4.25V2.75ZM19.03 4.97C19.1705 5.11063 19.2493 5.30125 19.2493 5.5C19.2493 5.69875 19.1705 5.88937 19.03 6.03L17.97 7.091C17.8286 7.22769 17.6392 7.30337 17.4425 7.30176C17.2459 7.30014 17.0578 7.22135 16.9186 7.08236C16.7795 6.94337 16.7005 6.7553 16.6987 6.55865C16.6969 6.362 16.7724 6.17252 16.909 6.031L17.969 4.97C18.0387 4.9003 18.1214 4.84502 18.2124 4.8073C18.3034 4.76958 18.401 4.75016 18.4995 4.75016C18.598 4.75016 18.6956 4.76958 18.7866 4.8073C18.8776 4.84502 18.9604 4.9003 19.03 4.97ZM17.41 13C17.47 12.6753 17.5 12.342 17.5 12C17.4987 11.2362 17.3384 10.481 17.0292 9.78256C16.7199 9.08412 16.2686 8.45775 15.704 7.94335C15.1393 7.42896 14.4737 7.03781 13.7496 6.79483C13.0254 6.55185 12.2586 6.46237 11.498 6.53209C10.7374 6.60181 9.99957 6.8292 9.33166 7.19977C8.66375 7.57035 8.08035 8.07598 7.61863 8.68445C7.15691 9.29292 6.82699 9.9909 6.64989 10.7339C6.47279 11.4769 6.45239 12.2487 6.59 13H2.75C2.55109 13 2.36032 13.079 2.21967 13.2197C2.07902 13.3603 2 13.5511 2 13.75C2 13.9489 2.07902 14.1397 2.21967 14.2803C2.36032 14.421 2.55109 14.5 2.75 14.5H21.25C21.4489 14.5 21.6397 14.421 21.7803 14.2803C21.921 14.1397 22 13.9489 22 13.75C22 13.5511 21.921 13.3603 21.7803 13.2197C21.6397 13.079 21.4489 13 21.25 13H17.41ZM12 8C12.6106 7.99984 13.213 8.13946 13.7613 8.40815C14.3096 8.67684 14.789 9.06747 15.163 9.55011C15.5369 10.0327 15.7954 10.5946 15.9187 11.1926C16.0419 11.7906 16.0266 12.4088 15.874 13H8.126C7.97336 12.4088 7.95808 11.7906 8.08132 11.1926C8.20457 10.5946 8.46307 10.0327 8.83702 9.55011C9.21097 9.06747 9.69044 8.67684 10.2387 8.40815C10.787 8.13946 11.3894 7.99984 12 8ZM6 16.75C6 16.5511 6.07902 16.3603 6.21967 16.2197C6.36032 16.079 6.55109 16 6.75 16H17.25C17.4489 16 17.6397 16.079 17.7803 16.2197C17.921 16.3603 18 16.5511 18 16.75C18 16.9489 17.921 17.1397 17.7803 17.2803C17.6397 17.421 17.4489 17.5 17.25 17.5H6.75C6.55109 17.5 6.36032 17.421 6.21967 17.2803C6.07902 17.1397 6 16.9489 6 16.75ZM10 19.75C10 19.5511 10.079 19.3603 10.2197 19.2197C10.3603 19.079 10.5511 19 10.75 19H13.25C13.4489 19 13.6397 19.079 13.7803 19.2197C13.921 19.3603 14 19.5511 14 19.75C14 19.9489 13.921 20.1397 13.7803 20.2803C13.6397 20.421 13.4489 20.5 13.25 20.5H10.75C10.5511 20.5 10.3603 20.421 10.2197 20.2803C10.079 20.1397 10 19.9489 10 19.75ZM4.97 4.97C5.11063 4.82955 5.30125 4.75066 5.5 4.75066C5.69875 4.75066 5.88937 4.82955 6.03 4.97L7.091 6.03C7.16266 6.09915 7.21984 6.18188 7.25919 6.27337C7.29854 6.36485 7.31927 6.46326 7.32019 6.56284C7.3211 6.66242 7.30217 6.76119 7.2645 6.85338C7.22683 6.94557 7.17118 7.02934 7.1008 7.09979C7.03041 7.17024 6.9467 7.22597 6.85454 7.26372C6.76239 7.30148 6.66364 7.3205 6.56406 7.31968C6.46447 7.31886 6.36605 7.29822 6.27453 7.25896C6.183 7.2197 6.10022 7.1626 6.031 7.091L4.97 6.031C4.9003 5.96135 4.84502 5.87865 4.8073 5.78762C4.76958 5.6966 4.75016 5.59903 4.75016 5.5005C4.75016 5.40197 4.76958 5.3044 4.8073 5.21338C4.84502 5.12235 4.9003 5.03965 4.97 4.97Z" fill="black"/>
</svg>
