<svg width="24" height="24" viewBox="0 0 24 24" fill="none" xmlns="http://www.w3.org/2000/svg">
<path d="M13 20.0001C13.2653 20.0001 13.5196 20.1054 13.7071 20.2929C13.8947 20.4805 14 20.7348 14 21.0001C14 21.2653 13.8947 21.5196 13.7071 21.7072C13.5196 21.8947 13.2653 22.0001 13 22.0001C12.7348 22.0001 12.4805 21.8947 12.2929 21.7072C12.1054 21.5196 12 21.2653 12 21.0001C12 20.7348 12.1054 20.4805 12.2929 20.2929C12.4805 20.1054 12.7348 20.0001 13 20.0001ZM9.50003 19.0001C9.76525 19.0001 10.0196 19.1054 10.2071 19.2929C10.3947 19.4805 10.5 19.7348 10.5 20.0001C10.5 20.2653 10.3947 20.5196 10.2071 20.7072C10.0196 20.8947 9.76525 21.0001 9.50003 21.0001C9.23482 21.0001 8.98046 20.8947 8.79293 20.7072C8.60539 20.5196 8.50003 20.2653 8.50003 20.0001C8.50003 19.7348 8.60539 19.4805 8.79293 19.2929C8.98046 19.1054 9.23482 19.0001 9.50003 19.0001ZM16.5 19.0001C16.7653 19.0001 17.0196 19.1054 17.2071 19.2929C17.3947 19.4805 17.5 19.7348 17.5 20.0001C17.5 20.2653 17.3947 20.5196 17.2071 20.7072C17.0196 20.8947 16.7653 21.0001 16.5 21.0001C16.2348 21.0001 15.9805 20.8947 15.7929 20.7072C15.6054 20.5196 15.5 20.2653 15.5 20.0001C15.5 19.7348 15.6054 19.4805 15.7929 19.2929C15.9805 19.1054 16.2348 19.0001 16.5 19.0001ZM13.002 6.00906C16.17 6.00906 17.968 8.10606 18.229 10.6391H18.309C18.7933 10.6384 19.273 10.7331 19.7206 10.9179C20.1682 11.1026 20.5751 11.3738 20.918 11.7158C21.2608 12.0578 21.5329 12.464 21.7188 12.9112C21.9046 13.3584 22.0005 13.8378 22.001 14.3221C22.0004 14.8062 21.9044 15.2856 21.7185 15.7326C21.5326 16.1797 21.2604 16.5858 20.9176 16.9277C20.5748 17.2696 20.1679 17.5406 19.7204 17.7253C19.2728 17.91 18.7932 18.0047 18.309 18.0041H7.69403C7.20985 18.0047 6.73028 17.91 6.2827 17.7253C5.83512 17.5406 5.4283 17.2696 5.08547 16.9277C4.74263 16.5858 4.4705 16.1797 4.2846 15.7326C4.09871 15.2856 4.00269 14.8062 4.00203 14.3221C4.00256 13.8378 4.09848 13.3584 4.28432 12.9112C4.47015 12.464 4.74227 12.0578 5.08511 11.7158C5.42796 11.3738 5.83483 11.1026 6.28247 10.9179C6.73011 10.7331 7.20977 10.6384 7.69403 10.6391H7.77403C8.03703 8.08906 9.83403 6.00906 13.002 6.00906ZM13.002 7.50606C10.93 7.50606 9.12503 9.14006 9.12503 11.3961C9.12503 11.7531 8.80603 12.0341 8.44103 12.0341H7.75103C6.48903 12.0341 5.46703 13.0341 5.46703 14.2701C5.46703 15.5051 6.48903 16.5061 7.75003 16.5061H18.253C19.514 16.5061 20.536 15.5061 20.536 14.2701C20.536 13.0351 19.514 12.0341 18.253 12.0341H17.563C17.198 12.0341 16.879 11.7541 16.879 11.3961C16.879 9.11106 15.073 7.50606 13.002 7.50606ZM4.36703 10.1641C4.43657 10.3315 4.44308 10.5185 4.38535 10.6904C4.32762 10.8623 4.20956 11.0075 4.05303 11.0991L3.96203 11.1441L3.03503 11.5281C2.85968 11.5995 2.66378 11.602 2.48666 11.535C2.30954 11.4681 2.16431 11.3366 2.08013 11.1669C1.99596 10.9973 1.97906 10.8021 2.03283 10.6206C2.0866 10.439 2.20706 10.2845 2.37003 10.1881L2.46103 10.1421L3.38803 9.75806C3.47904 9.72036 3.57658 9.70095 3.67508 9.70095C3.77359 9.70095 3.87113 9.72036 3.96213 9.75806C4.05314 9.79576 4.13582 9.85102 4.20547 9.92068C4.27511 9.99034 4.32935 10.073 4.36703 10.1641ZM10.855 5.33106L10.684 5.38906C10.1638 5.57107 9.67222 5.82631 9.22403 6.14706C8.7425 5.99035 8.22415 5.98722 7.74076 6.1381C7.25736 6.28897 6.83282 6.5864 6.52592 6.9892C6.21902 7.39199 6.04493 7.88024 6.02775 8.38634C6.01057 8.89245 6.15115 9.39137 6.43003 9.81406C5.94224 9.95066 5.48035 10.1669 5.06303 10.4541C4.6047 9.66628 4.4335 8.74403 4.57857 7.84425C4.72363 6.94447 5.17599 6.12275 5.85868 5.51893C6.54136 4.91511 7.41218 4.56651 8.32295 4.53243C9.23371 4.49836 10.1281 4.78093 10.854 5.33206M2.94103 5.36306L3.04603 5.39806L3.97203 5.78206C4.1457 5.85526 4.28543 5.99117 4.36344 6.16273C4.44145 6.33429 4.45201 6.52893 4.39301 6.70792C4.33402 6.88691 4.20981 7.03714 4.04508 7.1287C3.88035 7.22026 3.68719 7.24645 3.50403 7.20206L3.39803 7.16806L2.47203 6.78406C2.29791 6.71106 2.15772 6.57509 2.07946 6.40327C2.00119 6.23145 1.99061 6.03643 2.04982 5.85715C2.10903 5.67788 2.23368 5.52753 2.39889 5.43612C2.56409 5.34472 2.75769 5.31798 2.94103 5.36306ZM6.75603 2.37806L6.80103 2.46906L7.18503 3.39506C7.25754 3.57057 7.26078 3.76705 7.19408 3.94485C7.12738 4.12265 6.99572 4.26853 6.82567 4.35305C6.65561 4.43757 6.45983 4.45443 6.27783 4.40024C6.09582 4.34605 5.94116 4.22483 5.84503 4.06106L5.79903 3.96906L5.41503 3.04306C5.34356 2.8677 5.34107 2.6718 5.40805 2.49468C5.47503 2.31756 5.60653 2.17233 5.77616 2.08816C5.94578 2.00398 6.14097 1.98708 6.32253 2.04085C6.5041 2.09462 6.65961 2.21508 6.75603 2.37806ZM11.108 2.05906C11.2742 2.12779 11.4102 2.25397 11.4912 2.41458C11.5721 2.5752 11.5927 2.75956 11.549 2.93406L11.514 3.03906L11.131 3.96506C11.0589 4.14033 10.9231 4.28179 10.7509 4.36099C10.5787 4.44019 10.3829 4.45126 10.2029 4.39197C10.0228 4.33268 9.87194 4.20743 9.78051 4.0414C9.68908 3.87538 9.6639 3.68089 9.71003 3.49706L9.74503 3.39106L10.128 2.46506C10.1657 2.37404 10.221 2.29134 10.2906 2.22168C10.3602 2.15202 10.4429 2.09676 10.5339 2.05906C10.6249 2.02136 10.7225 2.00195 10.821 2.00195C10.9195 2.00195 11.017 2.02136 11.108 2.05906Z" fill="black"/>
</svg>
