<svg width="24" height="24" viewBox="0 0 24 24" fill="none" xmlns="http://www.w3.org/2000/svg">
<path d="M13.002 6.01008C16.171 6.01008 17.968 8.10708 18.23 10.6401H18.31C18.7942 10.6394 19.2738 10.7341 19.7213 10.9188C20.1689 11.1035 20.5757 11.3745 20.9186 11.7164C21.2614 12.0583 21.5335 12.4644 21.7194 12.9115C21.9053 13.3586 22.0014 13.8379 22.002 14.3221C22.0015 14.8063 21.9056 15.2858 21.7197 15.733C21.5339 16.1802 21.2618 16.5864 20.9189 16.9284C20.5761 17.2704 20.1692 17.5415 19.7216 17.7262C19.2739 17.911 18.7943 18.0057 18.31 18.0051L17.691 18.0031L16.141 20.6281C16.0469 20.7945 15.8928 20.9187 15.7102 20.9753C15.5276 21.0319 15.3303 21.0166 15.1586 20.9326C14.9869 20.8486 14.8537 20.7022 14.7863 20.5233C14.7189 20.3444 14.7224 20.1465 14.796 19.9701L14.841 19.8781L15.959 18.0031H13.823L12.272 20.6281C12.1769 20.7925 12.023 20.9148 11.8412 20.9701C11.6595 21.0254 11.4636 21.0098 11.293 20.9262C11.1224 20.8427 10.9898 20.6975 10.9221 20.5201C10.8543 20.3426 10.8564 20.146 10.928 19.9701L10.973 19.8781L12.091 18.0031H9.95501L8.40401 20.6281C8.30891 20.7925 8.15496 20.9148 7.97324 20.9701C7.79152 21.0254 7.59558 21.0098 7.42497 20.9262C7.25436 20.8427 7.1218 20.6975 7.05406 20.5201C6.98632 20.3426 6.98845 20.146 7.06001 19.9701L7.10501 19.8781L8.22201 18.0031L7.69501 18.0051C7.21082 18.0057 6.73125 17.911 6.28367 17.7263C5.83609 17.5417 5.42927 17.2706 5.08644 16.9287C4.74361 16.5868 4.47147 16.1807 4.28558 15.7337C4.09968 15.2866 4.00366 14.8073 4.00301 14.3231C4.00353 13.8388 4.09945 13.3594 4.28529 12.9122C4.47113 12.465 4.74324 12.0588 5.08609 11.7168C5.42893 11.3748 5.8358 11.1037 6.28344 10.9189C6.73109 10.7342 7.21074 10.6394 7.69501 10.6401H7.77501C8.03801 8.09008 9.83401 6.01008 13.002 6.01008ZM13.002 7.50708C10.931 7.50708 9.12601 9.14108 9.12601 11.3971C9.12601 11.7541 8.80601 12.0351 8.44101 12.0351H7.75101C6.49001 12.0351 5.46801 13.0351 5.46801 14.2711C5.46801 15.5061 6.49001 16.5071 7.75101 16.5071H18.254C19.514 16.5071 20.537 15.5071 20.537 14.2711C20.537 13.0361 19.515 12.0351 18.254 12.0351H17.564C17.198 12.0351 16.879 11.7551 16.879 11.3971C16.879 9.11208 15.074 7.50708 13.002 7.50708ZM4.36801 10.1651C4.43746 10.3327 4.44382 10.5198 4.3859 10.6917C4.32798 10.8636 4.20971 11.0087 4.05301 11.1001L3.96201 11.1451L3.03601 11.5291C2.8605 11.6016 2.66402 11.6048 2.48621 11.5381C2.30841 11.4714 2.16253 11.3398 2.07801 11.1697C1.9935 10.9997 1.97663 10.8039 2.03082 10.6219C2.08502 10.4399 2.20623 10.2852 2.37001 10.1891L2.46201 10.1431L3.38801 9.75908C3.47901 9.72138 3.57655 9.70198 3.67506 9.70198C3.77356 9.70198 3.8711 9.72138 3.96211 9.75909C4.05311 9.79679 4.1358 9.85205 4.20544 9.92171C4.27509 9.99137 4.33033 10.0741 4.36801 10.1651ZM10.855 5.33208L10.683 5.39008C10.1628 5.5721 9.67119 5.82733 9.22301 6.14808C8.74153 5.99168 8.22335 5.98879 7.74016 6.1398C7.25697 6.2908 6.83265 6.58824 6.52591 6.99097C6.21917 7.3937 6.04518 7.8818 6.02799 8.38774C6.01081 8.89369 6.1513 9.39247 6.43001 9.81508C5.94256 9.95179 5.48102 10.168 5.06401 10.4551C4.60568 9.66731 4.43448 8.74506 4.57954 7.84527C4.7246 6.94549 5.17697 6.12377 5.85965 5.51995C6.54234 4.91614 7.41316 4.56753 8.32392 4.53346C9.23469 4.49939 10.1291 4.78196 10.855 5.33308M2.94101 5.36408L3.04701 5.39908L3.97301 5.78308C4.14713 5.85607 4.28732 5.99205 4.36559 6.16387C4.44385 6.33569 4.45444 6.5307 4.39522 6.70998C4.33601 6.88926 4.21136 7.03961 4.04616 7.13101C3.88095 7.22242 3.68735 7.24815 3.50401 7.20308L3.40001 7.16808L2.47401 6.78408C2.30035 6.71087 2.16061 6.57497 2.0826 6.40341C2.0046 6.23185 1.99404 6.03721 2.05303 5.85821C2.11202 5.67922 2.23624 5.529 2.40096 5.43744C2.56569 5.34588 2.75785 5.31969 2.94101 5.36408ZM6.75701 2.37808L6.80301 2.46908L7.18601 3.39508C7.25852 3.57059 7.26175 3.76707 7.19505 3.94487C7.12835 4.12267 6.99669 4.26855 6.82664 4.35307C6.65659 4.43759 6.4608 4.45446 6.2788 4.40026C6.0968 4.34607 5.94213 4.22485 5.84601 4.06108L5.80001 3.96808L5.41601 3.04208C5.34454 2.86672 5.34204 2.67082 5.40902 2.4937C5.476 2.31658 5.60751 2.17136 5.77713 2.08718C5.94675 2.003 6.14194 1.9861 6.32351 2.03987C6.50507 2.09364 6.65958 2.21411 6.75601 2.37708M11.11 2.05808C11.276 2.12699 11.4118 2.25324 11.4926 2.41384C11.5733 2.57444 11.5937 2.75871 11.55 2.93308L11.516 3.03808L11.132 3.96408C11.0588 4.13774 10.9229 4.27748 10.7513 4.35549C10.5798 4.43349 10.3851 4.44405 10.2061 4.38506C10.0272 4.32607 9.87693 4.20185 9.78537 4.03712C9.6938 3.8724 9.66761 3.67924 9.71201 3.49608L9.74601 3.39008L10.13 2.46408C10.1677 2.37307 10.2229 2.29037 10.2926 2.22071C10.3622 2.15105 10.4449 2.09579 10.5359 2.05808C10.6269 2.02038 10.7245 2.00098 10.823 2.00098C10.9215 2.00098 11.019 2.02038 11.11 2.05808Z" fill="black"/>
</svg>
