<svg width="24" height="24" viewBox="0 0 24 24" fill="none" xmlns="http://www.w3.org/2000/svg">
<path d="M10.464 15.748L12.7 13.26C12.8263 13.1182 13.0017 13.0296 13.1907 13.0121C13.3798 12.9945 13.5685 13.0493 13.7187 13.1654C13.8689 13.2815 13.9695 13.4503 14.0002 13.6376C14.0309 13.825 13.9894 14.017 13.884 14.175L13.816 14.263L12.705 15.499H14.981C15.1136 15.4989 15.2439 15.5339 15.3586 15.6005C15.4732 15.6671 15.5682 15.7629 15.6337 15.8782C15.6993 15.9935 15.7331 16.124 15.7317 16.2566C15.7304 16.3892 15.6939 16.5191 15.626 16.633L15.568 16.717L12.356 20.748C12.2382 20.8965 12.0685 20.9949 11.8811 21.0234C11.6937 21.0519 11.5025 21.0083 11.3458 20.9015C11.1892 20.7947 11.0789 20.6325 11.037 20.4477C10.9951 20.2628 11.0248 20.0689 11.12 19.905L11.183 19.814L13.425 16.999H11.022C10.8861 16.9991 10.7526 16.9621 10.636 16.8922C10.5194 16.8223 10.424 16.7219 10.36 16.602C10.296 16.482 10.2658 16.3469 10.2727 16.2111C10.2796 16.0753 10.3232 15.9439 10.399 15.831L10.464 15.748ZM13.002 5.008C16.17 5.008 17.968 7.106 18.229 9.639H18.309C18.7933 9.63834 19.2729 9.73309 19.7206 9.91784C20.1682 10.1026 20.5751 10.3737 20.9179 10.7157C21.2608 11.0577 21.5329 11.4639 21.7187 11.9111C21.9046 12.3583 22.0005 12.8377 22.001 13.322C22.0004 13.8062 21.9044 14.2855 21.7185 14.7326C21.5326 15.1796 21.2604 15.5857 20.9176 15.9276C20.5748 16.2695 20.1679 16.5406 19.7204 16.7253C19.2728 16.9099 18.7932 17.0047 18.309 17.004L16.521 17.005C16.6716 16.7838 16.752 16.5223 16.7517 16.2547C16.7513 15.9871 16.6702 15.7258 16.519 15.505L18.253 15.507C19.514 15.507 20.536 14.505 20.536 13.27C20.536 12.035 19.514 11.034 18.253 11.034H17.563C17.197 11.034 16.878 10.754 16.878 10.396C16.878 8.111 15.073 6.506 13.002 6.506C10.93 6.506 9.12503 8.14 9.12503 10.396C9.12503 10.753 8.80603 11.034 8.44103 11.034H7.75103C6.48903 11.034 5.46703 12.034 5.46703 13.27C5.46703 14.505 6.48903 15.507 7.75003 15.507L9.51203 15.506C9.36082 15.7268 9.27974 15.9881 9.27939 16.2557C9.27903 16.5233 9.35941 16.7848 9.51003 17.006L7.69403 17.004C7.20984 17.0047 6.73027 16.9099 6.28269 16.7253C5.83511 16.5406 5.42829 16.2695 5.08546 15.9276C4.74262 15.5857 4.47049 15.1796 4.28459 14.7326C4.0987 14.2855 4.00268 13.8062 4.00203 13.322C4.00255 12.8377 4.09847 12.3583 4.28431 11.9111C4.47014 11.4639 4.74226 11.0577 5.0851 10.7157C5.42795 10.3737 5.83482 10.1026 6.28246 9.91784C6.7301 9.73309 7.20976 9.63834 7.69403 9.639H7.77403C8.03703 7.089 9.83403 5.008 13.002 5.008ZM10 2C11.617 2 13.05 2.815 13.9 4.062C13.6019 4.0275 13.3021 4.00981 13.002 4.009C12.6067 4.009 12.227 4.03733 11.863 4.094C11.4204 3.78031 10.9058 3.58353 10.3668 3.52191C9.82786 3.46029 9.28207 3.53583 8.78011 3.74152C8.27814 3.94721 7.83628 4.27639 7.49554 4.69849C7.1548 5.1206 6.92622 5.62195 6.83103 6.156L6.75803 6.57C6.71733 6.80168 6.59627 7.0116 6.41611 7.16286C6.23596 7.31411 6.00825 7.39702 5.77303 7.397H5.28303C4.93067 7.39663 4.58611 7.50073 4.2929 7.69613C3.99969 7.89154 3.77099 8.16949 3.63571 8.49484C3.50044 8.8202 3.46465 9.17836 3.53287 9.52404C3.6011 9.86973 3.77028 10.1874 4.01903 10.437C3.70403 10.837 3.45403 11.292 3.28403 11.784C2.75239 11.3763 2.35829 10.8156 2.15465 10.1773C1.95102 9.53899 1.94761 8.85366 2.14489 8.21337C2.34217 7.57309 2.73069 7.00851 3.25824 6.59551C3.78579 6.1825 4.42711 5.94084 5.09603 5.903L5.35303 5.897C5.54639 4.80501 6.11808 3.81598 6.96781 3.10339C7.81754 2.3908 8.89105 2.00016 10 2Z" fill="black"/>
</svg>
