<svg width="16" height="16" viewBox="0 0 16 16" fill="none" xmlns="http://www.w3.org/2000/svg">
<path d="M8.99903 6.99967C8.33599 6.99967 7.70011 7.26307 7.23127 7.73191C6.76243 8.20075 6.49903 8.83663 6.49903 9.49967V9.99967H5.50003C5.10221 9.99967 4.72068 10.1577 4.43937 10.439C4.15807 10.7203 4.00003 11.1019 4.00003 11.4997C4.00003 11.8975 4.15807 12.279 4.43937 12.5603C4.72068 12.8416 5.10221 12.9997 5.50003 12.9997H12.5C12.8979 12.9997 13.2794 12.8416 13.5607 12.5603C13.842 12.279 14 11.8975 14 11.4997C14 11.1019 13.842 10.7203 13.5607 10.439C13.2794 10.1577 12.8979 9.99967 12.5 9.99967H11.5L11.499 9.49967C11.499 8.83663 11.2356 8.20075 10.7668 7.73191C10.298 7.26307 9.66208 6.99967 8.99903 6.99967ZM5.53503 8.99967C5.65467 8.16611 6.07083 7.40362 6.70719 6.85207C7.34354 6.30053 8.15742 5.99691 8.99953 5.99691C9.84165 5.99691 10.6555 6.30053 11.2919 6.85207C11.9282 7.40362 12.3444 8.16611 12.464 8.99967H12.5C13.1631 8.99967 13.799 9.26307 14.2678 9.73191C14.7366 10.2007 15 10.8366 15 11.4997C15 12.1627 14.7366 12.7986 14.2678 13.2674C13.799 13.7363 13.1631 13.9997 12.5 13.9997H5.50003C4.83699 13.9997 4.20111 13.7363 3.73227 13.2674C3.26343 12.7986 3.00003 12.1627 3.00003 11.4997C3.00003 10.8366 3.26343 10.2007 3.73227 9.73191C4.20111 9.26307 4.83699 8.99967 5.50003 8.99967H5.53503ZM8.78703 2.81967C8.81789 2.7617 8.83703 2.69821 8.84336 2.63283C8.84968 2.56746 8.84307 2.50148 8.82389 2.43866C8.80472 2.37584 8.77336 2.31741 8.7316 2.26671C8.68985 2.21601 8.63851 2.17404 8.58053 2.14317C8.52255 2.11231 8.45907 2.09317 8.39369 2.08685C8.32832 2.08053 8.26234 2.08714 8.19952 2.10632C8.1367 2.12549 8.07827 2.15685 8.02757 2.19861C7.97687 2.24036 7.93489 2.2917 7.90403 2.34967L7.47803 3.15267C7.41571 3.26977 7.40245 3.40682 7.44118 3.53369C7.4799 3.66056 7.56744 3.76685 7.68453 3.82917C7.80163 3.8915 7.93868 3.90476 8.06555 3.86603C8.19242 3.82731 8.29871 3.73977 8.36103 3.62267L8.78703 2.81967ZM5.01503 2.07267C4.9958 2.00984 4.96437 1.9514 4.92255 1.90071C4.88073 1.85002 4.82933 1.80806 4.77129 1.77723C4.71326 1.7464 4.64972 1.72731 4.5843 1.72103C4.51888 1.71476 4.45287 1.72144 4.39003 1.74067C4.3272 1.75991 4.26876 1.79134 4.21807 1.83316C4.16738 1.87498 4.12542 1.92638 4.09459 1.98441C4.06376 2.04245 4.04467 2.10599 4.03839 2.17141C4.03212 2.23683 4.0388 2.30284 4.05803 2.36567L4.32503 3.23567C4.36536 3.36067 4.45324 3.46478 4.5697 3.52551C4.68615 3.58623 4.82183 3.5987 4.9474 3.56022C5.07297 3.52173 5.17836 3.43538 5.24079 3.31983C5.30322 3.20427 5.31767 3.0688 5.28103 2.94267L5.01503 2.07267ZM6.00003 3.99967C6.91603 3.99967 7.73503 4.40967 8.28503 5.05567C7.8957 5.11834 7.5267 5.22767 7.17803 5.38367C6.79258 5.10352 6.31975 4.97019 5.84472 5.0077C5.36968 5.04522 4.92365 5.2511 4.58694 5.58829C4.25024 5.92548 4.04499 6.37181 4.00815 6.8469C3.97132 7.32199 4.10532 7.79462 4.38603 8.17967C4.06559 8.28741 3.76244 8.44101 3.48603 8.63567C3.19151 8.18296 3.02465 7.65914 3.00309 7.11948C2.98152 6.57982 3.10603 6.04435 3.36349 5.56958C3.62095 5.09481 4.0018 4.69834 4.46585 4.42203C4.92991 4.14571 5.45995 3.99979 6.00003 3.99967ZM1.82003 4.21367C1.76206 4.18281 1.69857 4.16368 1.63319 4.15735C1.56782 4.15103 1.50184 4.15764 1.43902 4.17682C1.3762 4.19599 1.31777 4.22735 1.26707 4.26911C1.21637 4.31086 1.17439 4.3622 1.14353 4.42017C1.11267 4.47815 1.09353 4.54164 1.08721 4.60702C1.08089 4.67239 1.0875 4.73837 1.10668 4.80119C1.12585 4.86401 1.15721 4.92244 1.19897 4.97314C1.24072 5.02384 1.29206 5.06581 1.35003 5.09667L2.15303 5.52267C2.27013 5.585 2.40718 5.59826 2.53405 5.55953C2.66092 5.52081 2.76721 5.43327 2.82953 5.31617C2.89186 5.19908 2.90512 5.06203 2.86639 4.93516C2.82767 4.80829 2.74013 4.702 2.62303 4.63967L1.82003 4.21367ZM2.23603 8.67667C2.36103 8.63635 2.46514 8.54847 2.52587 8.43201C2.58659 8.31555 2.59906 8.17988 2.56058 8.05431C2.52209 7.92873 2.43574 7.82335 2.32019 7.76092C2.20463 7.69849 2.06916 7.68403 1.94303 7.72067L1.07303 7.98667C1.00939 8.00516 0.950052 8.03612 0.898479 8.07775C0.846905 8.11938 0.804123 8.17085 0.772619 8.22916C0.741116 8.28747 0.72152 8.35147 0.714971 8.41742C0.708422 8.48337 0.715052 8.54997 0.734473 8.61334C0.753895 8.67671 0.785721 8.73558 0.828101 8.78654C0.870481 8.8375 0.92257 8.87952 0.981338 8.91017C1.04011 8.94081 1.10438 8.95947 1.17042 8.96505C1.23646 8.97063 1.30296 8.96302 1.36603 8.94267L2.23603 8.67667Z" fill="black"/>
</svg>
