<svg width="20" height="20" viewBox="0 0 20 20" fill="none" xmlns="http://www.w3.org/2000/svg">
<path d="M9.49998 17C9.63259 17 9.75977 17.0527 9.85354 17.1464C9.94731 17.2402 9.99998 17.3674 9.99998 17.5C9.99998 17.6326 9.94731 17.7598 9.85354 17.8536C9.75977 17.9473 9.63259 18 9.49998 18C9.36738 18 9.2402 17.9473 9.14643 17.8536C9.05266 17.7598 8.99998 17.6326 8.99998 17.5C8.99998 17.3674 9.05266 17.2402 9.14643 17.1464C9.2402 17.0527 9.36738 17 9.49998 17ZM12.5 17C12.6326 17 12.7598 17.0527 12.8535 17.1464C12.9473 17.2402 13 17.3674 13 17.5C13 17.6326 12.9473 17.7598 12.8535 17.8536C12.7598 17.9473 12.6326 18 12.5 18C12.3674 18 12.2402 17.9473 12.1464 17.8536C12.0527 17.7598 12 17.6326 12 17.5C12 17.3674 12.0527 17.2402 12.1464 17.1464C12.2402 17.0527 12.3674 17 12.5 17ZM7.99998 16C8.13259 16 8.25977 16.0527 8.35354 16.1464C8.44731 16.2402 8.49998 16.3674 8.49998 16.5C8.49998 16.6326 8.44731 16.7598 8.35354 16.8536C8.25977 16.9473 8.13259 17 7.99998 17C7.86738 17 7.7402 16.9473 7.64643 16.8536C7.55266 16.7598 7.49998 16.6326 7.49998 16.5C7.49998 16.3674 7.55266 16.2402 7.64643 16.1464C7.7402 16.0527 7.86738 16 7.99998 16ZM11 16C11.1326 16 11.2598 16.0527 11.3535 16.1464C11.4473 16.2402 11.5 16.3674 11.5 16.5C11.5 16.6326 11.4473 16.7598 11.3535 16.8536C11.2598 16.9473 11.1326 17 11 17C10.8674 17 10.7402 16.9473 10.6464 16.8536C10.5527 16.7598 10.5 16.6326 10.5 16.5C10.5 16.3674 10.5527 16.2402 10.6464 16.1464C10.7402 16.0527 10.8674 16 11 16ZM14 16C14.1326 16 14.2598 16.0527 14.3535 16.1464C14.4473 16.2402 14.5 16.3674 14.5 16.5C14.5 16.6326 14.4473 16.7598 14.3535 16.8536C14.2598 16.9473 14.1326 17 14 17C13.8674 17 13.7402 16.9473 13.6464 16.8536C13.5527 16.7598 13.5 16.6326 13.5 16.5C13.5 16.3674 13.5527 16.2402 13.6464 16.1464C13.7402 16.0527 13.8674 16 14 16ZM11 6C13.465 6 14.863 7.574 15.066 9.474H15.128C16.714 9.474 18 10.711 18 12.237C18 13.763 16.714 15 15.128 15H6.87198C5.28598 15 3.99998 13.763 3.99998 12.237C3.99998 10.711 5.28598 9.474 6.87198 9.474H6.93398C7.13898 7.561 8.53498 6 11 6ZM11 7C9.34998 7 7.91298 8.27 7.91298 10.025C7.91298 10.303 7.65898 10.521 7.36798 10.521H6.81798C5.81398 10.521 4.99998 11.3 4.99998 12.261C4.99998 13.22 5.81398 14 6.81798 14H15.182C16.186 14 17 13.221 17 12.26C17 11.3 16.186 10.521 15.182 10.521H14.632C14.342 10.521 14.087 10.303 14.087 10.025C14.087 8.248 12.65 7 11 7ZM5.84298 2C6.51035 2.03635 7.15968 2.22994 7.73798 2.565C8.22068 2.84288 8.6439 3.21313 8.98346 3.65462C9.32302 4.0961 9.57228 4.60016 9.71698 5.138C9.34672 5.21796 8.98675 5.33975 8.64398 5.501C8.55052 5.04461 8.35375 4.6157 8.06877 4.24717C7.78379 3.87863 7.41818 3.58028 6.99998 3.375C6.82584 3.28328 6.64729 3.20017 6.46498 3.126C6.55098 4.354 6.42898 5.609 5.83898 6.571C5.25898 7.424 4.51098 7.994 3.28098 8.469C3.42098 8.59233 3.57098 8.70533 3.73098 8.808C4.04165 9.006 4.34832 9.15933 4.65098 9.268C4.3163 9.48896 4.01976 9.76287 3.77298 10.079C3.10463 9.75963 2.53161 9.27073 2.11098 8.661C2.05673 8.58162 2.02136 8.49087 2.00759 8.3957C1.99382 8.30054 2.00202 8.20348 2.03156 8.11198C2.06109 8.02047 2.11119 7.93694 2.17799 7.86778C2.2448 7.79863 2.32655 7.74568 2.41698 7.713C3.79298 7.221 4.53398 6.667 4.95698 5.857C5.41998 4.974 5.50598 4.037 5.19898 2.777C5.17574 2.68179 5.17511 2.58246 5.19713 2.48696C5.21916 2.39146 5.26323 2.30245 5.32581 2.22703C5.3884 2.15161 5.46777 2.09189 5.55758 2.05264C5.64738 2.01339 5.74512 1.99471 5.84298 2Z" fill="black"/>
</svg>
