<svg width="24" height="24" viewBox="0 0 24 24" fill="none" xmlns="http://www.w3.org/2000/svg">
<path d="M13.0005 8.00509C16.169 8.00509 17.9665 10.1021 18.228 12.6351H18.308C20.347 12.6351 22 14.2836 22 16.3176C22 18.3516 20.347 20.0001 18.308 20.0001H7.69299C5.65399 20.0001 4.00099 18.3516 4.00099 16.3176C4.00099 14.2836 5.65399 12.6351 7.69299 12.6351H7.77299C8.03599 10.0851 9.83199 8.00509 13.0005 8.00509ZM13.0005 9.25259C10.87 9.25259 9.01299 10.9766 9.01299 13.3576C9.01299 13.7351 8.68499 14.0311 8.30949 14.0311H7.59899C6.30199 14.0311 5.25049 15.0881 5.25049 16.3916C5.25049 17.6951 6.30199 18.7526 7.59899 18.7526H18.402C19.699 18.7526 20.7505 17.6956 20.7505 16.3916C20.7505 15.0881 19.699 14.0316 18.402 14.0316H17.692C17.316 14.0316 16.988 13.7351 16.988 13.3576C16.988 10.9461 15.131 9.25259 13.0005 9.25259ZM6.59049 4.00109C7.38549 4.04409 8.15699 4.27309 8.85299 4.67509C9.86802 5.25838 10.6489 6.17621 11.062 7.27159C10.684 7.37794 10.3175 7.52112 9.96749 7.69909C9.64749 6.82859 8.93749 6.12109 7.97199 5.56809C7.74709 5.44136 7.50768 5.3423 7.25899 5.27309C7.44099 6.79309 7.38249 7.82709 6.73049 9.06209L6.59649 9.30159C5.94899 10.4001 4.99299 11.0501 3.53399 11.7216C3.69499 11.8806 3.94049 12.0676 4.13999 12.2086C4.36699 12.3686 4.60099 12.5049 4.84199 12.6176C4.49599 12.8859 4.18919 13.2013 3.93049 13.5546L3.77549 13.4686C3.1222 13.0927 2.56132 12.5754 2.13399 11.9546C2.06883 11.8599 2.02629 11.7515 2.00963 11.6377C1.99298 11.524 2.00265 11.408 2.03792 11.2986C2.07318 11.1891 2.13309 11.0893 2.21302 11.0067C2.29296 10.9241 2.39079 10.8609 2.49899 10.8221C4.14149 10.2341 5.02649 9.57209 5.53249 8.60609C6.08549 7.55109 6.18749 6.43209 5.82049 4.92909C5.7927 4.81524 5.79194 4.69647 5.81826 4.58228C5.84459 4.46808 5.89728 4.36163 5.97211 4.27145C6.04694 4.18126 6.14184 4.10984 6.24922 4.06289C6.35659 4.01595 6.47347 3.99478 6.59049 4.00109Z" fill="white"/>
</svg>
