<svg width="1000" height="1000" viewBox="0 0 1000 1000" fill="none" xmlns="http://www.w3.org/2000/svg" id="g farm">
    <g class="ground">
        <path class="ground-top" d="M1000 650L500 900L0 650L500 400L1000 650Z" fill="#333333"/>
        <path class="ground-right" d="M500 900V1000L0 750V650L500 900Z" fill="black"/>
        <path class="ground-left" d="M500 900V1000L1000 750V650L500 900Z" fill="#555555"/>
    </g>
    <g class="pergola">
        <path class="railing-left" d="M725 462.5L721 464.5V588.5L725 586.5V462.5Z" fill="#A6A6A6"/>
        <path class="railing-right" d="M717 466.5L721 464.5V588.5L717 586.5V466.5Z" fill="#3B3B3B"/>
        <path class="pergola-right" d="M599 508.5V525.5L725 462.5V445.5L599 508.5Z" fill="#A6A6A6"/>
        <path class="pergola-top" d="M599 508.5V382.5L725 445.5L599 508.5Z" fill="#D9D9D9"/>
    </g>
    <g class="water-tank">
        <path class="water-tank-left" d="M599 330.5L659 300.533V391.533L599 421.5V330.5Z" fill="#380BFF"/>
        <path class="water-tank-right" d="M599 330.499V421.499L539 391.533V300.533L599 330.499Z" fill="#1B0E55"/>
        <path class="water-tank-top" d="M659 300.5L599 330.5L539 300.5L599 270.5L659 300.5Z" fill="#1D009E"/>
        <path class="water-tank-highlight-left" d="M599 308.423V330.5L659 300.5L637 289.5L599 308.423Z" fill="white" fill-opacity="0.1"/>
        <path class="water-tank-highlight-right" d="M599 308.423V330.5L539 300.5L561 289.5L599 308.423Z" fill="black" fill-opacity="0.1"/>
        <path class="water-tank-divicion-left" d="M659 322.5L599 352.5V370.5L659 340.5V322.5Z" fill="#FFF700"/>
        <path class="water-tank-divicion-right" d="M539 322.5L599 352.5V370.5L539 340.5V322.5Z" fill="#C2B202"/>
        <path class="water-tank-divicion-left" d="M659 355.5L599 385.5V403.5L659 373.5V355.5Z" fill="#FFF700"/>
        <path class="water-tank-divicion-right" d="M539 355.5L599 385.5V403.5L539 373.5V355.5Z" fill="#C2B202"/>
        <path class="railing-right" d="M597 474.5V420.5L599 421.5V475.5L597 474.5Z" fill="#3B3B3B"/>
        <path class="railing-left" d="M601 474.5V420.5L599 421.5V475.5L601 474.5Z" fill="#A7A7A7"/>
        <path class="railing-right" d="M655 445.5V393.5L657 392.5V446.5L655 445.5Z" fill="#3B3B3B"/>
        <path class="railing-left" d="M659 445.5V391.5L657 392.5V446.5L659 445.5Z" fill="#A7A7A7"/>
        <path class="railing-right" d="M539 445.5V391.5L541 392.5V446.5L539 445.5Z" fill="#3B3B3B"/>
        <path class="railing-left" d="M543 445.5V393.5L541 392.5V446.5L543 445.5Z" fill="#A7A7A7"/>
    </g>
    <g class="base">
        <path class="base-left" d="M347 493.5L599 367.5V649.5L347 775.5V493.5Z" fill="#E67070"/>
        <path class="base-right" d="M347 493.499V775.5L95 649.5V367.5L347 493.499Z" fill="#CA2B2B"/>
        <path class="base-top" d="M599 367.5L347 493.5L95 367.5L347 241.5L599 367.5Z" fill="#F04949"/>
        <path class="roof-left" d="M231 220L95 367.5L347 493.5L483 346L231 220Z" fill="#A7A7A7"/>
        <path class="roof-top" d="M347 241.5L231 220.5L483 346L599 367.5L347 241.5Z" fill="#D9D9D9"/>
        <path class="base-left" d="M483 346L347 493.5L599 367.5L483 346Z" fill="#E67070"/>
    </g>
    <g class="door-02">
        <path class="door-background" d="M435 604.5V731.5L511 693.5V566.5L435 604.5Z" fill="#D9D9D9"/>
        <g class="door-frame">
            <path class="door-frame-left" d="M431 733.5L427 735.5V600.5L431 602.5V733.5Z" fill="#3B3B3B"/>
            <path class="door-frame-left" d="M515 691.5L511 693.5V558.5L515 560.5V691.5Z" fill="#3B3B3B"/>
            <path class="door-frame-top" d="M515 556.5L427 600.5L431 602.5L519 558.5L515 556.5Z" fill="#676767"/>
            <path class="door-frame-right" d="M435 731.5L431 733.5V602.5L519 558.5V689.5L515 691.5V564.5L435 604.5V731.5Z" fill="#A6A6A6"/>
        </g>
    </g>
    <g class="farm-window">
        <path class="base-right" d="M433 537.5V436.5L513 396.5V497.5L433 537.5Z" fill="#CA2B2B"/>
        <path class="base-top" d="M513 497.5V465.5L444 431L433 436.5V537.5L513 497.5Z" fill="#F04949"/>
        <path class="farm-window-base-top" d="M433 541.5V537.5L513 497.5L517 499.5L433 541.5Z" fill="white"/>
        <path class="farm-window-frame-right" d="M517 499.501L513 497.547V396.5L517 394.5V499.501Z" fill="#676767"/>
        <path class="farm-window-frame-top" d="M470 517L472 517.5L513 449.5H511.5L470 517Z" fill="white"/>
        <path class="farm-window-frame-right" d="M471 520L472 519.5L431 490.5V492L471 520Z" fill="#676767"/>
        <path class="farm-window-frame-top" d="M470.5 414.5H472L431 490.5V488.5L470.5 414.5Z" fill="white"/>
        <path class="farm-window-frame-right" d="M513 449.5H511.5L472 418L472.5 417L513 449.5Z" fill="#676767"/>
        <path class="farm-window-frame-left" fill-rule="evenodd" clip-rule="evenodd" d="M471.5 517L513 449.5L472.5 417L433.5 490L471.5 517ZM474 416L515 449.5L472 519.5L433 492V486.5L470 418L474 416Z" fill="#CCCCCC"/>
        <path class="farm-window-frame-left" fill-rule="evenodd" clip-rule="evenodd" d="M429 547.5V434.5L521 388.5V501.5L429 547.5ZM433 436.5V541L517 499.5V394.5L433 436.5Z" fill="#CCCCCC"/>
        <path class="farm-window-frame-right" d="M429 547.501L425 545.501V432.535L429 434.501L429 547.501Z" fill="#676767"/>
        <path class="farm-window-frame-top" d="M429 434.5L425 432.5L517 386.5L521 388.5L429 434.5Z" fill="white"/>
    </g>
    <g class="windows-group">
        <g class="window-03">
            <path class="window-background" d="M113 585.5V544.5L197 586.5V627.5L113 585.5Z" fill="#CAFFFF"/>
            <g class="window-frame">
                <path class="window-frame-left" d="M113 585.5L109 587.5V542.5L113 544.5V585.5Z" fill="#A6A6A6"/>
                <path class="window-frame-left" d="M205 635.5L201 637.5V580.5L205 582.5V635.5Z" fill="#A6A6A6"/>
                <path class="window-frame-top" d="M109 534.5L105 536.5L201 584.5L205 582.5L109 534.5Z" fill="#676767"/>
                <path class="window-frame-top" d="M113 585.5L109 587.5L197 631.5V627.5L113 585.5Z" fill="#676767"/>
                <path class="window-frame-right" fill-rule="evenodd" clip-rule="evenodd" d="M105 589.5V536.5L201 584.5V637.5L105 589.5ZM109 542.5V587.5L197 631.5V586.5L109 542.5Z" fill="#3B3B3B"/>
            </g>
        </g>
        <g class="window-03">
            <path class="window-background" d="M244 650.5V609.5L328 651.5V692.5L244 650.5Z" fill="#CAFFFF"/>
            <g class="window-frame">
                <path class="window-frame-left" d="M244 650.5L240 652.5V607.5L244 609.5V650.5Z" fill="#A6A6A6"/>
                <path class="window-frame-left" d="M336 700.5L332 702.5V645.5L336 647.5V700.5Z" fill="#A6A6A6"/>
                <path class="window-frame-top" d="M240 599.5L236 601.5L332 649.5L336 647.5L240 599.5Z" fill="#676767"/>
                <path class="window-frame-top" d="M244 650.5L240 652.5L328 696.5V692.5L244 650.5Z" fill="#676767"/>
                <path class="window-frame-right" fill-rule="evenodd" clip-rule="evenodd" d="M236 654.5V601.5L332 649.5V702.5L236 654.5ZM240 607.5V652.5L328 696.5V651.5L240 607.5Z" fill="#3B3B3B"/>
            </g>
        </g>
    </g>
    <g class="tree">
        <path class="tree-trunk-right" d="M697.674 535.904L691.465 532.799V676.395L697.674 679.5V535.904Z" fill="#432606"/>
        <path class="tree-trunk-left" d="M697.675 535.904L703.885 532.799V676.395L697.675 679.5V535.904Z" fill="#804400"/>
        <path class="tree-foliage-left" d="M675.963 520.585L724.927 496.166V550.817L675.963 575.236V520.585Z" fill="#28C900"/>
        <path class="tree-foliage-right" d="M675.964 520.585V575.236L627 550.817V496.166L675.964 520.585Z" fill="#2E6820"/>
        <path class="tree-foliage-top" d="M724.927 496.167L675.964 520.585L627 496.167L675.964 471.748L724.927 496.167Z" fill="#309C15"/>
        <path class="tree-foliage-left" d="M728.035 546.553L776.999 522.135V576.786L728.035 601.205V546.553Z" fill="#28C900"/>
        <path class="tree-foliage-right" d="M728.036 546.553V601.205L679.072 576.786V522.135L728.036 546.553Z" fill="#2E6820"/>
        <path class="tree-foliage-top" d="M777 522.135L728.036 546.554L679.072 522.135L728.036 497.717L777 522.135Z" fill="#309C15"/>
        <path class="tree-foliage-left" d="M703.941 478.337L752.905 453.918V508.569L703.941 532.988V478.337Z" fill="#28C900"/>
        <path class="tree-foliage-right" d="M703.942 478.336V532.988L654.979 508.569V453.918L703.942 478.336Z" fill="#2E6820"/>
        <path class="tree-foliage-top" d="M752.906 453.919L703.942 478.337L654.979 453.919L703.942 429.5L752.906 453.919Z" fill="#309C15"/>
    </g>
    <g class="tree">
        <path class="tree-trunk-right" d="M826.674 535.904L820.465 532.799V676.395L826.674 679.5V535.904Z" fill="#432606"/>
        <path class="tree-trunk-left" d="M826.675 535.904L832.885 532.799V676.395L826.675 679.5V535.904Z" fill="#804400"/>
        <path class="tree-foliage-left" d="M804.963 520.585L853.927 496.166V550.817L804.963 575.236V520.585Z" fill="#28C900"/>
        <path class="tree-foliage-right" d="M804.964 520.585V575.236L756 550.817V496.166L804.964 520.585Z" fill="#2E6820"/>
        <path class="tree-foliage-top" d="M853.927 496.167L804.964 520.585L756 496.167L804.964 471.748L853.927 496.167Z" fill="#309C15"/>
        <path class="tree-foliage-left" d="M857.035 546.553L905.999 522.135V576.786L857.035 601.205V546.553Z" fill="#28C900"/>
        <path class="tree-foliage-right" d="M857.036 546.553V601.205L808.072 576.786V522.135L857.036 546.553Z" fill="#2E6820"/>
        <path class="tree-foliage-top" d="M906 522.135L857.036 546.554L808.072 522.135L857.036 497.717L906 522.135Z" fill="#309C15"/>
        <path class="tree-foliage-left" d="M832.941 478.337L881.905 453.918V508.569L832.941 532.988V478.337Z" fill="#28C900"/>
        <path class="tree-foliage-right" d="M832.942 478.336V532.988L783.979 508.569V453.918L832.942 478.336Z" fill="#2E6820"/>
        <path class="tree-foliage-top" d="M881.906 453.919L832.942 478.337L783.979 453.919L832.942 429.5L881.906 453.919Z" fill="#309C15"/>
    </g>
    <g class="tree">
        <path class="tree-trunk-right" d="M739.674 608.904L733.465 605.799V749.395L739.674 752.5V608.904Z" fill="#432606"/>
        <path class="tree-trunk-left" d="M739.675 608.904L745.885 605.799V749.395L739.675 752.5V608.904Z" fill="#804400"/>
        <path class="tree-foliage-left" d="M717.963 593.585L766.927 569.166V623.817L717.963 648.236V593.585Z" fill="#28C900"/>
        <path class="tree-foliage-right" d="M717.964 593.585V648.236L669 623.817V569.166L717.964 593.585Z" fill="#2E6820"/>
        <path class="tree-foliage-top" d="M766.927 569.167L717.964 593.585L669 569.167L717.964 544.748L766.927 569.167Z" fill="#309C15"/>
        <path class="tree-foliage-left" d="M770.035 619.553L818.999 595.135V649.786L770.035 674.205V619.553Z" fill="#28C900"/>
        <path class="tree-foliage-right" d="M770.036 619.553V674.205L721.072 649.786V595.135L770.036 619.553Z" fill="#2E6820"/>
        <path class="tree-foliage-top" d="M819 595.135L770.036 619.554L721.072 595.135L770.036 570.717L819 595.135Z" fill="#309C15"/>
        <path class="tree-foliage-left" d="M745.941 551.337L794.905 526.918V581.569L745.941 605.988V551.337Z" fill="#28C900"/>
        <path class="tree-foliage-right" d="M745.942 551.336V605.988L696.979 581.569V526.918L745.942 551.336Z" fill="#2E6820"/>
        <path class="tree-foliage-top" d="M794.906 526.919L745.942 551.337L696.979 526.919L745.942 502.5L794.906 526.919Z" fill="#309C15"/>
    </g>
</svg>
