<svg id="g hospital" width="1000" height="1000" viewBox="0 0 1000 1000" fill="none" xmlns="http://www.w3.org/2000/svg">
  <defs>
    <g id="window-unit-s3">
      <path class="window-background" d="M639 505V404L723 446V547L639 505Z" fill="#D9D9D9"/>
        <g class="shelf">
            <path class="shelf-left" d="M641 506L639 507V493L641 494V506Z" fill="#804400"/>
            <path class="shelf-top" d="M711 528L723 522L639 480L627 486L711 528Z" fill="#B66100" />
            <path class="shelf-right" d="M717 546L721 548V528L717 527V546Z" fill="#432606" />
            <path class="shelf-left" d="M723 547L721 548V528L711 533V528L723 522V547Z" fill="#804400"/>
            <path class="shelf-right" d="M711 533L707 531L639 497V507L635 505V495L627 491V486L711 528V533Z" fill="#432606"/>
        </g>
        <g class="window-frame">
            <path class="window-frame-left" d="M723 522L721 523V447L723 446V522Z" fill="#A6A6A6" />
            <path class="window-frame-top" d="M719 520V518L641 479L639 480L719 520Z" fill="#676767" />
            <path class="window-frame-right" fill-rule="evenodd" clip-rule="evenodd" d="M637 405V481L721 523V447L637 405ZM639 408V480L677 499V427L639 408ZM719 448L679 428V500L719 520V448Z" fill="#3B3B3B"/>
            <path class="window-frame-left" d="M639 480L641 479.004V409L639 408V480Z" fill="#A6A6A6"/>
            <path class="window-frame-top" d="M721 447L723 446L639 404L637 405L721 447Z" fill="#676767" />
            <path class="window-frame-left" d="M679 500L681 499V429L679 428V500Z" fill="#A6A6A6" />
        </g>
        <g class="flower">
            <g class="flowerpots">
                <path class="flowerpots-top" d="M692.5 499.91L684.5 503.91L692.5 507.91L700.5 503.91L692.5 499.91Z" fill="#676767"/>
                <path class="flowerpots-left" d="M700.5 503.91L692.5 507.91L692.5 518.91L700.5 514.91L700.5 503.91Z" fill="#A6A6A6" />
                <path class="flowerpots-right" d="M684.5 503.91L692.5 507.91V518.91L684.5 514.91L684.5 503.91Z" fill="#3B3B3B" />
                <path class="flowerpots-left" d="M692.5 505.91V501.91L688.5 503.91L692.5 505.91Z" fill="#A6A6A6"/>
                <path class="flowerpots-right" d="M696.5 503.91L692.5 505.91V501.91L696.5 503.91Z"
                    fill="#3B3B3B" />
            </g>
            <g class="flower-group">
                <g class="stem">
                    <path class="stem-top" d="M692.5 499.91L690.5 500.91L692.5 501.91L694.5 500.91L692.5 499.91Z" fill="#B44C01"/>
                    <path class="stem-right" d="M690.5 504.91L692.5 505.91V501.91L690.5 500.91V504.91Z" fill="#843700"/>
                    <path class="stem-left" d="M692.5 505.91L694.5 504.91V500.91L692.5 501.91V505.91Z" fill="#B66100"/>
                </g>
                <g class="flower 01">
                    <path class="flower-left" d="M688.499 497.34L689.832 496.625V498.225L688.499 498.94V497.34Z" fill="#F400FF"/>
                    <path class="flower-right" d="M688.499 497.34V498.94L687.166 498.225V496.625L688.499 497.34Z" fill="#830789"/>
                    <path class="flower-top" d="M689.833 496.625L688.499 497.34L687.166 496.625L688.499 495.91L689.833 496.625Z" fill="#BF00C8"/>
                    <path class="flower-left" d="M687.167 498.311L688.5 497.596V499.196L687.167 499.91V498.311Z" fill="#F400FF"/>
                    <path class="flower-right" d="M687.167 498.311V499.91L685.834 499.196V497.596L687.167 498.311Z" fill="#830789"/>
                    <path class="flower-top" d="M688.501 497.596L687.167 498.311L685.834 497.596L687.167 496.881L688.501 497.596Z" fill="#BF00C8"/>
                    <path class="flower-left" d="M689.833 498.311L691.166 497.596V499.196L689.833 499.91V498.311Z" fill="#F400FF"/>
                    <path class="flower-right" d="M689.833 498.311V499.91L688.5 499.196V497.596L689.833 498.311Z" fill="#830789"/>
                    <path class="flower-top" d="M691.167 497.596L689.833 498.311L688.5 497.596L689.833 496.881L691.167 497.596Z" fill="#BF00C8"/>
                    <path class="flower" d="M688.499 499.824L689.832 499.109V500.709L688.499 501.424V499.824Z" fill="#FFF700"/>
                    <path class="flower" d="M688.499 499.824V501.424L687.166 500.709V499.109L688.499 499.824Z" fill="#C2B202"/>
                    <path class="flower" d="M689.833 499.109L688.499 499.824L687.166 499.109L688.499 498.395L689.833 499.109Z" fill="#CFC909"/>
                    <path class="flower-left" d="M691.167 499.824L692.5 499.109V500.709L691.167 501.424V499.824Z" fill="#F400FF"/>
                    <path class="flower-right" d="M691.167 499.824V501.424L689.834 500.709V499.109L691.167 499.824Z" fill="#830789"/>
                    <path class="flower-top" d="M692.501 499.109L691.167 499.824L689.834 499.109L691.167 498.395L692.501 499.109Z" fill="#BF00C8"/>
                    <path class="flower-left" d="M685.833 499.824L687.166 499.109V500.709L685.833 501.424V499.824Z" fill="#F400FF"/>
                    <path class="flower-right" d="M685.833 499.824V501.424L684.5 500.709V499.109L685.833 499.824Z" fill="#830789"/>
                    <path class="flower-top" d="M687.167 499.109L685.833 499.824L684.5 499.109L685.833 498.395L687.167 499.109Z" fill="#BF00C8"/>
                    <path class="flower-left" d="M689.833 501.34L691.166 500.625V502.225L689.833 502.94V501.34Z" fill="#F400FF"/>
                    <path class="flower-top" d="M689.833 501.34V502.94L688.5 502.225V500.625L689.833 501.34Z" fill="#830789"/>
                    <path class="flower-right" d="M691.167 500.625L689.833 501.34L688.5 500.625L689.833 499.91L691.167 500.625Z" fill="#BF00C8"/>
                    <path class="flower-left" d="M687.167 501.34L688.5 500.625V502.225L687.167 502.94V501.34Z" fill="#F400FF"/>
                    <path class="flower-right" d="M687.167 501.34V502.94L685.834 502.225V500.625L687.167 501.34Z" fill="#830789"/>
                    <path class="flower-top" d="M688.501 500.625L687.167 501.34L685.834 500.625L687.167 499.91L688.501 500.625Z" fill="#BF00C8"/>
                    <path class="flower-left" d="M688.499 502.311L689.832 501.596V503.196L688.499 503.91V502.311Z" fill="#F400FF"/>
                    <path class="flower-right" d="M688.499 502.311V503.91L687.166 503.196V501.596L688.499 502.311Z" fill="#830789"/>
                    <path class="flower-top" d="M689.833 501.596L688.499 502.311L687.166 501.596L688.499 500.881L689.833 501.596Z" fill="#BF00C8"/>
                </g>
                <g class="flower 02">
                    <path class="flower-left" d="M692.498 503.34L693.831 502.625V504.225L692.498 504.94V503.34Z" fill="#F400FF"/>
                    <path class="flower-right" d="M692.498 503.34V504.94L691.165 504.225V502.625L692.498 503.34Z" fill="#830789" />
                    <path class="flower-top" d="M693.832 502.625L692.498 503.34L691.165 502.625L692.498 501.91L693.832 502.625Z" fill="#BF00C8"/>
                    <path class="flower-left" d="M691.167 504.311L692.5 503.596V505.196L691.167 505.91V504.311Z" fill="#F400FF"/>
                    <path class="flower-right" d="M691.167 504.311V505.91L689.834 505.196V503.596L691.167 504.311Z" fill="#830789"/>
                    <path class="flower-top" d="M692.501 503.596L691.167 504.311L689.834 503.596L691.167 502.881L692.501 503.596Z" fill="#BF00C8"/>
                    <path class="flower-left" d="M693.833 504.311L695.166 503.596V505.196L693.833 505.91V504.311Z" fill="#F400FF"/>
                    <path class="flower-right" d="M693.833 504.311V505.91L692.5 505.196V503.596L693.833 504.311Z" fill="#830789"/>
                    <path class="flower-top" d="M695.167 503.596L693.833 504.311L692.5 503.596L693.833 502.881L695.167 503.596Z" fill="#BF00C8"/>
                    <path class="flower-left" d="M692.498 505.824L693.831 505.109V506.709L692.498 507.424V505.824Z" fill="#FFF700"/>
                    <path class="flower-right" d="M692.498 505.824V507.424L691.165 506.709V505.109L692.498 505.824Z" fill="#C2B202"/>
                    <path class="flower-top" d="M693.832 505.109L692.498 505.824L691.165 505.109L692.498 504.395L693.832 505.109Z" fill="#CFC909"/>
                    <path class="flower-left" d="M695.166 505.824L696.499 505.109V506.709L695.166 507.424V505.824Z" fill="#F400FF"/>
                    <path class="flower-right" d="M695.166 505.824V507.424L693.833 506.709V505.109L695.166 505.824Z" fill="#830789"/>
                    <path class="flower-top" d="M696.5 505.109L695.166 505.824L693.833 505.109L695.166 504.395L696.5 505.109Z" fill="#BF00C8"/>
                    <path class="flower-left" d="M689.833 505.824L691.166 505.109V506.709L689.833 507.424V505.824Z" fill="#F400FF"/>
                    <path class="flower-right" d="M689.833 505.824V507.424L688.5 506.709V505.109L689.833 505.824Z" fill="#830789"/>
                    <path class="flower-top" d="M691.167 505.109L689.833 505.824L688.5 505.109L689.833 504.395L691.167 505.109Z" fill="#BF00C8"/>
                    <path class="flower-left" d="M693.833 507.34L695.166 506.625V508.225L693.833 508.94V507.34Z" fill="#F400FF"/>
                    <path class="flower-right" d="M693.833 507.34V508.94L692.5 508.225V506.625L693.833 507.34Z" fill="#830789"/>
                    <path class="flower-top" d="M695.167 506.625L693.833 507.34L692.5 506.625L693.833 505.91L695.167 506.625Z" fill="#BF00C8"/>
                    <path class="flower-left" d="M691.167 507.34L692.5 506.625V508.225L691.167 508.94V507.34Z" fill="#F400FF"/>
                    <path class="flower-right" d="M691.167 507.34V508.94L689.834 508.225V506.625L691.167 507.34Z" fill="#830789"/>
                    <path class="flower-top" d="M692.501 506.625L691.167 507.34L689.834 506.625L691.167 505.91L692.501 506.625Z" fill="#BF00C8"/>
                    <path class="flower-left" d="M692.498 508.311L693.831 507.596V509.196L692.498 509.91V508.311Z" fill="#F400FF"/>
                    <path class="flower-right" d="M692.498 508.311V509.91L691.165 509.196V507.596L692.498 508.311Z" fill="#830789"/>
                    <path class="flower-top" d="M693.832 507.596L692.498 508.311L691.165 507.596L692.498 506.881L693.832 507.596Z" fill="#BF00C8"/>
                </g>
                <g class="flower 03">
                    <path class="flower-left" d="M696.499 497.34L697.832 496.625V498.225L696.499 498.94V497.34Z" fill="#F400FF"/>
                    <path class="flower-right" d="M696.499 497.34V498.94L695.166 498.225V496.625L696.499 497.34Z" fill="#830789"/>
                    <path class="flower-top" d="M697.833 496.625L696.499 497.34L695.166 496.625L696.499 495.91L697.833 496.625Z" fill="#BF00C8"/>
                    <path class="flower-left" d="M695.167 498.311L696.5 497.596V499.196L695.167 499.91V498.311Z" fill="#F400FF"/>
                    <path class="flower-right" d="M695.167 498.311V499.91L693.834 499.196V497.596L695.167 498.311Z" fill="#830789"/>
                    <path class="flower-top" d="M696.501 497.596L695.167 498.311L693.834 497.596L695.167 496.881L696.501 497.596Z" fill="#BF00C8"/>
                    <path class="flower-left" d="M697.832 498.311L699.165 497.596V499.196L697.832 499.91V498.311Z" fill="#F400FF"/>
                    <path class="flower-right" d="M697.832 498.311V499.91L696.499 499.196V497.596L697.832 498.311Z" fill="#830789"/>
                    <path class="flower-top" d="M699.166 497.596L697.832 498.311L696.499 497.596L697.832 496.881L699.166 497.596Z" fill="#BF00C8"/>
                    <path class="flower-left" d="M696.499 499.824L697.832 499.109V500.709L696.499 501.424V499.824Z" fill="#FFF700"/>
                    <path class="flower-right" d="M696.499 499.824V501.424L695.166 500.709V499.109L696.499 499.824Z" fill="#C2B202"/>
                    <path class="flower-top" d="M697.833 499.109L696.499 499.824L695.166 499.109L696.499 498.395L697.833 499.109Z" fill="#CFC909"/>
                    <path class="flower-left" d="M699.166 499.824L700.499 499.109V500.709L699.166 501.424V499.824Z" fill="#F400FF"/>
                    <path class="flower-right" d="M699.166 499.824V501.424L697.833 500.709V499.109L699.166 499.824Z" fill="#830789"/>
                    <path class="flower-top" d="M700.5 499.109L699.166 499.824L697.833 499.109L699.166 498.395L700.5 499.109Z" fill="#BF00C8"/>
                    <path class="flower-left" d="M693.833 499.824L695.166 499.109V500.709L693.833 501.424V499.824Z" fill="#F400FF"/>
                    <path class="flower-right" d="M693.833 499.824V501.424L692.5 500.709V499.109L693.833 499.824Z" fill="#830789"/>
                    <path class="flower-top" d="M695.167 499.109L693.833 499.824L692.5 499.109L693.833 498.395L695.167 499.109Z" fill="#BF00C8"/>
                    <path class="flower-left" d="M697.832 501.34L699.165 500.625V502.225L697.832 502.94V501.34Z" fill="#F400FF"/>
                    <path class="flower-right" d="M697.832 501.34V502.94L696.499 502.225V500.625L697.832 501.34Z" fill="#830789"/>
                    <path class="flower-top" d="M699.166 500.625L697.832 501.34L696.499 500.625L697.832 499.91L699.166 500.625Z" fill="#BF00C8"/>
                    <path class="flower-left" d="M695.167 501.34L696.5 500.625V502.225L695.167 502.94V501.34Z" fill="#F400FF"/>
                    <path class="flower-right" d="M695.167 501.34V502.94L693.834 502.225V500.625L695.167 501.34Z" fill="#830789"/>
                    <path class="flower-top" d="M696.501 500.625L695.167 501.34L693.834 500.625L695.167 499.91L696.501 500.625Z" fill="#BF00C8"/>
                    <path class="flower-left" d="M696.499 502.311L697.832 501.596V503.196L696.499 503.91V502.311Z" fill="#F400FF"/>
                    <path class="flower-right" d="M696.499 502.311V503.91L695.166 503.196V501.596L696.499 502.311Z" fill="#830789"/>
                    <path class="flower-top" d="M697.833 501.596L696.499 502.311L695.166 501.596L696.499 500.881L697.833 501.596Z" fill="#BF00C8"/>
                </g>
            </g>
        </g>
        <g class="cactus">
            <g class="flowerpost">
                <path class="flowerpots-top" d="M655.5 481.91L647.5 485.91L655.5 489.91L663.5 485.91L655.5 481.91Z" fill="#676767"/>
                <path class="flowerpots-left" d="M663.5 485.91L655.5 489.91L655.5 500.91L663.5 496.91L663.5 485.91Z" fill="#A6A6A6"/>
                <path class="flowerpots-right" d="M647.5 485.91L655.5 489.91V500.91L647.5 496.91L647.5 485.91Z" fill="#3B3B3B"/>
                <path class="flowerpots-left" d="M655.5 487.91V483.91L651.5 485.91L655.5 487.91Z" fill="#A6A6A6" />
                <path class="flowerpots-right" d="M659.5 485.91L655.5 487.91V483.91L659.5 485.91Z" fill="#3B3B3B" />
            </g>
            <g class="cactus">
                <path class="cactus-right" d="M655.5 487.91L653.214 486.81V478.01L655.5 479.11V487.91Z" fill="#2E6820"/>
                <path class="cactus-top" d="M653.214 478.01L655.5 476.91L657.785 478.01L655.5 479.11L653.214 478.01Z" fill="#309C15"/>
                <path class="cactus-left" d="M659.5 482.409L657.214 483.509V482.409L658.357 481.859V480.759L659.5 480.209V482.409Z" fill="#28C900"/>
                <path class="cactus-top" d="M657.214 480.21L658.357 480.76L659.5 480.21L658.357 479.66L657.214 480.21Z" fill="#309C15"/>
                <path class="cactus-right" d="M658.357 481.859L657.214 482.409V480.209L658.357 480.759V481.859Z" fill="#2E6820"/>
                <path class="cactus-left" d="M655.5 479.11V487.91L657.786 486.81V478.01L655.5 479.11Z" fill="#28C900"/>
                <path class="cactus-left" d="M653.785 482.959L654.928 482.409V483.509L652.643 484.609V482.409L653.785 481.859V482.959Z" fill="#28C900"/>
                <path class="cactus-top" d="M653.786 481.861L652.643 482.411L651.5 481.861L652.643 481.311L653.786 481.861Z" fill="#309C15"/>
                <path class="cactus-right" d="M652.643 484.609L651.5 484.059V481.859L652.643 482.409V484.609Z" fill="#2E6820"/>
            </g>
        </g>
    </g>
    <g id="door-unit-s3">
      <path class="door-body" d="M581.028 545L581 630.99L523.028 602V516L581.028 545Z" fill="#7B4C00"/>
        <g class="door-frame-01">
            <path class="door-01-path-01" d="M589.028 541L585.029 543.001L515.028 508L519.028 506.001L589.028 541Z" fill="#676767"/>
            <path class="door-01-path-02" d="M523.028 602L519.028 600V514L523.028 516V602Z" fill="#A6A6A6"/>
            <path class="door-01-path-03" d="M589.028 635L585.028 633V543L589.028 541V635Z" fill="#A6A6A6"/>
            <path class="door-01-path-04" d="M581.028 631L585.028 633V543L515.028 508V598L519.028 600V514L581.028 545V631Z" fill="#3B3B3B"/>
        </g>
    </g>
  </defs>

  <!-- Suelo -->
  <g class="ground">
    <path class="ground-top" d="M1000 650L500 900L0 650L500 400L1000 650Z" fill="#333333"/>
    <path class="ground-right" d="M500 900V1000L0 750V650L500 900Z" fill="black"/>
    <path class="ground-left" d="M500 900V1000L1000 750V650L500 900Z" fill="#555555"/>
  </g>

  <!-- Edificio principal (espejado respecto a apartamentos) -->
  <g class="building building-main">
    <path class="building-left" d="M249 714V291L627 102V525.5L249 714Z" fill="#E67070"/>
    <path class="building-right" d="M249 291L123 228V651L249 714V291Z" fill="#CA2B2B"/>
    <path class="building-top" d="M123 228L249 291L627 102L501 39L123 228Z" fill="#F04949"/>
  </g>





  <!-- Ventanas -->
  <use href="#window-unit-s3" transform="translate(1006,-148) scale(-1,1)"/>
  <use href="#window-unit-s3" transform="translate(1122,-205) scale(-1,1)"/>
  <use href="#window-unit-s3" transform="translate(1242,-265) scale(-1,1)"/>
  <use href="#window-unit-s3" transform="translate(1006,-14) scale(-1,1)"/>
  <use href="#window-unit-s3" transform="translate(1122,-71) scale(-1,1)"/>
  <use href="#window-unit-s3" transform="translate(1242,-131) scale(-1,1)"/>
  <use href="#window-unit-s3" transform="translate(1006,114) scale(-1,1)"/>

    <!-- Edificio secundario (espejado) -->
  <g class="building building-secondary">
    <path class="building-left" d="M499 839V557L877 368V650.5L499 839Z" fill="#E67070"/>
    <path class="building-right" d="M499 557L373 494V778L499 839V557Z" fill="#CA2B2B"/>
    <path class="building-top" d="M373 494L499 557L877 368L751 305L373 494Z" fill="#F04949"/>
  </g>
  
  <use href="#window-unit-s3" transform="translate(1249,125) scale(-1,1)"/>
  <use href="#window-unit-s3" transform="translate(1365,68) scale(-1,1)"/>
  <use href="#window-unit-s3" transform="translate(1485,8) scale(-1,1)"/>
  <use href="#window-unit-s3" transform="translate(1249,243) scale(-1,1)"/>
  <use href="#window-unit-s3" transform="translate(1485,126) scale(-1,1)"/>

  <!-- Puertas (espejadas) -->
  <use href="#door-unit-s3" transform="translate(1250,125) scale(-1,1)"/>
<g class="railing">

    <path class="railing-right" d="M573.602 458.805L577.602 460.805L577.589 427.811L573.576 429.805L573.602 458.805Z" fill="#3B3B3B"/>
    <path class="railing-right" d="M681.576 404.919L685.602 406.805L685.589 373.811L681.576 375.805V404.919Z" fill="#3B3B3B"/>
    <path class="railing-background" d="M539.603 438.805V318.805L705.603 236.805V355.805L539.603 438.805Z" fill="#D9D9D9"/>
    <path class="railing-right" d="M531.603 446.804L535.603 448.804V316.805L531.603 314.805V446.804Z" fill="#3B3B3B"/>
    <path class="railing-left" fill-rule="evenodd" clip-rule="evenodd" d="M535.589 448.844L535.603 448.805L577.603 427.805V460.805L581.603 458.805V425.805L685.603 373.805V406.805L689.603 404.805V371.805L713.603 359.805V228.805L535.589 316.805V448.844ZM709.603 357.805L539.603 442.805V318.805L709.603 234.805V357.805Z" fill="#A6A6A6"/>
    <path class="railing-top" d="M539.602 438.805L539.602 442.805L709.602 357.805L705.602 355.805L539.602 438.805Z" fill="#676767"/>
    <path class="railing-right" d="M705.603 355.806L709.603 357.806L709.603 234.805L705.603 236.806V355.806Z" fill="#3B3B3B"/>
    <path class="railing-top" d="M531.602 314.804L535.602 316.804L713.602 228.805L709.602 226.804L531.602 314.804Z" fill="#676767"/>
</g>
</svg>