<svg id="g mall" width="1000" height="1000" viewBox="0 0 1000 1000" fill="none" xmlns="http://www.w3.org/2000/svg" class="mall_land">

  <!-- Ground -->
  <g class="ground">
    <path class="ground-top"   d="M1000 650L500 900L0 650L500 400L1000 650Z" fill="#333333"/>
    <path class="ground-right" d="M500 900V1000L0 750V650L500 900Z" fill="black"/>
    <path class="ground-left"  d="M500 900V1000L1000 750V650L500 900Z" fill="#555555"/>
  </g>

  <!-- Wing izquierda (bloque bajo con vitrina) -->
  <g class="wing-left">
    <path class="wing-top" d="M121 511L247 574L625 385L499 322L121 511Z" fill="#F04949"/>
    <path class="wing-left" d="M121 652L247 715V574L121 511V652Z" fill="#CA2B2B"/>
    <path class="wing-right" d="M625 385V526.5L247 715V574L625 385Z" fill="#E67070"/>
    <!-- Vitrina / escaparate -->
    <path class="window-background" d="M247 715L121 652V511L247 574V715Z" fill="#CAFFFF"/>
    <path class="window-frame-left" d="M247 589L121 652L247 715V589Z" fill="#D9D9D9"/>
    <path class="window-frame-top" d="M192 546.5L121 582V580L190 545.5L192 546.5Z" fill="#728787"/>
    <path class="window-frame-right" d="M121 580V582L247 645V643L121 580Z" fill="#3B3B3B"/>
    <path class="window-frame-right" d="M186 543.5L184 542.5V683.5L186 684.5V543.5Z" fill="#3B3B3B"/>
  </g>

  <!-- Estacionamiento / playa izquierda -->
  <g class="parking-left">
    <path class="parking-surface" d="M188 744.5L373 652V778L315 808L188 744.5Z" fill="black"/>
    <path class="decorations-path" d="M259 758L271 764L249 775L237 769L259 758Z" fill="#CFC909"/>
    <path class="decorations-path" d="M373 701V713L357 721L345 715L373 701Z" fill="#CFC909"/>
    <path class="decorations-path" d="M325 725L337 731L293 753L281 747L325 725Z" fill="#CFC909"/>
    <!-- Poste izquierdo -->
    <path class="window-frame-right" d="M241 718L245 720V679L241 677V718Z" fill="#3B3B3B"/>
    <path class="window-frame-left" d="M249 718L245 720V679L249 677V718Z" fill="#A6A6A6"/>
    <path class="window-frame-top" d="M245 675L241 677L245 679L249 677L245 675Z" fill="#676767"/>
    <!-- Franja roja del techo -->
    <path class="roof-left" d="M246 683V679.5L362 737.5V741L246 683Z" fill="#CA2B2B"/>
    <path class="roof-right" d="M363 740.5L362 741V737.5L363 737V740.5Z" fill="#E67070"/>
    <path class="roof-top" d="M363 737L362 737.5L246 679.5L247 679L363 737Z" fill="#F04949"/>
    <!-- Tragaluces izquierda -->
    <path d="M260 685.5V686.5L255 684V683L260 685.5Z" fill="#D9D9D9"/>
    <path d="M255 684L256 688L261 690.5L260 686.5L255 684Z" fill="#A7A7A7"/>
    <path d="M284 697.5V698.5L279 696V695L284 697.5Z" fill="#D9D9D9"/>
    <path d="M279 696L280 700L285 702.5L284 698.5L279 696Z" fill="#A7A7A7"/>
    <path d="M296 703.5V704.5L291 702V701L296 703.5Z" fill="#D9D9D9"/>
    <path d="M291 702L292 706L297 708.5L296 704.5L291 702Z" fill="#A7A7A7"/>
    <path d="M308 709.5V710.5L303 708V707L308 709.5Z" fill="#D9D9D9"/>
    <path d="M303 708L304 712L309 714.5L308 710.5L303 708Z" fill="#A7A7A7"/>
    <path d="M320 715.5V716.5L315 714V713L320 715.5Z" fill="#D9D9D9"/>
    <path d="M315 714L316 718L321 720.5L320 716.5L315 714Z" fill="#A7A7A7"/>
    <path d="M332 721.5V722.5L327 720V719L332 721.5Z" fill="#D9D9D9"/>
    <path d="M327 720L328 724L333 726.5L332 722.5L327 720Z" fill="#A7A7A7"/>
    <path d="M344 727.5V728.5L339 726V725L344 727.5Z" fill="#D9D9D9"/>
    <path d="M339 726L340 730L345 732.5L344 728.5L339 726Z" fill="#A7A7A7"/>
    <path d="M356 733.5V734.5L351 732V731L356 733.5Z" fill="#D9D9D9"/>
    <path d="M351 732L352 736L357 738.5L356 734.5L351 732Z" fill="#A7A7A7"/>
    <path d="M272 691.5V692.5L267 690V689L272 691.5Z" fill="#D9D9D9"/>
    <path d="M267 690L268 694L273 696.5L272 692.5L267 690Z" fill="#A7A7A7"/>
  </g>

  <!-- Vitrina central (ventana grande interior) -->
  <g class="storefront-center">
    <path class="window-frame-left" d="M302.804 600.852L304.5 600.001L304.494 614.041L302.793 613.192L302.804 600.852Z" fill="#A6A6A6"/>
    <path class="window-frame-left" d="M348.576 623.782L350.283 622.979L350.277 637.02L348.576 636.171V623.782Z" fill="#A6A6A6"/>
    <path class="window-background" d="M288.392 609.361V660.425L358.761 695.318V644.68L288.392 609.361Z" fill="#D9D9D9"/>
    <path class="window-frame-left" d="M285 605.957L286.696 605.106V661.276L285 662.127V605.957Z" fill="#A6A6A6"/>
    <path fill-rule="evenodd" clip-rule="evenodd" d="M286.69 605.089L286.696 605.106L304.5 614.042V599.999L306.196 600.85V614.893L350.283 637.021V622.978L351.978 623.829V637.872L362.152 642.978V698.723L286.69 661.276V605.089ZM360.457 643.829L288.391 607.659V660.425L360.457 696.169V643.829Z" fill="#3B3B3B"/>
    <path class="window-frame-top" d="M288.392 609.361L288.392 607.658L360.457 643.829L358.761 644.68L288.392 609.361Z" fill="#676767"/>
    <path class="window-frame-right" d="M358.761 644.68L360.456 643.829L360.456 696.17L358.761 695.319V644.68Z" fill="#A6A6A6"/>
    <path class="window-frame-top" d="M285 662.128L286.696 661.277L362.152 698.723L360.457 699.574L285 662.128Z" fill="#676767"/>
  </g>

  <!-- Estacionamiento / playa derecha -->
  <g class="parking-right">
    <path class="parking-surface" d="M936 683.5L751 591V717L809 747L936 683.5Z" fill="black"/>
    <path class="decorations-path" d="M865 697L853 703L875 714L887 708L865 697Z" fill="#CFC909"/>
    <path class="decorations-path" d="M751 640V652L767 660L779 654L751 640Z" fill="#CFC909"/>
    <path class="decorations-path" d="M799 664L787 670L831 692L843 686L799 664Z" fill="#CFC909"/>
    <!-- Poste derecho -->
    <path class="window-frame-right" d="M883 657L879 659V618L883 616V657Z" fill="#3B3B3B"/>
    <path class="window-frame-left" d="M875 657L879 659V618L875 616V657Z" fill="#A6A6A6"/>
    <path class="window-frame-top" d="M879 614L883 616L879 618L875 616L879 614Z" fill="#676767"/>
    <!-- Franja roja del techo derecho -->
    <path class="roof-left" d="M878 622V618.5L762 676.5V680L878 622Z" fill="#CA2B2B"/>
    <path class="roof-right" d="M761 679.5L762 680V676.5L761 676V679.5Z" fill="#E67070"/>
    <path class="roof-top" d="M761 676L762 676.5L878 618.5L877 618L761 676Z" fill="#F04949"/>
    <!-- Tragaluces derecha -->
    <path d="M864 624.5V625.5L869 623V622L864 624.5Z" fill="#D9D9D9"/>
    <path d="M869 623L868 627L863 629.5L864 625.5L869 623Z" fill="#A7A7A7"/>
    <path d="M840 636.5V637.5L845 635V634L840 636.5Z" fill="#D9D9D9"/>
    <path d="M845 635L844 639L839 641.5L840 637.5L845 635Z" fill="#A7A7A7"/>
    <path d="M828 642.5V643.5L833 641V640L828 642.5Z" fill="#D9D9D9"/>
    <path d="M833 641L832 645L827 647.5L828 643.5L833 641Z" fill="#A7A7A7"/>
    <path d="M816 648.5V649.5L821 647V646L816 648.5Z" fill="#D9D9D9"/>
    <path d="M821 647L820 651L815 653.5L816 649.5L821 647Z" fill="#A7A7A7"/>
    <path d="M804 654.5V655.5L809 653V652L804 654.5Z" fill="#D9D9D9"/>
    <path d="M809 653L808 657L803 659.5L804 655.5L809 653Z" fill="#A7A7A7"/>
    <path d="M792 660.5V661.5L797 659V658L792 660.5Z" fill="#D9D9D9"/>
    <path d="M797 659L796 663L791 665.5L792 661.5L797 659Z" fill="#A7A7A7"/>
    <path d="M780 666.5V667.5L785 665V664L780 666.5Z" fill="#D9D9D9"/>
    <path d="M785 665L784 669L779 671.5L780 667.5L785 665Z" fill="#A7A7A7"/>
    <path d="M768 672.5V673.5L773 671V670L768 672.5Z" fill="#D9D9D9"/>
    <path d="M773 671L772 675L767 677.5L768 673.5L773 671Z" fill="#A7A7A7"/>
    <path d="M852 630.5V631.5L857 629V628L852 630.5Z" fill="#D9D9D9"/>
    <path d="M857 629L856 633L851 635.5L852 631.5L857 629Z" fill="#A7A7A7"/>
  </g>

  <!-- Cuerpo central del mall (bloque grande) -->
  <g class="base">
    <path class="base-top"   d="M499 700L373 637V778L499 841V700Z" fill="#CA2B2B"/>
    <path class="base-left"  d="M499 700L751 574V716L499 841V700Z" fill="#E67070"/>
    <path class="base-right" d="M373 637L625 511L751 574L499 700L373 637Z" fill="#F04949"/>
  </g>

  <!-- Vitrina derecha (ventana grande interior derecha) -->
  <g class="storefront-right">
    <path class="window-frame-left" d="M845.196 526.852L843.5 526.001L843.506 540.041L845.207 539.192L845.196 526.852Z" fill="#A6A6A6"/>
    <path class="window-frame-left" d="M799.424 549.782L797.717 548.979L797.723 563.02L799.424 562.171V549.782Z" fill="#A6A6A6"/>
    <path class="window-background" d="M859.608 535.361V586.425L789.239 621.318V570.68L859.608 535.361Z" fill="#D9D9D9"/>
    <path class="window-frame-left" d="M863 531.957L861.304 531.106V587.276L863 588.127V531.957Z" fill="#A6A6A6"/>
    <path fill-rule="evenodd" clip-rule="evenodd" d="M861.31 531.089L861.304 531.106L843.5 540.042V525.999L841.804 526.85V540.893L797.717 563.021V548.978L796.022 549.829V563.872L785.848 568.978V624.723L861.31 587.276V531.089ZM787.543 569.829L859.609 533.659V586.425L787.543 622.169V569.829Z" fill="#3B3B3B"/>
    <path class="window-frame-top" d="M859.608 535.361L859.608 533.658L787.543 569.829L789.239 570.68L859.608 535.361Z" fill="#676767"/>
    <path class="window-frame-right" d="M789.239 570.68L787.544 569.829L787.544 622.17L789.239 621.319V570.68Z" fill="#A6A6A6"/>
    <path class="window-frame-top" d="M863 588.128L861.304 587.277L785.848 624.723L787.543 625.574L863 588.128Z" fill="#676767"/>
  </g>

  <!-- Cuerpo del mall nivel superior (techo en L) -->
  <g class="roof">
    <path class="roof-top" d="M877 370L751 433L373 244L499 181L877 370Z" fill="#F04949"/>
    <path class="roof-right" d="M877 511L751 574V433L877 370V511Z" fill="#E67070"/>
    <path class="roof-left" d="M373 244V385.5L751 574V433L373 244Z" fill="#CA2B2B"/>
    <!-- Acceso central techo -->
    <path class="roof-right" d="M499 433L625 370V511L499 574V433Z" fill="#E67070"/>
    <path class="roof-left" d="M499 433V574L373 511V370L499 433Z" fill="#CA2B2B"/>
    <path class="roof-top" d="M625 370L499 433L373 370L499 307L625 370Z" fill="#F04949"/>
    <!-- Wing derecha techo -->
    <path class="roof-top" d="M625 496L499 559L121 370L247 307L625 496Z" fill="#F04949"/>
    <path class="roof-right" d="M625 637L499 700V559L625 496V637Z" fill="#E67070"/>
    <path class="roof-left" d="M121 370V511.5L499 700V559L121 370Z" fill="#CA2B2B"/>
  </g>

  <!-- Puerta principal -->
  <g class="door">
    <path class="door-background" d="M462.028 740L462 825.99L404.028 797V711L462.028 740Z" fill="#7B4C00"/>
    <path class="door-frame-top" d="M470.029 736L466.03 738.001L396.029 703L400.029 701.001L470.029 736Z" fill="#676767"/>
    <path class="door-frame-left" d="M404.028 797L400.028 795V709L404.028 711V797Z" fill="#A6A6A6"/>
    <path class="door-frame-left" d="M470.028 830L466.028 828V738L470.028 736V830Z" fill="#A6A6A6"/>
    <path class="door-frame-right" d="M462.028 826L466.028 828V738L396.028 703V793L400.028 795V709L462.028 740V826Z" fill="#3B3B3B"/>
  </g>

  <!-- Ventana principal fachada (gran cristalera interior) -->
  <g class="window-main">
    <path class="window-frame-left" d="M141 497L141 404L479 573V666L141 497Z" fill="#A7A7A7"/>
    <path class="window-frame-left" d="M428.398 471L424.398 473L424.411 440.006L428.424 442L428.398 471Z" fill="#A6A6A6"/>
    <path class="window-frame-left" d="M320.424 417.114L316.398 419.001L316.411 386.006L320.424 388V417.114Z" fill="#A6A6A6"/>
    <path class="window-background" d="M462.397 451V331L296.397 249V368L462.397 451Z" fill="#D9D9D9"/>
    <path class="window-frame-left" d="M470.397 458.999L466.397 460.999V329L470.397 327V458.999Z" fill="#A6A6A6"/>
    <path class="window-frame-right" fill-rule="evenodd" clip-rule="evenodd" d="M466.411 461.039L466.397 461L424.397 440V473L420.397 471V438L316.397 386V419L312.397 417V384L288.397 372V241L466.411 329V461.039ZM292.397 370L462.397 455V331L292.397 247V370Z" fill="#3B3B3B"/>
    <path class="window-frame-top" d="M462.398 451L462.398 455L292.398 370L296.398 368L462.398 451Z" fill="#676767"/>
    <path class="window-frame-left" d="M296.397 368.001L292.397 370.001L292.397 247L296.397 249.001V368.001Z" fill="#A6A6A6"/>
    <path class="window-frame-top" d="M470.398 327L466.398 329L288.398 241.001L292.398 239L470.398 327Z" fill="#676767"/>
  </g>

</svg>
