<svg width="24" height="24" viewBox="0 0 24 24" fill="none" xmlns="http://www.w3.org/2000/svg">
<path d="M6.37103 12.171L8.50503 14V4.25C8.50503 3.78587 8.6894 3.34075 9.01759 3.01256C9.34578 2.68437 9.7909 2.5 10.255 2.5C10.7192 2.5 11.1643 2.68437 11.4925 3.01256C11.8207 3.34075 12.005 3.78587 12.005 4.25V9.5L14.993 9.978C16.922 10.267 17.886 10.412 18.565 10.818C19.687 11.491 20.5 12.5 20.5 13.974C20.5 15 20.246 15.689 19.63 17.539C19.238 18.713 19.043 19.299 18.724 19.764C18.1988 20.529 17.4238 21.0875 16.532 21.344C15.99 21.5 15.372 21.5 14.134 21.5H13.084C11.44 21.5 10.617 21.5 9.88403 21.198C9.75287 21.1439 9.62469 21.0828 9.50003 21.015C8.80403 20.637 8.28503 19.999 7.24803 18.722L3.88903 14.588C3.61761 14.2506 3.48173 13.8242 3.50796 13.3919C3.53418 12.9597 3.72061 12.5528 4.03083 12.2507C4.34104 11.9486 4.75275 11.7731 5.18551 11.7583C5.61826 11.7436 6.04097 11.8907 6.37103 12.171Z" stroke="black" stroke-width="1.5" stroke-linecap="round" stroke-linejoin="round"/>
</svg>
