<svg width="1000" height="1000" viewBox="0 0 1000 1000" fill="none" xmlns="http://www.w3.org/2000/svg">
<path d="M1000 650L500 900L0 650L500 400L1000 650Z" fill="#333333"/>
<path d="M500 900V1000L0 750V650L500 900Z" fill="black"/>
<path d="M500 900V1000L1000 750V650L500 900Z" fill="#555555"/>
<path d="M753 712.253V431.102L375 242.67V524.32L753 712.253Z" fill="#E67070"/>
<path d="M753 431.101L879 368.291V649.443L753 712.253V431.101Z" fill="#CA2B2B"/>
<path d="M879 368.291L753 431.101L375 242.67L501 179.859L879 368.291Z" fill="#F04949"/>
<path d="M525.619 349.542L412.619 292.713V365.493L525.619 422.322V349.542Z" fill="#CAFFFF"/>
<path d="M525.619 422.322L525.619 426.31L408.619 367.488L412.619 365.493L525.619 422.322Z" fill="#676767"/>
<path d="M525.618 430.297L525.619 426.309L408.618 367.487L408.618 371.474L525.618 430.297Z" fill="#A6A6A6"/>
<path d="M533.619 430.297L529.619 432.291V347.547L533.619 345.553V430.297Z" fill="#3B3B3B"/>
<path d="M525.619 430.297L529.619 432.291V347.547L525.619 345.553V430.297Z" fill="#A6A6A6"/>
<path d="M412.619 365.493L408.619 367.487V286.73L412.619 288.724V365.493Z" fill="#3B3B3B"/>
<path d="M404.619 369.481L408.619 371.475V286.73L404.619 284.736V369.481Z" fill="#A6A6A6"/>
<path d="M533.618 345.554L529.618 347.548L404.617 284.737L408.617 282.743L533.618 345.554Z" fill="#676767"/>
<path d="M529.618 351.535L529.618 347.547L408.618 286.731L408.618 290.719L529.618 351.535Z" fill="#A6A6A6"/>
<path d="M699.619 436.28L586.619 379.451V452.232L699.619 509.06V436.28Z" fill="#CAFFFF"/>
<path d="M699.619 509.06L699.619 513.048L582.619 454.226L586.619 452.232L699.619 509.06Z" fill="#676767"/>
<path d="M699.618 517.035L699.619 513.047L582.618 454.225L582.618 458.213L699.618 517.035Z" fill="#A6A6A6"/>
<path d="M707.617 517.035L703.617 519.029V434.285L707.617 432.291V517.035Z" fill="#3B3B3B"/>
<path d="M699.617 517.035L703.617 519.029V434.285L699.617 432.291V517.035Z" fill="#A6A6A6"/>
<path d="M586.617 452.231L582.617 454.225V373.469L586.617 375.463V452.231Z" fill="#3B3B3B"/>
<path d="M578.617 456.219L582.617 458.213V373.468L578.617 371.475V456.219Z" fill="#A6A6A6"/>
<path d="M707.618 432.292L703.618 434.286L578.617 371.476L582.617 369.482L707.618 432.292Z" fill="#676767"/>
<path d="M703.618 438.273L703.618 434.285L582.618 373.47L582.618 377.458L703.618 438.273Z" fill="#A6A6A6"/>
<path d="M689.518 546.446L548.518 476.158V610.254L689.518 680.542V546.446Z" fill="#D9D9D9"/>
<path d="M697.518 684.53L693.518 682.536V544.453L697.518 542.459V684.53Z" fill="#3B3B3B"/>
<path d="M689.518 680.527L693.518 682.536V544.453L689.518 542.459V680.527Z" fill="#A6A6A6"/>
<path d="M548.518 610.001L544.518 608.01V466.189L548.518 468.183V610.001Z" fill="#3B3B3B"/>
<path d="M540.518 606.009L544.518 608.001V466.189L540.518 468.183V606.009Z" fill="#A6A6A6"/>
<path d="M697.515 542.459L693.511 544.458L540.516 468.183L544.516 466.189L697.515 542.459Z" fill="#676767"/>
<path d="M693.516 548.441L693.516 544.453L544.517 470.177L544.517 474.165L693.516 548.441Z" fill="#A6A6A6"/>
<line y1="-0.5" x2="149.91" y2="-0.5" transform="matrix(0.894965 0.446137 -0.448292 0.893887 552 506.871)" stroke="#3B3B3B"/>
<line y1="-0.5" x2="149.91" y2="-0.5" transform="matrix(0.894965 0.446137 -0.448292 0.893887 552 528.805)" stroke="#3B3B3B"/>
<line y1="-0.5" x2="149.91" y2="-0.5" transform="matrix(0.894965 0.446137 -0.448292 0.893887 552 547.748)" stroke="#3B3B3B"/>
<line y1="-0.5" x2="149.91" y2="-0.5" transform="matrix(0.894965 0.446137 -0.448292 0.893887 552 567.688)" stroke="#3B3B3B"/>
<line y1="-0.5" x2="149.91" y2="-0.5" transform="matrix(0.894965 0.446137 -0.448292 0.893887 552 588.625)" stroke="#3B3B3B"/>
<line y1="-0.5" x2="149.91" y2="-0.5" transform="matrix(0.894965 0.446137 -0.448292 0.893887 552 604.576)" stroke="#3B3B3B"/>
<path d="M517 133L557 152.94L517 172.88L477 152.94L517 133Z" fill="#676767"/>
<path d="M477 152.939L517 172.879V276.068L477 255.63V152.939Z" fill="#A6A6A6"/>
<path d="M557 152.939L517 172.879V276.068L557 255.63V152.939Z" fill="#3B3B3B"/>
<path d="M517 164.903V139.979L542 152.441L517 164.903Z" fill="#A6A6A6"/>
<path d="M492 152.441L517 164.903V139.979L492 152.441Z" fill="#3B3B3B"/>
<path d="M624 185.84L664 205.78L624 225.72L584 205.78L624 185.84Z" fill="#676767"/>
<path d="M584 205.779L624 225.719V328.908L584 308.47V205.779Z" fill="#A6A6A6"/>
<path d="M664 205.779L624 225.719V328.908L664 308.47V205.779Z" fill="#3B3B3B"/>
<path d="M624 217.743V192.818L649 205.281L624 217.743Z" fill="#A6A6A6"/>
<path d="M599 205.281L624 217.743V192.818L599 205.281Z" fill="#3B3B3B"/>
<path d="M738 243.666L778 263.606L738 283.546L698 263.606L738 243.666Z" fill="#676767"/>
<path d="M698 263.605L738 283.545V386.734L698 366.296V263.605Z" fill="#A6A6A6"/>
<path d="M778 263.605L738 283.545V386.734L778 366.296V263.605Z" fill="#3B3B3B"/>
<path d="M738 275.569V250.645L763 263.107L738 275.569Z" fill="#A6A6A6"/>
<path d="M713 263.107L738 275.569V250.645L713 263.107Z" fill="#3B3B3B"/>
<path d="M248 570.68L122 507.869V648.445L248 711.256V570.68Z" fill="#E67070"/>
<path d="M248 570.68L500 445.059V586.632L248 711.256V570.68Z" fill="#CA2B2B"/>
<path d="M122 507.869L374 382.248L500 445.059L248 570.68L122 507.869Z" fill="#F04949"/>
<path d="M260.396 511.055L264.396 513.049V480.148L260.396 478.154V511.055Z" fill="#A6A6A6"/>
<path d="M268.396 511.055L264.396 513.049V480.148L268.396 478.154V511.055Z" fill="#3B3B3B"/>
<path d="M368.396 457.217L372.396 459.211V426.31L368.396 424.316V457.217Z" fill="#A6A6A6"/>
<path d="M376.396 457.217L372.396 459.211V426.31L376.396 424.316V457.217Z" fill="#3B3B3B"/>
<path d="M227.396 490.616V424.316L392.396 342.562V408.364L227.396 490.616Z" fill="#D9D9D9"/>
<path d="M219.396 500.087L223.396 500.586V422.322L219.396 420.328V500.087Z" fill="#A6A6A6"/>
<path d="M227.396 498.593L223.396 500.587V421.326L227.396 419.332V498.593Z" fill="#3B3B3B"/>
<path d="M392.396 412.353L396.396 414.347V336.582L392.396 338.576V412.353Z" fill="#A6A6A6"/>
<path d="M400.396 412.353L396.396 414.347V336.582L400.396 334.588V412.353Z" fill="#3B3B3B"/>
<path d="M219.398 420.328L223.398 422.322L400.398 334.587L396.398 332.593L219.398 420.328Z" fill="#676767"/>
<path d="M223.398 426.311L223.398 422.322L396.398 336.581L396.398 340.569L223.398 426.311Z" fill="#3B3B3B"/>
<path d="M223.397 500.587L223.397 496.599L400.397 408.365L400.397 412.353L223.397 500.587Z" fill="#3B3B3B"/>
<path d="M227.399 490.616L227.398 494.605L396.398 410.359L392.398 408.365L227.399 490.616Z" fill="#676767"/>
<path d="M355 572.676V658.704L411 630.663V544.76L355 572.676Z" fill="#7B4C00"/>
<path d="M347 662.72L351 660.718V570.681L347 568.688V662.72Z" fill="#3B3B3B"/>
<path d="M355 658.713L351 660.722V570.681L355 568.688V658.713Z" fill="#A6A6A6"/>
<path d="M411 630.665L415 628.657V541.77L411 543.764V630.665Z" fill="#3B3B3B"/>
<path d="M419 626.666L415 628.675V541.769L419 539.775V626.666Z" fill="#A6A6A6"/>
<path d="M346.999 568.689L350.999 570.683L419 536.784L415 534.79L346.999 568.689Z" fill="#676767"/>
<path d="M354.998 572.675L354.998 568.687L418.998 536.783L418.998 540.771L354.998 572.675Z" fill="#A6A6A6"/>
<path d="M676.871 710L500 797.441L323.128 710L500 622.558L676.871 710Z" fill="#A7A7A7" stroke="black"/>
<path d="M552 556.016L502 581.032V748.999L552 723.983V556.016Z" fill="#1B0E55"/>
<path d="M502 581.032L452 556.016V723.983L502 748.999V581.032Z" fill="#380BFF"/>
<path d="M552 556.016L502 531L452 556.016L502 581.033L552 556.016Z" fill="#1D009E"/>
</svg>
