<svg width="1000" height="1000" viewBox="0 0 1000 1000" fill="none" xmlns="http://www.w3.org/2000/svg">
<path d="M1000 650L500 900L0 650L500 400L1000 650Z" fill="#333333"/>
<path d="M500 900V1000L0 750V650L500 900Z" fill="black"/>
<path d="M500 900V1000L1000 750V650L500 900Z" fill="#555555"/>
<path d="M752 713V431L374 242V524.5L752 713Z" fill="#CA2B2B"/>
<path d="M752 431L878 368V650L752 713V431Z" fill="#E67070"/>
<path d="M878 368L752 431L374 242L500 179L878 368Z" fill="#F04949"/>
<path d="M524.618 349.193L411.618 292.193V365.193L524.618 422.193V349.193Z" fill="#CAFFFF"/>
<path d="M524.618 422.194L524.618 426.194L407.618 367.195L411.618 365.194L524.618 422.194Z" fill="#676767"/>
<path d="M524.618 430.194L524.619 426.194L407.618 367.194L407.618 371.194L524.618 430.194Z" fill="#3B3B3B"/>
<path d="M532.618 430.193L528.618 432.193V347.193L532.618 345.193V430.193Z" fill="#A6A6A6"/>
<path d="M524.618 430.193L528.618 432.193V347.193L524.618 345.193V430.193Z" fill="#3B3B3B"/>
<path d="M411.618 365.193L407.618 367.193V286.193L411.618 288.193V365.193Z" fill="#A6A6A6"/>
<path d="M403.618 369.193L407.618 371.193V286.193L403.618 284.193V369.193Z" fill="#3B3B3B"/>
<path d="M532.619 345.194L528.619 347.194L403.618 284.194L407.618 282.194L532.619 345.194Z" fill="#676767"/>
<path d="M528.618 351.194L528.618 347.194L407.618 286.195L407.618 290.195L528.618 351.194Z" fill="#3B3B3B"/>
<path d="M698.618 436.193L585.618 379.193V452.193L698.618 509.193V436.193Z" fill="#CAFFFF"/>
<path d="M698.619 509.194L698.619 513.194L581.619 454.195L585.619 452.194L698.619 509.194Z" fill="#676767"/>
<path d="M698.619 517.194L698.619 513.194L581.619 454.194L581.619 458.194L698.619 517.194Z" fill="#3B3B3B"/>
<path d="M706.619 517.193L702.619 519.193V434.193L706.619 432.193V517.193Z" fill="#A6A6A6"/>
<path d="M698.619 517.193L702.619 519.193V434.193L698.619 432.193V517.193Z" fill="#3B3B3B"/>
<path d="M585.619 452.193L581.619 454.193V373.193L585.619 375.193V452.193Z" fill="#A6A6A6"/>
<path d="M577.619 456.193L581.619 458.193V373.193L577.619 371.193V456.193Z" fill="#3B3B3B"/>
<path d="M706.62 432.194L702.62 434.194L577.619 371.194L581.619 369.194L706.62 432.194Z" fill="#676767"/>
<path d="M702.619 438.194L702.619 434.194L581.619 373.195L581.619 377.195L702.619 438.194Z" fill="#3B3B3B"/>
<path d="M688.518 546.695L547.518 476.195V610.695L688.518 681.195V546.695Z" fill="#D9D9D9"/>
<path d="M696.518 685.195L692.518 683.195V544.695L696.518 542.695V685.195Z" fill="#A6A6A6"/>
<path d="M688.518 681.18L692.518 683.195V544.695L688.518 542.695V681.18Z" fill="#3B3B3B"/>
<path d="M547.518 610.441L543.518 608.443V466.195L547.518 468.195V610.441Z" fill="#A6A6A6"/>
<path d="M539.518 606.436L543.518 608.435V466.195L539.518 468.195V606.436Z" fill="#3B3B3B"/>
<path d="M696.517 542.694L692.513 544.7L539.518 468.195L543.518 466.194L696.517 542.694Z" fill="#676767"/>
<path d="M692.517 548.694L692.517 544.694L543.518 470.193L543.518 474.193L692.517 548.694Z" fill="#3B3B3B"/>
<line x1="551.224" y1="506.553" x2="685.388" y2="573.635" stroke="#3B3B3B"/>
<line x1="551.224" y1="528.553" x2="685.388" y2="595.635" stroke="#3B3B3B"/>
<line x1="551.224" y1="547.553" x2="685.388" y2="614.635" stroke="#3B3B3B"/>
<line x1="551.224" y1="567.553" x2="685.388" y2="634.635" stroke="#3B3B3B"/>
<line x1="551.224" y1="588.553" x2="685.388" y2="655.635" stroke="#3B3B3B"/>
<line x1="551.224" y1="604.553" x2="685.388" y2="671.635" stroke="#3B3B3B"/>
<path d="M516 132L476 152L516 172L556 152L516 132Z" fill="#676767"/>
<path d="M556 152L516 172V275.5L556 255V152Z" fill="#A6A6A6"/>
<path d="M476 152L516 172V275.5L476 255V152Z" fill="#3B3B3B"/>
<path d="M516 164V139L491 151.5L516 164Z" fill="#A6A6A6"/>
<path d="M541 151.5L516 164V139L541 151.5Z" fill="#3B3B3B"/>
<path d="M623 185L583 205L623 225L663 205L623 185Z" fill="#676767"/>
<path d="M663 205L623 225V328.5L663 308V205Z" fill="#A6A6A6"/>
<path d="M583 205L623 225V328.5L583 308V205Z" fill="#3B3B3B"/>
<path d="M623 217V192L598 204.5L623 217Z" fill="#A6A6A6"/>
<path d="M648 204.5L623 217V192L648 204.5Z" fill="#3B3B3B"/>
<path d="M737 243L697 263L737 283L777 263L737 243Z" fill="#676767"/>
<path d="M777 263L737 283V386.5L777 366V263Z" fill="#A6A6A6"/>
<path d="M697 263L737 283V386.5L697 366V263Z" fill="#3B3B3B"/>
<path d="M737 275V250L712 262.5L737 275Z" fill="#A6A6A6"/>
<path d="M762 262.5L737 275V250L762 262.5Z" fill="#3B3B3B"/>
<path d="M247 571L121 508V649L247 712V571Z" fill="#CA2B2B"/>
<path d="M247 571L499 445V587L247 712V571Z" fill="#E67070"/>
<path d="M121 508L373 382L499 445L247 571L121 508Z" fill="#F04949"/>
<path d="M259.397 511.196L263.397 513.196V480.195L259.397 478.195V511.196Z" fill="#3B3B3B"/>
<path d="M267.397 511.196L263.397 513.196V480.195L267.397 478.195V511.196Z" fill="#A6A6A6"/>
<path d="M367.397 457.196L371.397 459.196V426.195L367.397 424.195V457.196Z" fill="#3B3B3B"/>
<path d="M375.397 457.196L371.397 459.196V426.195L375.397 424.195V457.196Z" fill="#A6A6A6"/>
<path d="M226.397 490.695V424.195L391.397 342.195V408.195L226.397 490.695Z" fill="#D9D9D9"/>
<path d="M218.397 500.195L222.397 500.695V422.195L218.397 420.195V500.195Z" fill="#3B3B3B"/>
<path d="M226.397 498.695L222.397 500.695V421.195L226.397 419.195V498.695Z" fill="#A6A6A6"/>
<path d="M391.397 412.195L395.397 414.195V336.195L391.397 338.195V412.195Z" fill="#3B3B3B"/>
<path d="M399.397 412.195L395.397 414.195V336.195L399.397 334.195V412.195Z" fill="#A6A6A6"/>
<path d="M218.397 420.194L222.397 422.194L399.397 334.194L395.397 332.194L218.397 420.194Z" fill="#676767"/>
<path d="M222.398 426.194L222.398 422.194L395.398 336.194L395.398 340.194L222.398 426.194Z" fill="#A6A6A6"/>
<path d="M222.397 500.694L222.397 496.694L399.397 408.194L399.397 412.194L222.397 500.694Z" fill="#A6A6A6"/>
<path d="M226.398 490.694L226.397 494.694L395.397 410.194L391.397 408.194L226.398 490.694Z" fill="#676767"/>
<path d="M354 573V659.288L410 631.162V545L354 573Z" fill="#7B4C00"/>
<path d="M346 663.316L350 661.309V571L346 569V663.316Z" fill="#3B3B3B"/>
<path d="M354 659.297L350 661.312V571L354 569V659.297Z" fill="#A6A6A6"/>
<path d="M410 631.164L414 629.15V542L410 544V631.164Z" fill="#3B3B3B"/>
<path d="M418 627.152L414 629.168V542L418 540V627.152Z" fill="#A6A6A6"/>
<path d="M346 569.002L350 571.002L418.001 537.001L414.001 535.001L346 569.002Z" fill="#676767"/>
<path d="M354 573L354 569L418 537.001L418 541L354 573Z" fill="#A6A6A6"/>
<path d="M675.871 709L499 796.441L322.128 709L499 621.558L675.871 709Z" fill="#A7A7A7" stroke="black"/>
</svg>
