<svg width="1000" height="1000" viewBox="0 0 1000 1000" fill="none" xmlns="http://www.w3.org/2000/svg">
<path d="M1000 650L500 900L0 650L500 400L1000 650Z" fill="#333333"/>
<path d="M500 900V1000L0 750V650L500 900Z" fill="black"/>
<path d="M500 900V1000L1000 750V650L500 900Z" fill="#555555"/>
<path d="M323.129 717L500 804.441L676.872 717L500 629.558L323.129 717Z" fill="#A7A7A7" stroke="black"/>
<path d="M500 588L626 525V243L500 306V588Z" fill="#E67070"/>
<path d="M374 243L500 306V588L374 525V243Z" fill="#CA2B2B"/>
<path d="M374 243L500 180L626 243L500 306L374 243Z" fill="#F04949"/>
<path d="M378 244L380 243V210L378 209V244Z" fill="#A6A6A6"/>
<path d="M378 209L376 210V243L378 244V209Z" fill="#3B3B3B"/>
<path d="M500 183L502 182V149L500 148V183Z" fill="#A6A6A6"/>
<path d="M500 148L498 149V182L500 183V148Z" fill="#3B3B3B"/>
<path d="M468 199L470 198V165L468 164V199Z" fill="#A6A6A6"/>
<path d="M468 164L466 165V198L468 199V164Z" fill="#3B3B3B"/>
<path d="M408 229L410 228V195L408 194V229Z" fill="#A6A6A6"/>
<path d="M408 194L406 195V228L408 229V194Z" fill="#3B3B3B"/>
<path d="M438 214L440 213V180L438 179V214Z" fill="#A6A6A6"/>
<path d="M438 179L436 180V213L438 214V179Z" fill="#3B3B3B"/>
<path d="M378 211L502 149L500 148L376 210L378 211Z" fill="#676767"/>
<path d="M502 149V151L378 213V211L502 149Z" fill="#A6A6A6"/>
<path d="M622 244L624 243V210L622 209V244Z" fill="#A6A6A6"/>
<path d="M622 209L620 210V243L622 244V209Z" fill="#3B3B3B"/>
<path d="M590 228L592 227V194L590 193V228Z" fill="#A6A6A6"/>
<path d="M590 193L588 194V227L590 228V193Z" fill="#3B3B3B"/>
<path d="M560 213L562 212V179L560 178V213Z" fill="#A6A6A6"/>
<path d="M560 178L558 179V212L560 213V178Z" fill="#3B3B3B"/>
<path d="M530 198L532 197V164L530 163V198Z" fill="#A6A6A6"/>
<path d="M530 163L528 164V197L530 198V163Z" fill="#3B3B3B"/>
<path d="M502 149L500 150L622 211L624 210L502 149Z" fill="#676767"/>
<path d="M500 152V150L622 211V213L500 152Z" fill="#3B3B3B"/>
<path d="M500 305L502 304V271L500 270V305Z" fill="#A6A6A6"/>
<path d="M500 270L498 271V304L500 305V270Z" fill="#3B3B3B"/>
<path d="M560 275L562 274V241L560 240V275Z" fill="#A6A6A6"/>
<path d="M560 240L558 241V274L560 275V240Z" fill="#3B3B3B"/>
<path d="M530 290L532 289V256L530 255V290Z" fill="#A6A6A6"/>
<path d="M530 255L528 256V289L530 290V255Z" fill="#3B3B3B"/>
<path d="M590 260L592 259V226L590 225V260Z" fill="#A6A6A6"/>
<path d="M590 225L588 226V259L590 260V225Z" fill="#3B3B3B"/>
<path d="M622 211L620 210L498 271L500 272L622 211Z" fill="#676767"/>
<path d="M622 213V211L500 272V274L622 213Z" fill="#A6A6A6"/>
<path d="M408 259L410 258V225L408 224V259Z" fill="#A6A6A6"/>
<path d="M408 224L406 225V258L408 259V224Z" fill="#3B3B3B"/>
<path d="M438 274L440 273V240L438 239V274Z" fill="#A6A6A6"/>
<path d="M438 239L436 240V273L438 274V239Z" fill="#3B3B3B"/>
<path d="M468 289L470 288V255L468 254V289Z" fill="#A6A6A6"/>
<path d="M468 254L466 255V288L468 289V254Z" fill="#3B3B3B"/>
<path d="M406 225L500 272L502 271L408 224L406 225Z" fill="#676767"/>
<path d="M406 227V225L500 272V274.5L406 227Z" fill="#3B3B3B"/>
<path d="M248 572L122 509V650L248 713V572Z" fill="#CA2B2B"/>
<path d="M248 572L500 446V588L248 713V572Z" fill="#E67070"/>
<path d="M122 509L374 383L500 446L248 572L122 509Z" fill="#F04949"/>
<path d="M186 531L144 510L198 483V525L186 531Z" fill="#E67070"/>
<path d="M198 537V483L306 537L252 564L198 537Z" fill="#CA2B2B"/>
<path d="M211 524.5L209 525.5L217.5 546.5H219.5L211 524.5Z" fill="#676767"/>
<path d="M209 524.5L207 525.5L215 545.5H217L209 524.5Z" fill="#3B3B3B"/>
<path d="M230 535L246 543L228 552L212 544L230 535Z" fill="#CCCCCC"/>
<path d="M232 554L228 552L246 543V547L232 554Z" fill="white"/>
<path d="M166 521V517.5L198 533.5V537L166 521Z" fill="#676767"/>
<path d="M198 537V533.5L230 517.5V521.5L198 537Z" fill="white"/>
<path d="M230 517.5L198 501.5L166 517.5L198 533.5L230 517.5Z" fill="#CCCCCC"/>
<path d="M355.201 574.193V660.481L411.201 632.355V546.193L355.201 574.193Z" fill="#7B4C00"/>
<path d="M347.201 664.51L351.201 662.502V572.193L347.201 570.193V664.51Z" fill="#3B3B3B"/>
<path d="M355.201 660.49L351.201 662.506V572.193L355.201 570.193V660.49Z" fill="#A6A6A6"/>
<path d="M411.201 632.357L415.201 630.343V543.193L411.201 545.193V632.357Z" fill="#3B3B3B"/>
<path d="M419.201 628.346L415.201 630.361V543.193L419.201 541.193V628.346Z" fill="#A6A6A6"/>
<path d="M347.2 570.195L351.2 572.195L419.201 538.194L415.201 536.194L347.2 570.195Z" fill="#676767"/>
<path d="M355.201 574.194L355.201 570.194L419.201 538.194L419.201 542.194L355.201 574.194Z" fill="#A6A6A6"/>
<path d="M421 335L419 336L428 359L430 358L421 335Z" fill="#A6A6A6"/>
<path d="M419 335L417 336L426 359L428 358L419 335Z" fill="#3B3B3B"/>
<path d="M436 359L434 360L443 383L445 382L436 359Z" fill="#A6A6A6"/>
<path d="M434 359L432 360L441 383L443 382L434 359Z" fill="#3B3B3B"/>
<path d="M404 307L402 308L411 331L413 330L404 307Z" fill="#A6A6A6"/>
<path d="M402 307L400 308L409 331L411 330L402 307Z" fill="#3B3B3B"/>
<path d="M452 383L450 384L459 407L461 406L452 383Z" fill="#A6A6A6"/>
<path d="M450 383L448 384L457 407L459 406L450 383Z" fill="#3B3B3B"/>
<path d="M457 419L459 420L450 443L448 442L457 419Z" fill="#3B3B3B"/>
<path d="M459 419L461 420L452 443L450 442L459 419Z" fill="#A6A6A6"/>
<path d="M387 280L385 281L394 304L396 303L387 280Z" fill="#A6A6A6"/>
<path d="M385 280L383 281L392 304L394 303L385 280Z" fill="#3B3B3B"/>
<path d="M437 459L439 458V442H437V459Z" fill="#A6A6A6"/>
<path d="M437 441L435 442V458L437 459V441Z" fill="#3B3B3B"/>
<path d="M406 345V341L438 325V329L406 345Z" fill="white"/>
<path d="M422 317L438 325L406 341L390 333L422 317Z" fill="#CCCCCC"/>
<path d="M390 337V333L406 341V345L390 337Z" fill="#676767"/>
<path d="M422 371V367L454 351V355L422 371Z" fill="white"/>
<path d="M438 343L454 351L422 367L406 359L438 343Z" fill="#CCCCCC"/>
<path d="M406 363V359L422 367V371L406 363Z" fill="#676767"/>
<path d="M438 397V393L470 377V381L438 397Z" fill="white"/>
<path d="M454 369L470 377L438 393L422 385L454 369Z" fill="#CCCCCC"/>
<path d="M422 389V385L438 393V397L422 389Z" fill="#676767"/>
<path d="M500 410L468 426L438 411L470 395L500 410Z" fill="#CCCCCC"/>
<path d="M468 430V426L500 410V414L468 430Z" fill="white"/>
<path d="M438 415V411L468 426V430L438 415Z" fill="#676767"/>
<path d="M468 448L452 456V452L468 444V448Z" fill="white"/>
<path d="M436 428L420 436L452 452L468 444L436 428Z" fill="#CCCCCC"/>
<path d="M420 440V436L452 452V456L420 440Z" fill="#676767"/>
<path d="M390 319V315L422 299V303L390 319Z" fill="white"/>
<path d="M406 291L422 299L390 315L374 307L406 291Z" fill="#CCCCCC"/>
<path d="M374 311V307L390 315V319L374 311Z" fill="#676767"/>
<path d="M342 277V273L374 289V293L342 277Z" fill="#676767"/>
<path d="M374 293V289L406 273V277L374 293Z" fill="white"/>
<path d="M406 273L374 257L342 273L374 289L406 273Z" fill="#CCCCCC"/>
<path d="M496 411L498 410V377L496 376V411Z" fill="#A6A6A6"/>
<path d="M496 376L494 377V410L496 411V376Z" fill="#3B3B3B"/>
<path d="M468 425L470 424V391L468 390V425Z" fill="#A6A6A6"/>
<path d="M468 390L466 391V424L468 425V390Z" fill="#3B3B3B"/>
<path d="M448 472L450 471V438L448 437V472Z" fill="#A6A6A6"/>
<path d="M448 437L446 438V471L448 472V437Z" fill="#3B3B3B"/>
<path d="M446 438L466 391L468 392L448 439L446 438Z" fill="#3B3B3B"/>
<path d="M468 396V392L448 439L450 438L468 396Z" fill="#A6A6A6"/>
<path d="M468 392L466 391L498 375L500 376L468 392Z" fill="#676767"/>
<path d="M468 392V394L500 378V376L468 392Z" fill="#A6A6A6"/>
<path d="M442 412L444 411V378L442 377V412Z" fill="#A6A6A6"/>
<path d="M442 377L440 378V411L442 412V377Z" fill="#3B3B3B"/>
<path d="M426 386L428 385V352L426 351V386Z" fill="#A6A6A6"/>
<path d="M426 351L424 352V385L426 386V351Z" fill="#3B3B3B"/>
<path d="M410 360L412 359V326L410 325V360Z" fill="#A6A6A6"/>
<path d="M410 325L408 326V359L410 360V325Z" fill="#3B3B3B"/>
<path d="M394 334L396 333V300L394 299V334Z" fill="#A6A6A6"/>
<path d="M394 299L392 300V333L394 334V299Z" fill="#3B3B3B"/>
<path d="M378 308L380 307V274L378 273V308Z" fill="#A6A6A6"/>
<path d="M378 273L376 274V307L378 308V273Z" fill="#3B3B3B"/>
<path d="M362 283L364 282V249L362 248V283Z" fill="#A6A6A6"/>
<path d="M362 248L360 249V282L362 283V248Z" fill="#3B3B3B"/>
<path d="M346 274L348 273V240L346 239V274Z" fill="#A6A6A6"/>
<path d="M346 239L344 240V273L346 274V239Z" fill="#3B3B3B"/>
<path d="M362 267L364 266V233L362 232V267Z" fill="#A6A6A6"/>
<path d="M362 232L360 233V266L362 267V232Z" fill="#3B3B3B"/>
<path d="M424 460L426 459V426L424 425V460Z" fill="#A6A6A6"/>
<path d="M424 425L422 426V459L424 460V425Z" fill="#3B3B3B"/>
<path d="M346 241L344 240L376 225L378 226L346 241Z" fill="#676767"/>
<path d="M378 228V226L346 241V243L378 228Z" fill="#A6A6A6"/>
<path d="M362 249L344 240L346 239L364 248L362 249Z" fill="#676767"/>
<path d="M346 243V241L362 249V251L346 243Z" fill="#3B3B3B"/>
<path d="M444 378L364 248L362 249L442 379L444 378Z" fill="#676767"/>
<path d="M362 253V249L442 379V383L362 253Z" fill="#3B3B3B"/>
<path d="M442 379L440 378L422 426L424 427L442 379Z" fill="#3B3B3B"/>
<path d="M442 383V379L424 427H426L442 383Z" fill="#A6A6A6"/>
<path d="M752 572L878 509V650L752 713V572Z" fill="#E67070"/>
<path d="M752 572L500 446V588L752 713V572Z" fill="#CA2B2B"/>
<path d="M878 509L626 383L500 446L752 572L878 509Z" fill="#F04949"/>
<path d="M713.375 593.195L539.375 506.195V579.195L713.375 666.195V593.195Z" fill="#CAFFFF"/>
<path d="M713.375 666.194L713.375 670.194L535.375 581.194L539.375 579.194L713.375 666.194Z" fill="#676767"/>
<path d="M713.374 674.194L713.374 670.194L535.374 581.195L535.375 585.195L713.374 674.194Z" fill="#3B3B3B"/>
<path d="M721.374 674.195L717.374 676.195V591.195L721.374 589.195V674.195Z" fill="#A6A6A6"/>
<path d="M713.374 674.195L717.374 676.195V591.195L713.374 589.195V674.195Z" fill="#3B3B3B"/>
<path d="M539.374 579.195L535.374 581.195V500.195L539.374 502.195V579.195Z" fill="#A6A6A6"/>
<path d="M531.374 583.195L535.374 585.195V500.195L531.374 498.195V583.195Z" fill="#3B3B3B"/>
<path d="M721.374 589.194L717.374 591.194L531.374 498.194L535.374 496.194L721.374 589.194Z" fill="#676767"/>
<path d="M713.374 593.195L713.374 589.195L535.374 500.195L535.374 504.195L713.374 593.195Z" fill="#3B3B3B"/>
<path d="M739.603 508.196L735.603 510.196V477.195L739.603 475.195V508.196Z" fill="#A6A6A6"/>
<path d="M731.603 508.196L735.603 510.196V477.195L731.603 475.195V508.196Z" fill="#3B3B3B"/>
<path d="M631.603 454.196L627.603 456.196V423.195L631.603 421.195V454.196Z" fill="#A6A6A6"/>
<path d="M623.603 454.196L627.603 456.196V423.195L623.603 421.195V454.196Z" fill="#3B3B3B"/>
<path d="M772.603 487.695V421.195L607.603 339.195V405.195L772.603 487.695Z" fill="#D9D9D9"/>
<path d="M780.603 497.195L776.603 497.695V419.195L780.603 417.195V497.195Z" fill="#A6A6A6"/>
<path d="M772.603 495.695L776.603 497.695V418.195L772.603 416.195V495.695Z" fill="#3B3B3B"/>
<path d="M607.603 409.195L603.603 411.195V333.195L607.603 335.195V409.195Z" fill="#A6A6A6"/>
<path d="M599.603 409.195L603.603 411.195V333.195L599.603 331.195V409.195Z" fill="#3B3B3B"/>
<path d="M780.602 417.194L776.602 419.194L599.602 331.194L603.602 329.194L780.602 417.194Z" fill="#676767"/>
<path d="M776.602 423.194L776.602 419.194L603.602 333.194L603.602 337.194L776.602 423.194Z" fill="#3B3B3B"/>
<path d="M776.603 497.694L776.603 493.694L599.603 405.194L599.603 409.194L776.603 497.694Z" fill="#3B3B3B"/>
<path d="M772.602 487.694L772.603 491.694L603.603 407.194L607.603 405.194L772.602 487.694Z" fill="#676767"/>
</svg>
