<svg width="1000" height="1000" viewBox="0 0 1000 1000" fill="none" xmlns="http://www.w3.org/2000/svg">
<path d="M1000 650L500 900L0 650L500 400L1000 650Z" fill="#333333"/>
<path d="M500 900V1000L0 750V650L500 900Z" fill="black"/>
<path d="M500 900V1000L1000 750V650L500 900Z" fill="#555555"/>
<path d="M120 507L372 633L750 444L498 318L120 507Z" fill="#F04949"/>
<path d="M120 648L372 774V633L120 507V648Z" fill="#CA2B2B"/>
<path d="M750 444V585L372 774V633L750 444Z" fill="#E67070"/>
<path d="M533.227 606.342V692.957L589.205 664.724V578.236L533.227 606.342Z" fill="#7B4C00"/>
<path d="M525.229 696.999L529.228 694.984V604.334L525.229 602.326V696.999Z" fill="#3B3B3B"/>
<path d="M533.227 692.965L529.228 694.988V604.334L533.227 602.326V692.965Z" fill="#A6A6A6"/>
<path d="M589.205 664.726L593.204 662.704V575.225L589.205 577.232V664.726Z" fill="#3B3B3B"/>
<path d="M597.202 660.699L593.204 662.722V575.224L597.202 573.217V660.699Z" fill="#A6A6A6"/>
<path d="M525.229 602.328L529.227 604.336L597.202 570.206L593.204 568.199L525.229 602.328Z" fill="#676767"/>
<path d="M533.226 606.342L533.227 602.326L597.202 570.205L597.202 574.221L533.226 606.342Z" fill="#A6A6A6"/>
<path d="M733 728.5L598 661L524 698L585 728.5L371 835.5L445 872.5L733 728.5Z" fill="#CFC909"/>
<path d="M374 775L90 633L120 618V632L374 759L526 682L542 691L374 775Z" fill="#309C15"/>
<path d="M90 649V633L374 775V791L90 649Z" fill="#2E6820"/>
<path d="M542 707V691L374 775V791L542 707Z" fill="#28C900"/>
<path d="M781 571L750 555.5V570L598 646L615 654L781 571Z" fill="#309C15"/>
<path d="M781 570.5L750 555V569.5L598 646L614 655L781 570.5Z" fill="#309C15"/>
<path d="M614 669V655L598 646V661L614 669Z" fill="#2E6820"/>
<path d="M781 587V570.5L614 655V669L781 587Z" fill="#28C900"/>
<path d="M721 555V514L637 556V597L721 555Z" fill="#CAFFFF"/>
<path d="M721 555L725 557V512L721 514V555Z" fill="#3B3B3B"/>
<path d="M629 605L633 607V550L629 552V605Z" fill="#3B3B3B"/>
<path d="M725 504L729 506L633 554L629 552L725 504Z" fill="#676767"/>
<path d="M721 555L725 557L637 601V597L721 555Z" fill="#676767"/>
<path fill-rule="evenodd" clip-rule="evenodd" d="M729 559V506L633 554V607L729 559ZM725 512V557L637 601V556L725 512Z" fill="#A6A6A6"/>
<path d="M485 672V631L401 673V714L485 672Z" fill="#CAFFFF"/>
<path d="M485 672L489 674V629L485 631V672Z" fill="#3B3B3B"/>
<path d="M393 722L397 724V667L393 669V722Z" fill="#3B3B3B"/>
<path d="M489 621L493 623L397 671L393 669L489 621Z" fill="#676767"/>
<path d="M485 672L489 674L401 718V714L485 672Z" fill="#676767"/>
<path fill-rule="evenodd" clip-rule="evenodd" d="M493 676V623L397 671V724L493 676ZM489 629V674L401 718V673L489 629Z" fill="#A6A6A6"/>
<path d="M288 426.001C297 430.501 549.5 556.001 553 558.001C555 546.001 559 541.001 563.5 537.001C569.19 533.141 577.222 534.135 589 540.001C586 538.501 331 411.501 324 408.001C310 401.501 304.5 401.001 298.5 405.001C292.5 410.001 289.5 417.001 288 426.001Z" fill="#D9D9D9"/>
<path d="M288 426.001C297 430.501 549.5 556.001 553 558.001C555 546.001 559 541.001 563.5 537.001C569.19 533.141 577.222 534.135 589 540.001C586 538.501 331 411.501 324 408.001C310 401.501 304.5 401.001 298.5 405.001C292.5 410.001 289.5 417.001 288 426.001Z" fill="url(#paint0_linear_162_28988)"/>
<path d="M324 408.001C333 412.501 585.5 538.001 589 540.001C591 528.001 595 523.001 599.5 519.001C605.19 515.141 613.222 516.135 625 522.001C622 520.501 367 393.501 360 390.001C346 383.501 340.5 383.001 334.5 387.001C328.5 392.001 325.5 399.001 324 408.001Z" fill="#D9D9D9"/>
<path d="M324 408.001C333 412.501 585.5 538.001 589 540.001C591 528.001 595 523.001 599.5 519.001C605.19 515.141 613.222 516.135 625 522.001C622 520.501 367 393.501 360 390.001C346 383.501 340.5 383.001 334.5 387.001C328.5 392.001 325.5 399.001 324 408.001Z" fill="url(#paint1_linear_162_28988)"/>
<path d="M180 480.001C189 484.501 441.5 610.001 445 612.001C447 600.001 451 595.001 455.5 591.001C461.19 587.141 469.222 588.135 481 594.001C478 592.501 223 465.501 216 462.001C202 455.501 196.5 455.001 190.5 459.001C184.5 464.001 181.5 471.001 180 480.001Z" fill="#D9D9D9"/>
<path d="M180 480.001C189 484.501 441.5 610.001 445 612.001C447 600.001 451 595.001 455.5 591.001C461.19 587.141 469.222 588.135 481 594.001C478 592.501 223 465.501 216 462.001C202 455.501 196.5 455.001 190.5 459.001C184.5 464.001 181.5 471.001 180 480.001Z" fill="url(#paint2_linear_162_28988)"/>
<path d="M252 444.001C261 448.501 513.5 574.001 517 576.001C519 564.001 523 559.001 527.5 555.001C533.19 551.141 541.222 552.135 553 558.001C550 556.501 295 429.501 288 426.001C274 419.501 268.5 419.001 262.5 423.001C256.5 428.001 253.5 435.001 252 444.001Z" fill="#D9D9D9"/>
<path d="M252 444.001C261 448.501 513.5 574.001 517 576.001C519 564.001 523 559.001 527.5 555.001C533.19 551.141 541.222 552.135 553 558.001C550 556.501 295 429.501 288 426.001C274 419.501 268.5 419.001 262.5 423.001C256.5 428.001 253.5 435.001 252 444.001Z" fill="url(#paint3_linear_162_28988)"/>
<path d="M108 516.001C117 520.501 369.5 646.001 373 648.001C375 636.001 379 631.001 383.5 627.001C389.19 623.141 397.222 624.135 409 630.001C406 628.501 151 501.501 144 498.001C130 491.501 124.5 491.001 118.5 495.001C112.5 500.001 109.5 507.001 108 516.001Z" fill="#D9D9D9"/>
<path d="M108 516.001C117 520.501 369.5 646.001 373 648.001C375 636.001 379 631.001 383.5 627.001C389.19 623.141 397.222 624.135 409 630.001C406 628.501 151 501.501 144 498.001C130 491.501 124.5 491.001 118.5 495.001C112.5 500.001 109.5 507.001 108 516.001Z" fill="url(#paint4_linear_162_28988)"/>
<path d="M216 462.001C225 466.501 477.5 592.001 481 594.001C483 582.001 487 577.001 491.5 573.001C497.19 569.141 505.222 570.135 517 576.001C514 574.501 259 447.501 252 444.001C238 437.501 232.5 437.001 226.5 441.001C220.5 446.001 217.5 453.001 216 462.001Z" fill="#D9D9D9"/>
<path d="M216 462.001C225 466.501 477.5 592.001 481 594.001C483 582.001 487 577.001 491.5 573.001C497.19 569.141 505.222 570.135 517 576.001C514 574.501 259 447.501 252 444.001C238 437.501 232.5 437.001 226.5 441.001C220.5 446.001 217.5 453.001 216 462.001Z" fill="url(#paint5_linear_162_28988)"/>
<path d="M360 390.001C369 394.501 621.5 520.001 625 522.001C627 510.001 631 505.001 635.5 501.001C641.19 497.141 649.222 498.135 661 504.001C658 502.501 403 375.501 396 372.001C382 365.501 376.5 365.001 370.5 369.001C364.5 374.001 361.5 381.001 360 390.001Z" fill="#D9D9D9"/>
<path d="M360 390.001C369 394.501 621.5 520.001 625 522.001C627 510.001 631 505.001 635.5 501.001C641.19 497.141 649.222 498.135 661 504.001C658 502.501 403 375.501 396 372.001C382 365.501 376.5 365.001 370.5 369.001C364.5 374.001 361.5 381.001 360 390.001Z" fill="url(#paint6_linear_162_28988)"/>
<path d="M396 372.001C405 376.501 657.5 502.001 661 504.001C663 492.001 667 487.001 671.5 483.001C677.19 479.141 685.222 480.135 697 486.001C694 484.501 439 357.501 432 354.001C418 347.501 412.5 347.001 406.5 351.001C400.5 356.001 397.5 363.001 396 372.001Z" fill="#D9D9D9"/>
<path d="M396 372.001C405 376.501 657.5 502.001 661 504.001C663 492.001 667 487.001 671.5 483.001C677.19 479.141 685.222 480.135 697 486.001C694 484.501 439 357.501 432 354.001C418 347.501 412.5 347.001 406.5 351.001C400.5 356.001 397.5 363.001 396 372.001Z" fill="url(#paint7_linear_162_28988)"/>
<path d="M468 336.001C477 340.501 729.5 466.001 733 468.001C735 456.001 739 451.001 743.5 447.001C749.19 443.141 757.222 444.135 769 450.001C766 448.501 511 321.501 504 318.001C490 311.501 484.5 311.001 478.5 315.001C472.5 320.001 469.5 327.001 468 336.001Z" fill="#D9D9D9"/>
<path d="M468 336.001C477 340.501 729.5 466.001 733 468.001C735 456.001 739 451.001 743.5 447.001C749.19 443.141 757.222 444.135 769 450.001C766 448.501 511 321.501 504 318.001C490 311.501 484.5 311.001 478.5 315.001C472.5 320.001 469.5 327.001 468 336.001Z" fill="url(#paint8_linear_162_28988)"/>
<path d="M144 498.001C153 502.501 405.5 628.001 409 630.001C411 618.001 415 613.001 419.5 609.001C425.19 605.141 433.222 606.135 445 612.001C442 610.501 187 483.501 180 480.001C166 473.501 160.5 473.001 154.5 477.001C148.5 482.001 145.5 489.001 144 498.001Z" fill="#D9D9D9"/>
<path d="M144 498.001C153 502.501 405.5 628.001 409 630.001C411 618.001 415 613.001 419.5 609.001C425.19 605.141 433.222 606.135 445 612.001C442 610.501 187 483.501 180 480.001C166 473.501 160.5 473.001 154.5 477.001C148.5 482.001 145.5 489.001 144 498.001Z" fill="url(#paint9_linear_162_28988)"/>
<path d="M432 354.001C441 358.501 693.5 484.001 697 486.001C699 474.001 703 469.001 707.5 465.001C713.19 461.141 721.222 462.135 733 468.001C730 466.501 475 339.501 468 336.001C454 329.501 448.5 329.001 442.5 333.001C436.5 338.001 433.5 345.001 432 354.001Z" fill="#D9D9D9"/>
<path d="M432 354.001C441 358.501 693.5 484.001 697 486.001C699 474.001 703 469.001 707.5 465.001C713.19 461.141 721.222 462.135 733 468.001C730 466.501 475 339.501 468 336.001C454 329.501 448.5 329.001 442.5 333.001C436.5 338.001 433.5 345.001 432 354.001Z" fill="url(#paint10_linear_162_28988)"/>
<defs>
<linearGradient id="paint0_linear_162_28988" x1="480.24" y1="408.453" x2="408.76" y2="558.001" gradientUnits="userSpaceOnUse">
<stop/>
<stop offset="0.538462" stop-color="white"/>
</linearGradient>
<linearGradient id="paint1_linear_162_28988" x1="516.24" y1="390.453" x2="444.76" y2="540.001" gradientUnits="userSpaceOnUse">
<stop/>
<stop offset="0.538462" stop-color="white"/>
</linearGradient>
<linearGradient id="paint2_linear_162_28988" x1="372.24" y1="462.453" x2="300.76" y2="612.001" gradientUnits="userSpaceOnUse">
<stop/>
<stop offset="0.538462" stop-color="white"/>
</linearGradient>
<linearGradient id="paint3_linear_162_28988" x1="444.24" y1="426.453" x2="372.76" y2="576.001" gradientUnits="userSpaceOnUse">
<stop/>
<stop offset="0.538462" stop-color="white"/>
</linearGradient>
<linearGradient id="paint4_linear_162_28988" x1="300.24" y1="498.453" x2="228.76" y2="648.001" gradientUnits="userSpaceOnUse">
<stop/>
<stop offset="0.538462" stop-color="white"/>
</linearGradient>
<linearGradient id="paint5_linear_162_28988" x1="408.24" y1="444.453" x2="336.76" y2="594.001" gradientUnits="userSpaceOnUse">
<stop/>
<stop offset="0.538462" stop-color="white"/>
</linearGradient>
<linearGradient id="paint6_linear_162_28988" x1="552.24" y1="372.453" x2="480.76" y2="522.001" gradientUnits="userSpaceOnUse">
<stop/>
<stop offset="0.538462" stop-color="white"/>
</linearGradient>
<linearGradient id="paint7_linear_162_28988" x1="588.24" y1="354.453" x2="516.76" y2="504.001" gradientUnits="userSpaceOnUse">
<stop/>
<stop offset="0.538462" stop-color="white"/>
</linearGradient>
<linearGradient id="paint8_linear_162_28988" x1="660.24" y1="318.453" x2="588.76" y2="468.001" gradientUnits="userSpaceOnUse">
<stop/>
<stop offset="0.538462" stop-color="white"/>
</linearGradient>
<linearGradient id="paint9_linear_162_28988" x1="336.24" y1="480.453" x2="264.76" y2="630.001" gradientUnits="userSpaceOnUse">
<stop/>
<stop offset="0.538462" stop-color="white"/>
</linearGradient>
<linearGradient id="paint10_linear_162_28988" x1="624.24" y1="336.453" x2="552.76" y2="486.001" gradientUnits="userSpaceOnUse">
<stop/>
<stop offset="0.538462" stop-color="white"/>
</linearGradient>
</defs>
</svg>
