<svg width="1000" height="1000" viewBox="0 0 1000 1000" fill="none" xmlns="http://www.w3.org/2000/svg">
<path d="M1000 650L500 900L0 650L500 400L1000 650Z" fill="#333333"/>
<path d="M500 900V1000L0 750V650L500 900Z" fill="black"/>
<path d="M500 900V1000L1000 750V650L500 900Z" fill="#555555"/>
<path d="M121 511L247 574L625 385L499 322L121 511Z" fill="#F04949"/>
<path d="M121 652L247 715V574L121 511V652Z" fill="#CA2B2B"/>
<path d="M625 385V526.5L247 715V574L625 385Z" fill="#E67070"/>
<path d="M247 715L121 652V511L247 574V715Z" fill="#CAFFFF"/>
<path d="M247 589L121 652L247 715V589Z" fill="#D9D9D9"/>
<path d="M192 546.5L121 582V580L190 545.5L192 546.5Z" fill="#728787"/>
<path d="M121 580V582L247 645V643L121 580Z" fill="#3B3B3B"/>
<path d="M186 543.5L184 542.5V683.5L186 684.5V543.5Z" fill="#3B3B3B"/>
<path d="M188 744.5L373 652V778L315 808L188 744.5Z" fill="black"/>
<path d="M259 758L271 764L249 775L237 769L259 758Z" fill="#CFC909"/>
<path d="M373 701V713L357 721L345 715L373 701Z" fill="#CFC909"/>
<path d="M325 725L337 731L293 753L281 747L325 725Z" fill="#CFC909"/>
<path d="M241 718L245 720V679L241 677V718Z" fill="#3B3B3B"/>
<path d="M249 718L245 720V679L249 677V718Z" fill="#A6A6A6"/>
<path d="M245 675L241 677L245 679L249 677L245 675Z" fill="#676767"/>
<path d="M246 683V679.5L362 737.5V741L246 683Z" fill="#CA2B2B"/>
<path d="M363 740.5L362 741V737.5L363 737V740.5Z" fill="#E67070"/>
<path d="M363 737L362 737.5L246 679.5L247 679L363 737Z" fill="#F04949"/>
<path d="M260 685.5V686.5L255 684V683L260 685.5Z" fill="#D9D9D9"/>
<path d="M255 684L256 688L261 690.5L260 686.5L255 684Z" fill="#A7A7A7"/>
<path d="M284 697.5V698.5L279 696V695L284 697.5Z" fill="#D9D9D9"/>
<path d="M279 696L280 700L285 702.5L284 698.5L279 696Z" fill="#A7A7A7"/>
<path d="M296 703.5V704.5L291 702V701L296 703.5Z" fill="#D9D9D9"/>
<path d="M291 702L292 706L297 708.5L296 704.5L291 702Z" fill="#A7A7A7"/>
<path d="M308 709.5V710.5L303 708V707L308 709.5Z" fill="#D9D9D9"/>
<path d="M303 708L304 712L309 714.5L308 710.5L303 708Z" fill="#A7A7A7"/>
<path d="M320 715.5V716.5L315 714V713L320 715.5Z" fill="#D9D9D9"/>
<path d="M315 714L316 718L321 720.5L320 716.5L315 714Z" fill="#A7A7A7"/>
<path d="M332 721.5V722.5L327 720V719L332 721.5Z" fill="#D9D9D9"/>
<path d="M327 720L328 724L333 726.5L332 722.5L327 720Z" fill="#A7A7A7"/>
<path d="M344 727.5V728.5L339 726V725L344 727.5Z" fill="#D9D9D9"/>
<path d="M339 726L340 730L345 732.5L344 728.5L339 726Z" fill="#A7A7A7"/>
<path d="M356 733.5V734.5L351 732V731L356 733.5Z" fill="#D9D9D9"/>
<path d="M351 732L352 736L357 738.5L356 734.5L351 732Z" fill="#A7A7A7"/>
<path d="M272 691.5V692.5L267 690V689L272 691.5Z" fill="#D9D9D9"/>
<path d="M267 690L268 694L273 696.5L272 692.5L267 690Z" fill="#A7A7A7"/>
<path d="M302.53 600.852L304.231 599.999V614.078L302.53 614.932V600.852Z" fill="#A6A6A6"/>
<path d="M305.933 600.852L304.231 599.999V614.078L305.933 614.932V600.852Z" fill="#3B3B3B"/>
<path d="M348.464 623.891L350.165 623.038V637.117L348.464 637.971V623.891Z" fill="#A6A6A6"/>
<path d="M351.866 623.891L350.165 623.038V637.117L351.866 637.971V623.891Z" fill="#3B3B3B"/>
<path d="M288.495 609.6L288.571 660.24L358.746 695.225L358.67 644.798L288.495 609.6Z" fill="#D9D9D9"/>
<path d="M285.093 605.546L286.794 605.332L286.87 661.092L285.169 661.945L285.093 605.546Z" fill="#A6A6A6"/>
<path d="M288.571 606.186L286.87 605.333V660.666L288.571 661.52V606.186Z" fill="#3B3B3B"/>
<path d="M358.671 643.09L360.372 642.236L360.448 696.076L358.747 695.223L358.671 643.09Z" fill="#A6A6A6"/>
<path d="M362.073 643.09L360.372 642.237L360.448 697.783L362.149 698.637L362.073 643.09Z" fill="#3B3B3B"/>
<path d="M285.169 661.946L286.87 661.093L362.149 698.637L360.448 699.49L285.169 661.946Z" fill="#676767"/>
<path d="M286.87 659.387L286.87 661.093L360.462 697.784L360.462 696.078L286.87 659.387Z" fill="#3B3B3B"/>
<path d="M286.794 605.333L286.794 607.04L362.073 644.798L362.073 643.091L286.794 605.333Z" fill="#3B3B3B"/>
<path d="M288.495 609.599L288.495 607.893L360.372 643.944L358.671 644.797L288.495 609.599Z" fill="#676767"/>
<path d="M936 683.5L751 591V717L809 747L936 683.5Z" fill="black"/>
<path d="M865 697L853 703L875 714L887 708L865 697Z" fill="#CFC909"/>
<path d="M751 640V652L767 660L779 654L751 640Z" fill="#CFC909"/>
<path d="M799 664L787 670L831 692L843 686L799 664Z" fill="#CFC909"/>
<path d="M883 657L879 659V618L883 616V657Z" fill="#3B3B3B"/>
<path d="M875 657L879 659V618L875 616V657Z" fill="#A6A6A6"/>
<path d="M879 614L883 616L879 618L875 616L879 614Z" fill="#676767"/>
<path d="M878 622V618.5L762 676.5V680L878 622Z" fill="#CA2B2B"/>
<path d="M761 679.5L762 680V676.5L761 676V679.5Z" fill="#E67070"/>
<path d="M761 676L762 676.5L878 618.5L877 618L761 676Z" fill="#F04949"/>
<path d="M864 624.5V625.5L869 623V622L864 624.5Z" fill="#D9D9D9"/>
<path d="M869 623L868 627L863 629.5L864 625.5L869 623Z" fill="#A7A7A7"/>
<path d="M840 636.5V637.5L845 635V634L840 636.5Z" fill="#D9D9D9"/>
<path d="M845 635L844 639L839 641.5L840 637.5L845 635Z" fill="#A7A7A7"/>
<path d="M828 642.5V643.5L833 641V640L828 642.5Z" fill="#D9D9D9"/>
<path d="M833 641L832 645L827 647.5L828 643.5L833 641Z" fill="#A7A7A7"/>
<path d="M816 648.5V649.5L821 647V646L816 648.5Z" fill="#D9D9D9"/>
<path d="M821 647L820 651L815 653.5L816 649.5L821 647Z" fill="#A7A7A7"/>
<path d="M804 654.5V655.5L809 653V652L804 654.5Z" fill="#D9D9D9"/>
<path d="M809 653L808 657L803 659.5L804 655.5L809 653Z" fill="#A7A7A7"/>
<path d="M792 660.5V661.5L797 659V658L792 660.5Z" fill="#D9D9D9"/>
<path d="M797 659L796 663L791 665.5L792 661.5L797 659Z" fill="#A7A7A7"/>
<path d="M780 666.5V667.5L785 665V664L780 666.5Z" fill="#D9D9D9"/>
<path d="M785 665L784 669L779 671.5L780 667.5L785 665Z" fill="#A7A7A7"/>
<path d="M768 672.5V673.5L773 671V670L768 672.5Z" fill="#D9D9D9"/>
<path d="M773 671L772 675L767 677.5L768 673.5L773 671Z" fill="#A7A7A7"/>
<path d="M852 630.5V631.5L857 629V628L852 630.5Z" fill="#D9D9D9"/>
<path d="M857 629L856 633L851 635.5L852 631.5L857 629Z" fill="#A7A7A7"/>
<path d="M499 700L373 637V778L499 841V700Z" fill="#CA2B2B"/>
<path d="M499 700L751 574V716L499 841V700Z" fill="#E67070"/>
<path d="M373 637L625 511L751 574L499 700L373 637Z" fill="#F04949"/>
<path d="M845.47 526.852L843.769 525.999V540.078L845.47 540.932V526.852Z" fill="#A6A6A6"/>
<path d="M842.067 526.852L843.769 525.999V540.078L842.067 540.932V526.852Z" fill="#3B3B3B"/>
<path d="M799.536 549.891L797.835 549.038V563.117L799.536 563.971V549.891Z" fill="#A6A6A6"/>
<path d="M796.134 549.891L797.835 549.038V563.117L796.134 563.971V549.891Z" fill="#3B3B3B"/>
<path d="M859.505 535.6L859.429 586.24L789.254 621.225L789.33 570.798L859.505 535.6Z" fill="#D9D9D9"/>
<path d="M862.907 531.546L861.206 531.332L861.13 587.092L862.831 587.945L862.907 531.546Z" fill="#A6A6A6"/>
<path d="M859.429 532.186L861.13 531.333V586.666L859.429 587.52V532.186Z" fill="#3B3B3B"/>
<path d="M789.329 569.09L787.628 568.236L787.552 622.076L789.253 621.223L789.329 569.09Z" fill="#A6A6A6"/>
<path d="M785.927 569.09L787.628 568.237L787.552 623.783L785.851 624.637L785.927 569.09Z" fill="#3B3B3B"/>
<path d="M862.831 587.946L861.13 587.093L785.851 624.637L787.552 625.49L862.831 587.946Z" fill="#676767"/>
<path d="M861.13 585.387L861.13 587.093L787.538 623.784L787.538 622.078L861.13 585.387Z" fill="#3B3B3B"/>
<path d="M861.206 531.333L861.206 533.04L785.927 570.798L785.927 569.091L861.206 531.333Z" fill="#3B3B3B"/>
<path d="M859.505 535.599L859.505 533.893L787.628 569.944L789.329 570.797L859.505 535.599Z" fill="#676767"/>
<path d="M877 370L751 433L373 244L499 181L877 370Z" fill="#F04949"/>
<path d="M877 511L751 574V433L877 370V511Z" fill="#E67070"/>
<path d="M373 244V385.5L751 574V433L373 244Z" fill="#CA2B2B"/>
<path d="M499 433L625 370V511L499 574V433Z" fill="#E67070"/>
<path d="M499 433V574L373 511V370L499 433Z" fill="#CA2B2B"/>
<path d="M625 370L499 433L373 370L499 307L625 370Z" fill="#F04949"/>
<path d="M625 496L499 559L121 370L247 307L625 496Z" fill="#F04949"/>
<path d="M625 637L499 700V559L625 496V637Z" fill="#E67070"/>
<path d="M121 370V511.5L499 700V559L121 370Z" fill="#CA2B2B"/>
<path d="M461.799 739.193V825.481L405.799 797.355V711.193L461.799 739.193Z" fill="#7B4C00"/>
<path d="M469.799 829.51L465.799 827.502V737.193L469.799 735.193V829.51Z" fill="#A6A6A6"/>
<path d="M461.799 825.49L465.799 827.506V737.193L461.799 735.193V825.49Z" fill="#3B3B3B"/>
<path d="M405.799 797.357L401.799 795.343V708.193L405.799 710.193V797.357Z" fill="#A6A6A6"/>
<path d="M397.799 793.346L401.799 795.361V708.193L397.799 706.193V793.346Z" fill="#3B3B3B"/>
<path d="M469.799 735.195L465.799 737.195L397.798 703.194L401.798 701.194L469.799 735.195Z" fill="#676767"/>
<path d="M461.799 739.194L461.799 735.194L397.799 703.194L397.799 707.194L461.799 739.194Z" fill="#3B3B3B"/>
<path d="M141 497L141 404L479 573V666L141 497Z" fill="#A7A7A7"/>
<path d="M429.043 470.994L425.03 473V439.913L429.043 437.908V470.994Z" fill="#A6A6A6"/>
<path d="M421.017 470.994L425.03 473V439.913L421.017 437.908V470.994Z" fill="#3B3B3B"/>
<path d="M320.688 416.854L316.675 418.859V385.773L320.688 383.768V416.854Z" fill="#A6A6A6"/>
<path d="M312.662 416.854L316.675 418.859V385.773L312.662 383.768V416.854Z" fill="#3B3B3B"/>
<path d="M462.151 450.44L461.972 331.436L296.43 249.223L296.609 367.725L462.151 450.44Z" fill="#D9D9D9"/>
<path d="M470.179 459.967L466.166 460.468L465.986 329.433L469.999 327.428L470.179 459.967Z" fill="#A6A6A6"/>
<path d="M461.973 458.464L465.986 460.469V330.435L461.973 328.43V458.464Z" fill="#3B3B3B"/>
<path d="M296.61 371.737L292.597 373.742L292.418 247.219L296.431 249.224L296.61 371.737Z" fill="#A6A6A6"/>
<path d="M288.584 371.737L292.597 373.742L292.417 243.208L288.404 241.203L288.584 371.737Z" fill="#3B3B3B"/>
<path d="M469.999 327.427L465.986 329.432L288.404 241.203L292.417 239.197L469.999 327.427Z" fill="#676767"/>
<path d="M465.985 333.443L465.986 329.433L292.385 243.208L292.385 247.218L465.985 333.443Z" fill="#3B3B3B"/>
<path d="M466.165 460.468L466.165 456.458L288.584 367.727L288.584 371.737L466.165 460.468Z" fill="#3B3B3B"/>
<path d="M462.151 450.442L462.151 454.452L292.597 369.732L296.61 367.727L462.151 450.442Z" fill="#676767"/>
</svg>
