<svg width="1000" height="1000" viewBox="0 0 1000 1000" fill="none" xmlns="http://www.w3.org/2000/svg">
<path d="M1000 650L500 900L0 650L500 400L1000 650Z" fill="#333333"/>
<path d="M500 900V1000L0 750V650L500 900Z" fill="black"/>
<path d="M500 900V1000L1000 750V650L500 900Z" fill="#555555"/>
<path d="M676.871 718L500 805.441L323.128 718L500 630.558L676.871 718Z" fill="#A7A7A7" stroke="black"/>
<path d="M500 589L374 526V244L500 307V589Z" fill="#E67070"/>
<path d="M626 244L500 307V589L626 526V244Z" fill="#CA2B2B"/>
<path d="M626 244L500 181L374 244L500 307L626 244Z" fill="#F04949"/>
<path d="M622 245L620 244V211L622 210V245Z" fill="#A6A6A6"/>
<path d="M622 210L624 211V244L622 245V210Z" fill="#3B3B3B"/>
<path d="M500 184L498 183V150L500 149V184Z" fill="#A6A6A6"/>
<path d="M500 149L502 150V183L500 184V149Z" fill="#3B3B3B"/>
<path d="M532 200L530 199V166L532 165V200Z" fill="#A6A6A6"/>
<path d="M532 165L534 166V199L532 200V165Z" fill="#3B3B3B"/>
<path d="M592 230L590 229V196L592 195V230Z" fill="#A6A6A6"/>
<path d="M592 195L594 196V229L592 230V195Z" fill="#3B3B3B"/>
<path d="M562 215L560 214V181L562 180V215Z" fill="#A6A6A6"/>
<path d="M562 180L564 181V214L562 215V180Z" fill="#3B3B3B"/>
<path d="M622 212L498 150L500 149L624 211L622 212Z" fill="#676767"/>
<path d="M498 150V152L622 214V212L498 150Z" fill="#A6A6A6"/>
<path d="M378 245L376 244V211L378 210V245Z" fill="#A6A6A6"/>
<path d="M378 210L380 211V244L378 245V210Z" fill="#3B3B3B"/>
<path d="M410 229L408 228V195L410 194V229Z" fill="#A6A6A6"/>
<path d="M410 194L412 195V228L410 229V194Z" fill="#3B3B3B"/>
<path d="M440 214L438 213V180L440 179V214Z" fill="#A6A6A6"/>
<path d="M440 179L442 180V213L440 214V179Z" fill="#3B3B3B"/>
<path d="M470 199L468 198V165L470 164V199Z" fill="#A6A6A6"/>
<path d="M470 164L472 165V198L470 199V164Z" fill="#3B3B3B"/>
<path d="M498 150L500 151L378 212L376 211L498 150Z" fill="#676767"/>
<path d="M500 153V151L378 212V214L500 153Z" fill="#3B3B3B"/>
<path d="M500 306L498 305V272L500 271V306Z" fill="#A6A6A6"/>
<path d="M500 271L502 272V305L500 306V271Z" fill="#3B3B3B"/>
<path d="M440 276L438 275V242L440 241V276Z" fill="#A6A6A6"/>
<path d="M440 241L442 242V275L440 276V241Z" fill="#3B3B3B"/>
<path d="M470 291L468 290V257L470 256V291Z" fill="#A6A6A6"/>
<path d="M470 256L472 257V290L470 291V256Z" fill="#3B3B3B"/>
<path d="M410 261L408 260V227L410 226V261Z" fill="#A6A6A6"/>
<path d="M410 226L412 227V260L410 261V226Z" fill="#3B3B3B"/>
<path d="M378 212L380 211L502 272L500 273L378 212Z" fill="#676767"/>
<path d="M378 214V212L500 273V275L378 214Z" fill="#A6A6A6"/>
<path d="M592 260L590 259V226L592 225V260Z" fill="#A6A6A6"/>
<path d="M592 225L594 226V259L592 260V225Z" fill="#3B3B3B"/>
<path d="M562 275L560 274V241L562 240V275Z" fill="#A6A6A6"/>
<path d="M562 240L564 241V274L562 275V240Z" fill="#3B3B3B"/>
<path d="M532 290L530 289V256L532 255V290Z" fill="#A6A6A6"/>
<path d="M532 255L534 256V289L532 290V255Z" fill="#3B3B3B"/>
<path d="M594 226L500 273L498 272L592 225L594 226Z" fill="#676767"/>
<path d="M594 228V226L500 273V275.5L594 228Z" fill="#3B3B3B"/>
<path d="M752 573L878 510V651L752 714V573Z" fill="#CA2B2B"/>
<path d="M752 573L500 447V589L752 714V573Z" fill="#E67070"/>
<path d="M878 510L626 384L500 447L752 573L878 510Z" fill="#F04949"/>
<path d="M814 532L856 511L802 484V526L814 532Z" fill="#E67070"/>
<path d="M802 538V484L694 538L748 565L802 538Z" fill="#CA2B2B"/>
<path d="M789 525.5L791 526.5L782.5 547.5H780.5L789 525.5Z" fill="#676767"/>
<path d="M791 525.5L793 526.5L785 546.5H783L791 525.5Z" fill="#3B3B3B"/>
<path d="M770 536L754 544L772 553L788 545L770 536Z" fill="#CCCCCC"/>
<path d="M768 555L772 553L754 544V548L768 555Z" fill="white"/>
<path d="M834 522V518.5L802 534.5V538L834 522Z" fill="#676767"/>
<path d="M802 538V534.5L770 518.5V522.5L802 538Z" fill="white"/>
<path d="M770 518.5L802 502.5L834 518.5L802 534.5L770 518.5Z" fill="#CCCCCC"/>
<path d="M644.799 575.193V661.481L588.799 633.355V547.193L644.799 575.193Z" fill="#7B4C00"/>
<path d="M652.799 665.51L648.799 663.502V573.193L652.799 571.193V665.51Z" fill="#3B3B3B"/>
<path d="M644.799 661.49L648.799 663.506V573.193L644.799 571.193V661.49Z" fill="#A6A6A6"/>
<path d="M588.799 633.357L584.799 631.343V544.193L588.799 546.193V633.357Z" fill="#3B3B3B"/>
<path d="M580.799 629.346L584.799 631.361V544.193L580.799 542.193V629.346Z" fill="#A6A6A6"/>
<path d="M652.799 571.195L648.799 573.195L580.798 539.194L584.798 537.194L652.799 571.195Z" fill="#676767"/>
<path d="M644.799 575.194L644.799 571.194L580.799 539.194L580.799 543.194L644.799 575.194Z" fill="#A6A6A6"/>
<path d="M579 336L581 337L572 360L570 359L579 336Z" fill="#A6A6A6"/>
<path d="M581 336L583 337L574 360L572 359L581 336Z" fill="#3B3B3B"/>
<path d="M564 360L566 361L557 384L555 383L564 360Z" fill="#A6A6A6"/>
<path d="M566 360L568 361L559 384L557 383L566 360Z" fill="#3B3B3B"/>
<path d="M596 308L598 309L589 332L587 331L596 308Z" fill="#A6A6A6"/>
<path d="M598 308L600 309L591 332L589 331L598 308Z" fill="#3B3B3B"/>
<path d="M548 384L550 385L541 408L539 407L548 384Z" fill="#A6A6A6"/>
<path d="M550 384L552 385L543 408L541 407L550 384Z" fill="#3B3B3B"/>
<path d="M543 420L541 421L550 444L552 443L543 420Z" fill="#3B3B3B"/>
<path d="M541 420L539 421L548 444L550 443L541 420Z" fill="#A6A6A6"/>
<path d="M613 281L615 282L606 305L604 304L613 281Z" fill="#A6A6A6"/>
<path d="M615 281L617 282L608 305L606 304L615 281Z" fill="#3B3B3B"/>
<path d="M563 460L561 459V443H563V460Z" fill="#A6A6A6"/>
<path d="M563 442L565 443V459L563 460V442Z" fill="#3B3B3B"/>
<path d="M594 346V342L562 326V330L594 346Z" fill="white"/>
<path d="M578 318L562 326L594 342L610 334L578 318Z" fill="#CCCCCC"/>
<path d="M610 338V334L594 342V346L610 338Z" fill="#676767"/>
<path d="M578 372V368L546 352V356L578 372Z" fill="white"/>
<path d="M562 344L546 352L578 368L594 360L562 344Z" fill="#CCCCCC"/>
<path d="M594 364V360L578 368V372L594 364Z" fill="#676767"/>
<path d="M562 398V394L530 378V382L562 398Z" fill="white"/>
<path d="M546 370L530 378L562 394L578 386L546 370Z" fill="#CCCCCC"/>
<path d="M578 390V386L562 394V398L578 390Z" fill="#676767"/>
<path d="M500 411L532 427L562 412L530 396L500 411Z" fill="#CCCCCC"/>
<path d="M532 431V427L500 411V415L532 431Z" fill="white"/>
<path d="M562 416V412L532 427V431L562 416Z" fill="#676767"/>
<path d="M532 449L548 457V453L532 445V449Z" fill="white"/>
<path d="M564 429L580 437L548 453L532 445L564 429Z" fill="#CCCCCC"/>
<path d="M580 441V437L548 453V457L580 441Z" fill="#676767"/>
<path d="M610 320V316L578 300V304L610 320Z" fill="white"/>
<path d="M594 292L578 300L610 316L626 308L594 292Z" fill="#CCCCCC"/>
<path d="M626 312V308L610 316V320L626 312Z" fill="#676767"/>
<path d="M658 278V274L626 290V294L658 278Z" fill="#676767"/>
<path d="M626 294V290L594 274V278L626 294Z" fill="white"/>
<path d="M594 274L626 258L658 274L626 290L594 274Z" fill="#CCCCCC"/>
<path d="M504 412L502 411V378L504 377V412Z" fill="#A6A6A6"/>
<path d="M504 377L506 378V411L504 412V377Z" fill="#3B3B3B"/>
<path d="M532 426L530 425V392L532 391V426Z" fill="#A6A6A6"/>
<path d="M532 391L534 392V425L532 426V391Z" fill="#3B3B3B"/>
<path d="M552 473L550 472V439L552 438V473Z" fill="#A6A6A6"/>
<path d="M552 438L554 439V472L552 473V438Z" fill="#3B3B3B"/>
<path d="M554 439L534 392L532 393L552 440L554 439Z" fill="#3B3B3B"/>
<path d="M532 397V393L552 440L550 439L532 397Z" fill="#A6A6A6"/>
<path d="M532 393L534 392L502 376L500 377L532 393Z" fill="#676767"/>
<path d="M532 393V395L500 379V377L532 393Z" fill="#A6A6A6"/>
<path d="M558 413L556 412V379L558 378V413Z" fill="#A6A6A6"/>
<path d="M558 378L560 379V412L558 413V378Z" fill="#3B3B3B"/>
<path d="M574 387L572 386V353L574 352V387Z" fill="#A6A6A6"/>
<path d="M574 352L576 353V386L574 387V352Z" fill="#3B3B3B"/>
<path d="M590 361L588 360V327L590 326V361Z" fill="#A6A6A6"/>
<path d="M590 326L592 327V360L590 361V326Z" fill="#3B3B3B"/>
<path d="M606 335L604 334V301L606 300V335Z" fill="#A6A6A6"/>
<path d="M606 300L608 301V334L606 335V300Z" fill="#3B3B3B"/>
<path d="M622 309L620 308V275L622 274V309Z" fill="#A6A6A6"/>
<path d="M622 274L624 275V308L622 309V274Z" fill="#3B3B3B"/>
<path d="M638 284L636 283V250L638 249V284Z" fill="#A6A6A6"/>
<path d="M638 249L640 250V283L638 284V249Z" fill="#3B3B3B"/>
<path d="M654 275L652 274V241L654 240V275Z" fill="#A6A6A6"/>
<path d="M654 240L656 241V274L654 275V240Z" fill="#3B3B3B"/>
<path d="M638 268L636 267V234L638 233V268Z" fill="#A6A6A6"/>
<path d="M638 233L640 234V267L638 268V233Z" fill="#3B3B3B"/>
<path d="M576 461L574 460V427L576 426V461Z" fill="#A6A6A6"/>
<path d="M576 426L578 427V460L576 461V426Z" fill="#3B3B3B"/>
<path d="M654 242L656 241L624 226L622 227L654 242Z" fill="#676767"/>
<path d="M622 229V227L654 242V244L622 229Z" fill="#A6A6A6"/>
<path d="M638 250L656 241L654 240L636 249L638 250Z" fill="#676767"/>
<path d="M654 244V242L638 250V252L654 244Z" fill="#3B3B3B"/>
<path d="M556 379L636 249L638 250L558 380L556 379Z" fill="#676767"/>
<path d="M638 254V250L558 380V384L638 254Z" fill="#3B3B3B"/>
<path d="M558 380L560 379L578 427L576 428L558 380Z" fill="#3B3B3B"/>
<path d="M558 384V380L576 428H574L558 384Z" fill="#A6A6A6"/>
<path d="M248 573L122 510V651L248 714V573Z" fill="#E67070"/>
<path d="M248 573L500 447V589L248 714V573Z" fill="#CA2B2B"/>
<path d="M122 510L374 384L500 447L248 573L122 510Z" fill="#F04949"/>
<path d="M286.625 594.195L460.625 507.195V580.195L286.625 667.195V594.195Z" fill="#CAFFFF"/>
<path d="M286.626 667.194L286.626 671.194L464.626 582.194L460.626 580.194L286.626 667.194Z" fill="#676767"/>
<path d="M286.626 675.194L286.626 671.194L464.626 582.195L464.625 586.195L286.626 675.194Z" fill="#3B3B3B"/>
<path d="M278.626 675.193L282.626 677.193V592.193L278.626 590.193V675.193Z" fill="#A6A6A6"/>
<path d="M286.626 675.193L282.626 677.193V592.193L286.626 590.193V675.193Z" fill="#3B3B3B"/>
<path d="M460.626 580.193L464.626 582.193V501.193L460.626 503.193V580.193Z" fill="#A6A6A6"/>
<path d="M468.626 584.193L464.626 586.193V501.193L468.626 499.193V584.193Z" fill="#3B3B3B"/>
<path d="M278.626 590.194L282.626 592.194L468.626 499.194L464.626 497.194L278.626 590.194Z" fill="#676767"/>
<path d="M286.626 594.195L286.626 590.195L464.626 501.195L464.626 505.195L286.626 594.195Z" fill="#3B3B3B"/>
<path d="M260.397 509.196L264.397 511.196V478.195L260.397 476.195V509.196Z" fill="#A6A6A6"/>
<path d="M268.397 509.196L264.397 511.196V478.195L268.397 476.195V509.196Z" fill="#3B3B3B"/>
<path d="M368.397 455.196L372.397 457.196V424.195L368.397 422.195V455.196Z" fill="#A6A6A6"/>
<path d="M376.397 455.196L372.397 457.196V424.195L376.397 422.195V455.196Z" fill="#3B3B3B"/>
<path d="M227.397 488.695V422.195L392.397 340.195V406.195L227.397 488.695Z" fill="#D9D9D9"/>
<path d="M219.397 498.195L223.397 498.695V420.195L219.397 418.195V498.195Z" fill="#A6A6A6"/>
<path d="M227.397 496.695L223.397 498.695V419.195L227.397 417.195V496.695Z" fill="#3B3B3B"/>
<path d="M392.397 410.195L396.397 412.195V334.195L392.397 336.195V410.195Z" fill="#A6A6A6"/>
<path d="M400.397 410.195L396.397 412.195V334.195L400.397 332.195V410.195Z" fill="#3B3B3B"/>
<path d="M219.397 418.194L223.397 420.194L400.397 332.194L396.397 330.194L219.397 418.194Z" fill="#676767"/>
<path d="M223.398 424.194L223.398 420.194L396.398 334.194L396.398 338.194L223.398 424.194Z" fill="#3B3B3B"/>
<path d="M223.397 498.694L223.397 494.694L400.397 406.194L400.397 410.194L223.397 498.694Z" fill="#3B3B3B"/>
<path d="M227.398 488.694L227.397 492.694L396.397 408.194L392.397 406.194L227.398 488.694Z" fill="#676767"/>
</svg>
