<svg width="1000" height="1000" viewBox="0 0 1000 1000" fill="none" xmlns="http://www.w3.org/2000/svg">
<path d="M1000 650L500 900L0 650L500 400L1000 650Z" fill="#333333"/>
<path d="M500 900V1000L0 750V650L500 900Z" fill="black"/>
<path d="M500 900V1000L1000 750V650L500 900Z" fill="#555555"/>
<path d="M870 513L618 639L240 450L492 324L870 513Z" fill="#F04949"/>
<path d="M870 654L618 780V639L870 513V654Z" fill="#E67070"/>
<path d="M240 450V591L618 780V639L240 450Z" fill="#CA2B2B"/>
<path d="M456.773 612.342V698.957L400.795 670.724V584.236L456.773 612.342Z" fill="#7B4C00"/>
<path d="M464.771 702.999L460.772 700.984V610.334L464.771 608.326V702.999Z" fill="#A6A6A6"/>
<path d="M456.773 698.965L460.772 700.988V610.334L456.773 608.326V698.965Z" fill="#3B3B3B"/>
<path d="M400.795 670.726L396.796 668.704V581.225L400.795 583.232V670.726Z" fill="#A6A6A6"/>
<path d="M392.798 666.699L396.796 668.722V581.224L392.798 579.217V666.699Z" fill="#3B3B3B"/>
<path d="M464.771 608.328L460.773 610.336L392.798 576.206L396.796 574.199L464.771 608.328Z" fill="#676767"/>
<path d="M456.774 612.342L456.773 608.326L392.798 576.205L392.798 580.221L456.774 612.342Z" fill="#3B3B3B"/>
<path d="M257 734.5L392 667L466 704L405 734.5L619 841.5L545 878.5L257 734.5Z" fill="#CFC909"/>
<path d="M616 781L900 639L870 624V638L616 765L464 688L448 697L616 781Z" fill="#309C15"/>
<path d="M900 655V639L616 781V797L900 655Z" fill="#28C900"/>
<path d="M448 713V697L616 781V797L448 713Z" fill="#2E6820"/>
<path d="M209 577L240 561.5V576L392 652L375 660L209 577Z" fill="#309C15"/>
<path d="M209 576.5L240 561V575.5L392 652L376 661L209 576.5Z" fill="#309C15"/>
<path d="M376 675V661L392 652V667L376 675Z" fill="#28C900"/>
<path d="M209 593V576.5L376 661V675L209 593Z" fill="#2E6820"/>
<path d="M269 561V520L353 562V603L269 561Z" fill="#CAFFFF"/>
<path d="M269 561L265 563V518L269 520V561Z" fill="#A6A6A6"/>
<path d="M361 611L357 613V556L361 558V611Z" fill="#A6A6A6"/>
<path d="M265 510L261 512L357 560L361 558L265 510Z" fill="#676767"/>
<path d="M269 561L265 563L353 607V603L269 561Z" fill="#676767"/>
<path fill-rule="evenodd" clip-rule="evenodd" d="M261 565V512L357 560V613L261 565ZM265 518V563L353 607V562L265 518Z" fill="#3B3B3B"/>
<path d="M505 678V637L589 679V720L505 678Z" fill="#CAFFFF"/>
<path d="M505 678L501 680V635L505 637V678Z" fill="#A6A6A6"/>
<path d="M597 728L593 730V673L597 675V728Z" fill="#A6A6A6"/>
<path d="M501 627L497 629L593 677L597 675L501 627Z" fill="#676767"/>
<path d="M505 678L501 680L589 724V720L505 678Z" fill="#676767"/>
<path fill-rule="evenodd" clip-rule="evenodd" d="M497 682V629L593 677V730L497 682ZM501 635V680L589 724V679L501 635Z" fill="#3B3B3B"/>
<path d="M513.179 572.196L509.179 574.196V541.195L513.179 539.195V572.196Z" fill="#A6A6A6"/>
<path d="M505.179 572.196L509.179 574.196V541.195L505.179 539.195V572.196Z" fill="#3B3B3B"/>
<path d="M405.179 518.196L401.179 520.196V487.195L405.179 485.195V518.196Z" fill="#A6A6A6"/>
<path d="M397.179 518.196L401.179 520.196V487.195L397.179 485.195V518.196Z" fill="#3B3B3B"/>
<path d="M546.179 551.695V485.195L381.179 403.195V469.195L546.179 551.695Z" fill="#D9D9D9"/>
<path d="M554.179 561.195L550.179 561.695V483.195L554.179 481.195V561.195Z" fill="#A6A6A6"/>
<path d="M546.179 559.695L550.179 561.695V482.195L546.179 480.195V559.695Z" fill="#3B3B3B"/>
<path d="M381.179 473.195L377.179 475.195V397.195L381.179 399.195V473.195Z" fill="#A6A6A6"/>
<path d="M373.179 473.195L377.179 475.195V397.195L373.179 395.195V473.195Z" fill="#3B3B3B"/>
<path d="M554.179 481.194L550.179 483.194L373.179 395.194L377.179 393.194L554.179 481.194Z" fill="#676767"/>
<path d="M550.178 487.194L550.178 483.194L377.178 397.194L377.178 401.194L550.178 487.194Z" fill="#3B3B3B"/>
<path d="M550.179 561.694L550.179 557.694L373.179 469.194L373.179 473.194L550.179 561.694Z" fill="#3B3B3B"/>
<path d="M546.179 551.694L546.179 555.694L377.179 471.194L381.179 469.194L546.179 551.694Z" fill="#676767"/>
<path d="M256 490L108 564V460L256 386V490Z" fill="#D9D9D9"/>
<path d="M104 458L100 456L260 376L264 378L104 458Z" fill="#676767"/>
<path d="M108 568V564L256 490L260 492L108 568Z" fill="#676767"/>
<path d="M104 458L100 456V572L104 574.091V458Z" fill="#3B3B3B"/>
<path d="M260 384L256 385.999V489.999L260 491.999V384Z" fill="#3B3B3B"/>
<path d="M182 535L178 537V670.909L182 673V535Z" fill="#3B3B3B"/>
<path fill-rule="evenodd" clip-rule="evenodd" d="M264 378V494.182L186 533V671L182 673V535L104 574V458L264 378ZM260 492V384L108 460V568L260 492Z" fill="#A6A6A6"/>
</svg>
