<svg width="1000" height="1000" viewBox="0 0 1000 1000" fill="none" xmlns="http://www.w3.org/2000/svg">
<path d="M1000 650L500 900L0 650L500 400L1000 650Z" fill="#333333"/>
<path d="M500 900V1000L0 750V650L500 900Z" fill="black"/>
<path d="M500 900V1000L1000 750V650L500 900Z" fill="#555555"/>
<path d="M304 463L308 465V589L304 587V463Z" fill="#A6A6A6"/>
<path d="M312 467L308 465V589L312 587V467Z" fill="#3B3B3B"/>
<path d="M430 509V526L304 463V446L430 509Z" fill="#3B3B3B"/>
<path d="M430 509V383L304 446L430 509Z" fill="#676767"/>
<path d="M430 331L490 301.033V392.033L430 422V331Z" fill="#380BFF"/>
<path d="M430 330.999V421.999L370 392.033V301.033L430 330.999Z" fill="#1B0E55"/>
<path d="M490 301L430 331L370 301L430 271L490 301Z" fill="#1D009E"/>
<path d="M430 308.923V331L490 301L468 290L430 308.923Z" fill="white" fill-opacity="0.1"/>
<path d="M430 308.923V331L370 301L392 290L430 308.923Z" fill="black" fill-opacity="0.1"/>
<path d="M490 323L430 353V371L490 341V323Z" fill="#FFF700"/>
<path d="M370 323L430 353V371L370 341V323Z" fill="#C2B202"/>
<path d="M490 356L430 386V404L490 374V356Z" fill="#FFF700"/>
<path d="M370 356L430 386V404L370 374V356Z" fill="#C2B202"/>
<path d="M428 475V421L430 422V476L428 475Z" fill="#3B3B3B"/>
<path d="M432 475V421L430 422V476L432 475Z" fill="#A7A7A7"/>
<path d="M486 446V394L488 393V447L486 446Z" fill="#3B3B3B"/>
<path d="M490 446V392L488 393V447L490 446Z" fill="#A7A7A7"/>
<path d="M370 446V392L372 393V447L370 446Z" fill="#3B3B3B"/>
<path d="M374 446V394L372 393V447L374 446Z" fill="#A7A7A7"/>
<path d="M682 494L934 368V650L682 776V494Z" fill="#E67070"/>
<path d="M682 493.999V776L430 650V368L682 493.999Z" fill="#CA2B2B"/>
<path d="M934 368L682 494L430 368L682 242L934 368Z" fill="#F04949"/>
<path d="M594 605V732L518 694V567L594 605Z" fill="#D9D9D9"/>
<path d="M598 734L602 736V601L598 603V734Z" fill="#A6A6A6"/>
<path d="M514 692L518 694V559L514 561V692Z" fill="#A6A6A6"/>
<path d="M514 557L602 601L598 603L510 559L514 557Z" fill="#676767"/>
<path d="M594 732L598 734V603L510 559V690L514 692V565L594 605V732Z" fill="#3B3B3B"/>
<path d="M916 586V545L832 587V628L916 586Z" fill="#CAFFFF"/>
<path d="M916 586L920 588V543L916 545V586Z" fill="#3B3B3B"/>
<path d="M824 636L828 638V581L824 583V636Z" fill="#3B3B3B"/>
<path d="M920 535L924 537L828 585L824 583L920 535Z" fill="#676767"/>
<path d="M916 586L920 588L832 632V628L916 586Z" fill="#676767"/>
<path fill-rule="evenodd" clip-rule="evenodd" d="M924 590V537L828 585V638L924 590ZM920 543V588L832 632V587L920 543Z" fill="#A6A6A6"/>
<path d="M785 651V610L701 652V693L785 651Z" fill="#CAFFFF"/>
<path d="M785 651L789 653V608L785 610V651Z" fill="#3B3B3B"/>
<path d="M693 701L697 703V646L693 648V701Z" fill="#3B3B3B"/>
<path d="M789 600L793 602L697 650L693 648L789 600Z" fill="#676767"/>
<path d="M785 651L789 653L701 697V693L785 651Z" fill="#676767"/>
<path fill-rule="evenodd" clip-rule="evenodd" d="M793 655V602L697 650V703L793 655ZM789 608V653L701 697V652L789 608Z" fill="#A6A6A6"/>
<path d="M646.152 612.44L645.973 493.436L480.431 411.223L480.61 529.725L646.152 612.44Z" fill="#D9D9D9"/>
<path d="M654.18 621.967L650.167 622.468L649.987 491.433L654 489.428L654.18 621.967Z" fill="#A6A6A6"/>
<path d="M645.975 620.464L649.988 622.469V492.435L645.975 490.43V620.464Z" fill="#3B3B3B"/>
<path d="M480.611 533.737L476.598 535.742L476.419 409.219L480.432 411.224L480.611 533.737Z" fill="#A6A6A6"/>
<path d="M472.586 533.737L476.599 535.742L476.419 405.208L472.406 403.203L472.586 533.737Z" fill="#3B3B3B"/>
<path d="M654 489.427L649.987 491.432L472.405 403.203L476.418 401.197L654 489.427Z" fill="#676767"/>
<path d="M649.986 495.443L649.986 491.433L476.386 405.208L476.386 409.218L649.986 495.443Z" fill="#3B3B3B"/>
<path d="M650.166 622.468L650.166 618.458L472.585 529.727L472.585 533.737L650.166 622.468Z" fill="#3B3B3B"/>
<path d="M646.153 612.442L646.153 616.452L476.599 531.732L480.612 529.727L646.153 612.442Z" fill="#676767"/>
<path d="M684 217L744 187.033V278.033L684 308V217Z" fill="#380BFF"/>
<path d="M684 216.999V307.999L624 278.033V187.033L684 216.999Z" fill="#1B0E55"/>
<path d="M744 187L684 217L624 187L684 157L744 187Z" fill="#1D009E"/>
<path d="M684 194.923V217L744 187L722 176L684 194.923Z" fill="white" fill-opacity="0.1"/>
<path d="M684 194.923V217L624 187L646 176L684 194.923Z" fill="black" fill-opacity="0.1"/>
<path d="M744 209L684 239V257L744 227V209Z" fill="#FFF700"/>
<path d="M624 209L684 239V257L624 227V209Z" fill="#C2B202"/>
<path d="M744 242L684 272V290L744 260V242Z" fill="#FFF700"/>
<path d="M624 242L684 272V290L624 260V242Z" fill="#C2B202"/>
<path d="M682 361V307L684 308V362L682 361Z" fill="#3B3B3B"/>
<path d="M686 361V307L684 308V362L686 361Z" fill="#A7A7A7"/>
<path d="M740 332V280L742 279V333L740 332Z" fill="#3B3B3B"/>
<path d="M744 332V278L742 279V333L744 332Z" fill="#A7A7A7"/>
<path d="M624 332V278L626 279V333L624 332Z" fill="#3B3B3B"/>
<path d="M628 332V280L626 279V333L628 332Z" fill="#A7A7A7"/>
<path d="M804 256L864 226.033V317.033L804 347V256Z" fill="#380BFF"/>
<path d="M804 255.999V346.999L744 317.033V226.033L804 255.999Z" fill="#1B0E55"/>
<path d="M864 226L804 256L744 226L804 196L864 226Z" fill="#1D009E"/>
<path d="M804 233.923V256L864 226L842 215L804 233.923Z" fill="white" fill-opacity="0.1"/>
<path d="M804 233.923V256L744 226L766 215L804 233.923Z" fill="black" fill-opacity="0.1"/>
<path d="M864 248L804 278V296L864 266V248Z" fill="#FFF700"/>
<path d="M744 248L804 278V296L744 266V248Z" fill="#C2B202"/>
<path d="M864 281L804 311V329L864 299V281Z" fill="#FFF700"/>
<path d="M744 281L804 311V329L744 299V281Z" fill="#C2B202"/>
<path d="M802 400V346L804 347V401L802 400Z" fill="#3B3B3B"/>
<path d="M806 400V346L804 347V401L806 400Z" fill="#A7A7A7"/>
<path d="M860 371V319L862 318V372L860 371Z" fill="#3B3B3B"/>
<path d="M864 371V317L862 318V372L864 371Z" fill="#A7A7A7"/>
<path d="M744 371V317L746 318V372L744 371Z" fill="#3B3B3B"/>
<path d="M748 371V319L746 318V372L748 371Z" fill="#A7A7A7"/>
<path d="M575 269L635 239.033V330.033L575 360V269Z" fill="#380BFF"/>
<path d="M575 268.999V359.999L515 330.033V239.033L575 268.999Z" fill="#1B0E55"/>
<path d="M635 239L575 269L515 239L575 209L635 239Z" fill="#1D009E"/>
<path d="M575 246.923V269L635 239L613 228L575 246.923Z" fill="white" fill-opacity="0.1"/>
<path d="M575 246.923V269L515 239L537 228L575 246.923Z" fill="black" fill-opacity="0.1"/>
<path d="M635 261L575 291V309L635 279V261Z" fill="#FFF700"/>
<path d="M515 261L575 291V309L515 279V261Z" fill="#C2B202"/>
<path d="M635 294L575 324V342L635 312V294Z" fill="#FFF700"/>
<path d="M515 294L575 324V342L515 312V294Z" fill="#C2B202"/>
<path d="M573 413V359L575 360V414L573 413Z" fill="#3B3B3B"/>
<path d="M577 413V359L575 360V414L577 413Z" fill="#A7A7A7"/>
<path d="M631 384V332L633 331V385L631 384Z" fill="#3B3B3B"/>
<path d="M635 384V330L633 331V385L635 384Z" fill="#A7A7A7"/>
<path d="M515 384V330L517 331V385L515 384Z" fill="#3B3B3B"/>
<path d="M519 384V332L517 331V385L519 384Z" fill="#A7A7A7"/>
<path d="M684 327L744 297.033V388.033L684 418V327Z" fill="#380BFF"/>
<path d="M684 326.999V417.999L624 388.033V297.033L684 326.999Z" fill="#1B0E55"/>
<path d="M744 297L684 327L624 297L684 267L744 297Z" fill="#1D009E"/>
<path d="M684 304.923V327L744 297L722 286L684 304.923Z" fill="white" fill-opacity="0.1"/>
<path d="M684 304.923V327L624 297L646 286L684 304.923Z" fill="black" fill-opacity="0.1"/>
<path d="M744 319L684 349V367L744 337V319Z" fill="#FFF700"/>
<path d="M624 319L684 349V367L624 337V319Z" fill="#C2B202"/>
<path d="M744 352L684 382V400L744 370V352Z" fill="#FFF700"/>
<path d="M624 352L684 382V400L624 370V352Z" fill="#C2B202"/>
<path d="M682 471V417L684 418V472L682 471Z" fill="#3B3B3B"/>
<path d="M686 471V417L684 418V472L686 471Z" fill="#A7A7A7"/>
<path d="M740 442V390L742 389V443L740 442Z" fill="#3B3B3B"/>
<path d="M744 442V388L742 389V443L744 442Z" fill="#A7A7A7"/>
<path d="M624 442V388L626 389V443L624 442Z" fill="#3B3B3B"/>
<path d="M628 442V390L626 389V443L628 442Z" fill="#A7A7A7"/>
<path d="M663 786L501 867L65 649L227 568L663 786Z" fill="#1D009E"/>
<path d="M227 659V568L663 786L572 831.5L227 659Z" fill="#1B0E55"/>
<path d="M227 659V568L65 649L156 694.5L227 659Z" fill="#380BFF"/>
</svg>
