<svg width="24" height="24" viewBox="0 0 24 24" fill="none" xmlns="http://www.w3.org/2000/svg">
<path d="M17.755 13.9999C18.3514 14.0004 18.9232 14.2377 19.3447 14.6596C19.7663 15.0815 20.003 15.6535 20.003 16.2499V17.1679C20.003 17.7409 19.824 18.2996 19.491 18.7659C17.945 20.9299 15.421 22.0009 12.001 22.0009C8.57903 22.0009 6.05603 20.9289 4.51403 18.7649C4.18215 18.2989 4.00388 17.741 4.00403 17.1689V16.2489C4.00429 15.6525 4.24133 15.0806 4.66304 14.6589C5.08475 14.2372 5.65664 14.0001 6.25303 13.9999H17.755ZM12 2.00488C12.6566 2.00488 13.3068 2.13421 13.9134 2.38548C14.5201 2.63676 15.0713 3.00506 15.5356 3.46935C15.9999 3.93364 16.3682 4.48484 16.6194 5.09147C16.8707 5.69809 17 6.34827 17 7.00488C17 7.66149 16.8707 8.31167 16.6194 8.9183C16.3682 9.52493 15.9999 10.0761 15.5356 10.5404C15.0713 11.0047 14.5201 11.373 13.9134 11.6243C13.3068 11.8756 12.6566 12.0049 12 12.0049C10.6739 12.0049 9.40218 11.4781 8.46449 10.5404C7.52681 9.60273 7.00003 8.33097 7.00003 7.00488C7.00003 5.6788 7.52681 4.40703 8.46449 3.46935C9.40218 2.53167 10.6739 2.00488 12 2.00488Z" fill="black"/>
</svg>
