<svg width="24" height="24" viewBox="0 0 24 24" fill="none" xmlns="http://www.w3.org/2000/svg">
<path d="M17.4 12.0004C18.8322 12.0004 20.2057 12.5693 21.2184 13.582C22.2311 14.5947 22.8 15.9682 22.8 17.4004C22.8 18.8326 22.2311 20.2061 21.2184 21.2188C20.2057 22.2315 18.8322 22.8004 17.4 22.8004C15.9679 22.8004 14.5943 22.2315 13.5816 21.2188C12.569 20.2061 12 18.8326 12 17.4004C12 15.9682 12.569 14.5947 13.5816 13.582C14.5943 12.5693 15.9679 12.0004 17.4 12.0004ZM12.3084 13.2004C11.3314 14.3818 10.7979 15.8674 10.8 17.4004C10.8 18.964 11.3448 20.4004 12.252 21.5308C11.7776 21.5772 11.2936 21.6004 10.8 21.6004C8.57402 21.6004 6.50042 21.1372 4.96202 20.1568C3.39962 19.1608 2.40002 17.6284 2.40002 15.6004C2.40002 14.2648 3.48362 13.2004 4.81082 13.2004H12.3084ZM17.4 19.0504C17.2011 19.0504 17.0103 19.1294 16.8697 19.2701C16.729 19.4107 16.65 19.6015 16.65 19.8004C16.65 19.9993 16.729 20.1901 16.8697 20.3307C17.0103 20.4714 17.2011 20.5504 17.4 20.5504C17.5989 20.5504 17.7897 20.4714 17.9304 20.3307C18.071 20.1901 18.15 19.9993 18.15 19.8004C18.15 19.6015 18.071 19.4107 17.9304 19.2701C17.7897 19.1294 17.5989 19.0504 17.4 19.0504ZM17.4 14.4004C17.2409 14.4004 17.0883 14.4636 16.9758 14.5761C16.8632 14.6886 16.8 14.8413 16.8 15.0004V17.4004C16.8 17.5595 16.8632 17.7121 16.9758 17.8247C17.0883 17.9372 17.2409 18.0004 17.4 18.0004C17.5592 18.0004 17.7118 17.9372 17.8243 17.8247C17.9368 17.7121 18 17.5595 18 17.4004V15.0004C18 14.8413 17.9368 14.6886 17.8243 14.5761C17.7118 14.4636 17.5592 14.4004 17.4 14.4004ZM10.8 2.40039C12.0731 2.40039 13.294 2.9061 14.1941 3.80628C15.0943 4.70645 15.6 5.92735 15.6 7.20039C15.6 8.47343 15.0943 9.69433 14.1941 10.5945C13.294 11.4947 12.0731 12.0004 10.8 12.0004C9.52698 12.0004 8.30609 11.4947 7.40591 10.5945C6.50574 9.69433 6.00002 8.47343 6.00002 7.20039C6.00002 5.92735 6.50574 4.70645 7.40591 3.80628C8.30609 2.9061 9.52698 2.40039 10.8 2.40039Z" fill="black"/>
</svg>
