<svg width="24" height="24" viewBox="0 0 24 24" fill="none" xmlns="http://www.w3.org/2000/svg">
<path d="M12 2.40039C10.7269 2.40039 9.50604 2.9061 8.60586 3.80628C7.70569 4.70645 7.19998 5.92735 7.19998 7.20039C7.19998 8.47343 7.70569 9.69433 8.60586 10.5945C9.50604 11.4947 10.7269 12.0004 12 12.0004C13.273 12.0004 14.4939 11.4947 15.3941 10.5945C16.2943 9.69433 16.8 8.47343 16.8 7.20039C16.8 5.92735 16.2943 4.70645 15.3941 3.80628C14.4939 2.9061 13.273 2.40039 12 2.40039ZM6.01078 13.2004C5.6947 13.199 5.38145 13.26 5.08902 13.38C4.79659 13.4999 4.53074 13.6765 4.30673 13.8995C4.08273 14.1225 3.90498 14.3876 3.78369 14.6794C3.66241 14.9713 3.59997 15.2843 3.59998 15.6004C3.59998 17.6296 4.59958 19.1596 6.16198 20.1568C7.41958 20.9584 9.03598 21.4144 10.8 21.5524V16.8004C10.8 16.1639 11.0528 15.5534 11.5029 15.1033C11.953 14.6532 12.5635 14.4004 13.2 14.4004H20.0784C19.8677 14.0356 19.5648 13.7326 19.1999 13.5219C18.8351 13.3113 18.4213 13.2004 18 13.2004H6.01078ZM22.8 17.4004V21.0004C22.8 21.4778 22.6103 21.9356 22.2728 22.2732C21.9352 22.6107 21.4774 22.8004 21 22.8004H13.8C13.3226 22.8004 12.8647 22.6107 12.5272 22.2732C12.1896 21.9356 12 21.4778 12 21.0004V17.4004C12 16.923 12.1896 16.4652 12.5272 16.1276C12.8647 15.79 13.3226 15.6004 13.8 15.6004H21C21.4774 15.6004 21.9352 15.79 22.2728 16.1276C22.6103 16.4652 22.8 16.923 22.8 17.4004ZM21.6 21.0004V19.8004C21.1226 19.8004 20.6648 19.99 20.3272 20.3276C19.9896 20.6652 19.8 21.123 19.8 21.6004H21C21 21.4413 21.0632 21.2886 21.1757 21.1761C21.2882 21.0636 21.4408 21.0004 21.6 21.0004ZM21.6 17.4004C21.4408 17.4004 21.2882 17.3372 21.1757 17.2247C21.0632 17.1121 21 16.9595 21 16.8004H19.8C19.8 17.2778 19.9896 17.7356 20.3272 18.0732C20.6648 18.4107 21.1226 18.6004 21.6 18.6004V17.4004ZM13.8 16.8004C13.8 16.9595 13.7368 17.1121 13.6242 17.2247C13.5117 17.3372 13.3591 17.4004 13.2 17.4004V18.6004C13.6774 18.6004 14.1352 18.4107 14.4728 18.0732C14.8103 17.7356 15 17.2778 15 16.8004H13.8ZM13.2 21.0004C13.3591 21.0004 13.5117 21.0636 13.6242 21.1761C13.7368 21.2886 13.8 21.4413 13.8 21.6004H15C15 21.123 14.8103 20.6652 14.4728 20.3276C14.1352 19.99 13.6774 19.8004 13.2 19.8004V21.0004ZM17.4 17.4004C16.9226 17.4004 16.4647 17.59 16.1272 17.9276C15.7896 18.2652 15.6 18.723 15.6 19.2004C15.6 19.6778 15.7896 20.1356 16.1272 20.4732C16.4647 20.8107 16.9226 21.0004 17.4 21.0004C17.8774 21.0004 18.3352 20.8107 18.6728 20.4732C19.0103 20.1356 19.2 19.6778 19.2 19.2004C19.2 18.723 19.0103 18.2652 18.6728 17.9276C18.3352 17.59 17.8774 17.4004 17.4 17.4004Z" fill="black"/>
</svg>
