<svg width="24" height="24" viewBox="0 0 24 24" fill="none" xmlns="http://www.w3.org/2000/svg">
<path d="M16.944 12.1744C17.0699 12.0632 17.2321 12.0018 17.4 12.0018C17.568 12.0018 17.7301 12.0632 17.856 12.1744C18.4656 12.7552 19.6368 13.6792 21.0768 13.8688C21.3636 13.906 21.6 14.1232 21.6 14.3944V16.9276C21.6 20.3332 18.2592 21.5692 17.5368 21.7972C17.4483 21.8257 17.353 21.8257 17.2644 21.7972C16.542 21.5692 13.2 20.3332 13.2 16.9276V14.3956C13.2 14.1232 13.4364 13.906 13.7244 13.8676C15.1632 13.6792 16.3344 12.7552 16.944 12.1744ZM12.588 13.2004C12.4061 13.342 12.2586 13.523 12.1568 13.7298C12.0549 13.9366 12.0013 14.1639 12 14.3944V16.9276C12 18.91 12.948 20.3104 14.01 21.2368C12.9583 21.4855 11.8807 21.6075 10.8 21.6004C8.57402 21.6004 6.50042 21.1372 4.96202 20.1568C3.39962 19.1608 2.40002 17.6284 2.40002 15.6004C2.40002 14.2648 3.48362 13.2004 4.81082 13.2004H12.588ZM10.8 2.40039C12.0731 2.40039 13.294 2.9061 14.1941 3.80628C15.0943 4.70645 15.6 5.92735 15.6 7.20039C15.6 8.47343 15.0943 9.69433 14.1941 10.5945C13.294 11.4947 12.0731 12.0004 10.8 12.0004C9.52699 12.0004 8.30609 11.4947 7.40591 10.5945C6.50574 9.69433 6.00002 8.47343 6.00002 7.20039C6.00002 5.92735 6.50574 4.70645 7.40591 3.80628C8.30609 2.9061 9.52699 2.40039 10.8 2.40039Z" fill="black"/>
</svg>
