<svg width="24" height="24" viewBox="0 0 24 24" fill="none" xmlns="http://www.w3.org/2000/svg">
<path d="M12.366 13.2004C12.1304 13.4708 12.0005 13.8173 12 14.176V14.4004H4.81082C4.13762 14.4004 3.60002 14.9368 3.60002 15.6004C3.60002 17.1712 4.34762 18.34 5.60762 19.144C6.89162 19.9636 8.71802 20.4004 10.8 20.4004C11.652 20.4004 12.4608 20.3248 13.2072 20.182C13.4988 20.5504 13.8228 20.8708 14.1552 21.1444L14.208 21.1852C13.1556 21.4636 12 21.6004 10.8 21.6004C8.57402 21.6004 6.50042 21.1372 4.96202 20.1568C3.39962 19.1608 2.40002 17.6284 2.40002 15.6004C2.40002 14.2648 3.48362 13.2004 4.81082 13.2004H12.366ZM16.9428 11.956C17.0689 11.8441 17.2315 11.7824 17.4 11.7824C17.5685 11.7824 17.7312 11.8441 17.8572 11.956C18.4668 12.5368 19.6368 13.4608 21.0768 13.6504C21.3636 13.6876 21.6 13.9048 21.6 14.176V16.708C21.6 20.116 18.2592 21.352 17.5368 21.58C17.4483 21.6085 17.353 21.6085 17.2644 21.58C16.542 21.352 13.2 20.116 13.2 16.708V14.176C13.2 13.9048 13.4364 13.6876 13.7244 13.6504C15.1632 13.4608 16.3332 12.5368 16.9428 11.956ZM10.8 2.40039C12.0731 2.40039 13.294 2.9061 14.1941 3.80628C15.0943 4.70645 15.6 5.92735 15.6 7.20039C15.6 8.47343 15.0943 9.69433 14.1941 10.5945C13.294 11.4947 12.0731 12.0004 10.8 12.0004C9.52699 12.0004 8.30609 11.4947 7.40591 10.5945C6.50574 9.69433 6.00002 8.47343 6.00002 7.20039C6.00002 5.92735 6.50574 4.70645 7.40591 3.80628C8.30609 2.9061 9.52699 2.40039 10.8 2.40039ZM10.8 3.60039C9.84525 3.60039 8.92957 3.97968 8.25444 4.65481C7.57931 5.32994 7.20002 6.24561 7.20002 7.20039C7.20002 8.15517 7.57931 9.07084 8.25444 9.74598C8.92957 10.4211 9.84525 10.8004 10.8 10.8004C11.7548 10.8004 12.6705 10.4211 13.3456 9.74598C14.0207 9.07084 14.4 8.15517 14.4 7.20039C14.4 6.24561 14.0207 5.32994 13.3456 4.65481C12.6705 3.97968 11.7548 3.60039 10.8 3.60039Z" fill="black"/>
</svg>
