<svg width="24" height="24" viewBox="0 0 24 24" fill="none" xmlns="http://www.w3.org/2000/svg">
<path d="M6.00002 7.20039C6.00002 5.92735 6.50574 4.70645 7.40591 3.80628C8.30609 2.9061 9.52698 2.40039 10.8 2.40039C12.0731 2.40039 13.294 2.9061 14.1941 3.80628C15.0943 4.70645 15.6 5.92735 15.6 7.20039C15.6 8.47343 15.0943 9.69433 14.1941 10.5945C13.294 11.4947 12.0731 12.0004 10.8 12.0004C9.52698 12.0004 8.30609 11.4947 7.40591 10.5945C6.50574 9.69433 6.00002 8.47343 6.00002 7.20039ZM10.8 3.60039C9.84524 3.60039 8.92957 3.97968 8.25444 4.65481C7.57931 5.32994 7.20002 6.24561 7.20002 7.20039C7.20002 8.15517 7.57931 9.07084 8.25444 9.74598C8.92957 10.4211 9.84524 10.8004 10.8 10.8004C11.7548 10.8004 12.6705 10.4211 13.3456 9.74598C14.0207 9.07084 14.4 8.15517 14.4 7.20039C14.4 6.24561 14.0207 5.32994 13.3456 4.65481C12.6705 3.97968 11.7548 3.60039 10.8 3.60039ZM2.40002 15.6004C2.40002 14.2648 3.48362 13.2004 4.81082 13.2004H12.3084C12.0028 13.5705 11.7384 13.9729 11.52 14.4004H4.81082C4.13762 14.4004 3.60002 14.9368 3.60002 15.6004C3.60002 17.1712 4.34642 18.3412 5.60762 19.144C6.89162 19.9636 8.71802 20.4004 10.8 20.4004C11.04 20.4004 11.2768 20.3944 11.5104 20.3824C11.7192 20.7928 11.9664 21.176 12.252 21.532C11.7776 21.5776 11.2936 21.6004 10.8 21.6004C8.57402 21.6004 6.50042 21.1372 4.96202 20.1568C3.39962 19.1608 2.40002 17.6284 2.40002 15.6004ZM22.8 17.4004C22.8 18.8326 22.2311 20.2061 21.2184 21.2188C20.2057 22.2315 18.8322 22.8004 17.4 22.8004C15.9679 22.8004 14.5943 22.2315 13.5816 21.2188C12.569 20.2061 12 18.8326 12 17.4004C12 15.9682 12.569 14.5947 13.5816 13.582C14.5943 12.5693 15.9679 12.0004 17.4 12.0004C18.8322 12.0004 20.2057 12.5693 21.2184 13.582C22.2311 14.5947 22.8 15.9682 22.8 17.4004ZM19.6248 16.0252C19.7375 15.9125 19.8008 15.7597 19.8008 15.6004C19.8008 15.4411 19.7375 15.2883 19.6248 15.1756C19.5122 15.0629 19.3594 14.9996 19.2 14.9996C19.0407 14.9996 18.8879 15.0629 18.7752 15.1756L17.4 16.552L16.0248 15.1756C15.9122 15.0629 15.7594 14.9996 15.6 14.9996C15.4407 14.9996 15.2879 15.0629 15.1752 15.1756C15.0626 15.2883 14.9993 15.4411 14.9993 15.6004C14.9993 15.7597 15.0626 15.9125 15.1752 16.0252L16.5516 17.4004L15.1752 18.7756C15.1194 18.8314 15.0752 18.8976 15.045 18.9705C15.0148 19.0434 14.9993 19.1215 14.9993 19.2004C14.9993 19.2793 15.0148 19.3574 15.045 19.4303C15.0752 19.5032 15.1194 19.5694 15.1752 19.6252C15.231 19.681 15.2972 19.7252 15.3701 19.7554C15.443 19.7856 15.5211 19.8011 15.6 19.8011C15.6789 19.8011 15.757 19.7856 15.8299 19.7554C15.9028 19.7252 15.969 19.681 16.0248 19.6252L17.4 18.2488L18.7752 19.6252C18.831 19.681 18.8972 19.7252 18.9701 19.7554C19.043 19.7856 19.1211 19.8011 19.2 19.8011C19.2789 19.8011 19.357 19.7856 19.4299 19.7554C19.5028 19.7252 19.569 19.681 19.6248 19.6252C19.6806 19.5694 19.7249 19.5032 19.7551 19.4303C19.7852 19.3574 19.8008 19.2793 19.8008 19.2004C19.8008 19.1215 19.7852 19.0434 19.7551 18.9705C19.7249 18.8976 19.6806 18.8314 19.6248 18.7756L18.2484 17.4004L19.6248 16.0252Z" fill="black"/>
</svg>
