<svg width="24" height="24" viewBox="0 0 24 24" fill="none" xmlns="http://www.w3.org/2000/svg">
<path d="M16.6032 12.3028C16.8228 12.1078 17.1063 12.0001 17.4 12.0001C17.6937 12.0001 17.9772 12.1078 18.1968 12.3028L22.3968 16.036C22.5234 16.1485 22.6249 16.2865 22.6944 16.441C22.7639 16.5955 22.7999 16.763 22.8 16.9324V22.2016C22.8 22.3607 22.7368 22.5133 22.6242 22.6259C22.5117 22.7384 22.3591 22.8016 22.2 22.8016H19.8C19.6408 22.8016 19.4882 22.7384 19.3757 22.6259C19.2632 22.5133 19.2 22.3607 19.2 22.2016V18.6016C19.2 18.4425 19.1368 18.2898 19.0242 18.1773C18.9117 18.0648 18.7591 18.0016 18.6 18.0016H16.2C16.0408 18.0016 15.8882 18.0648 15.7757 18.1773C15.6632 18.2898 15.6 18.4425 15.6 18.6016V22.2016C15.6 22.3607 15.5368 22.5133 15.4242 22.6259C15.3117 22.7384 15.1591 22.8016 15 22.8016H12.6C12.4408 22.8016 12.2882 22.7384 12.1757 22.6259C12.0632 22.5133 12 22.3607 12 22.2016V16.9336C11.9999 16.764 12.0358 16.5963 12.1053 16.4416C12.1748 16.2868 12.2764 16.1486 12.4032 16.036L16.6032 12.3028ZM12.4368 14.4004H6.01198C5.33758 14.4004 4.79998 14.9368 4.79998 15.6004C4.79998 17.1712 5.54638 18.34 6.80758 19.144C7.83958 19.8016 9.21958 20.212 10.8 20.3488V21.5524C9.03598 21.4132 7.41958 20.9584 6.16198 20.1568C4.59958 19.1608 3.59998 17.6284 3.59998 15.6004C3.59998 14.2648 4.68358 13.2004 6.01078 13.2004H13.7868L12.4368 14.4004ZM12 2.40039C13.273 2.40039 14.4939 2.9061 15.3941 3.80628C16.2943 4.70645 16.8 5.92735 16.8 7.20039C16.8 8.47343 16.2943 9.69433 15.3941 10.5945C14.4939 11.4947 13.273 12.0004 12 12.0004C10.7269 12.0004 9.50604 11.4947 8.60586 10.5945C7.70569 9.69433 7.19998 8.47343 7.19998 7.20039C7.19998 5.92735 7.70569 4.70645 8.60586 3.80628C9.50604 2.9061 10.7269 2.40039 12 2.40039ZM12 3.60039C11.0452 3.60039 10.1295 3.97968 9.45439 4.65481C8.77926 5.32994 8.39998 6.24561 8.39998 7.20039C8.39998 8.15517 8.77926 9.07084 9.45439 9.74598C10.1295 10.4211 11.0452 10.8004 12 10.8004C12.9548 10.8004 13.8704 10.4211 14.5456 9.74598C15.2207 9.07084 15.6 8.15517 15.6 7.20039C15.6 6.24561 15.2207 5.32994 14.5456 4.65481C13.8704 3.97968 12.9548 3.60039 12 3.60039Z" fill="black"/>
</svg>
