<svg width="24" height="24" viewBox="0 0 24 24" fill="none" xmlns="http://www.w3.org/2000/svg">
<path d="M8.50997 12.4801C8.31219 12.4801 8.11885 12.5387 7.9544 12.6486C7.78995 12.7585 7.66177 12.9147 7.58609 13.0974C7.5104 13.2801 7.4906 13.4812 7.52918 13.6752C7.56777 13.8691 7.66301 14.0473 7.80286 14.1872C7.94271 14.327 8.1209 14.4223 8.31488 14.4609C8.50886 14.4994 8.70992 14.4796 8.89265 14.4039C9.07538 14.3283 9.23155 14.2001 9.34144 14.0356C9.45132 13.8712 9.50997 13.6778 9.50997 13.4801C9.50997 13.2149 9.40461 12.9605 9.21707 12.773C9.02954 12.5854 8.77518 12.4801 8.50997 12.4801ZM8.50997 8.00007C8.31219 8.00007 8.11885 8.05872 7.9544 8.1686C7.78995 8.27848 7.66177 8.43466 7.58609 8.61738C7.5104 8.80011 7.4906 9.00118 7.52918 9.19516C7.56777 9.38914 7.66301 9.56732 7.80286 9.70717C7.94271 9.84703 8.1209 9.94227 8.31488 9.98085C8.50886 10.0194 8.70992 9.99964 8.89265 9.92395C9.07538 9.84826 9.23155 9.72009 9.34144 9.55564C9.45132 9.39119 9.50997 9.19785 9.50997 9.00007C9.50997 8.73485 9.40461 8.4805 9.21707 8.29296C9.02954 8.10543 8.77518 8.00007 8.50997 8.00007ZM12 10.0001C11.7348 10.0001 11.4804 10.1054 11.2929 10.293C11.1053 10.4805 11 10.7349 11 11.0001V12.0001C11 12.2653 11.1053 12.5196 11.2929 12.7072C11.4804 12.8947 11.7348 13.0001 12 13.0001C12.2652 13.0001 12.5195 12.8947 12.7071 12.7072C12.8946 12.5196 13 12.2653 13 12.0001V11.0001C13 10.7349 12.8946 10.4805 12.7071 10.293C12.5195 10.1054 12.2652 10.0001 12 10.0001ZM20.5 8.57007C20.155 8.37158 19.774 8.24372 19.3791 8.19393C18.9842 8.14414 18.5834 8.17342 18.2 8.28007C17.8009 8.38696 17.4293 8.57789 17.11 8.84007L5.50997 2.13007C5.35795 2.0423 5.1855 1.99609 5.00997 1.99609C4.83443 1.99609 4.66199 2.0423 4.50997 2.13007C4.3555 2.21689 4.22688 2.34321 4.13727 2.49607C4.04766 2.64894 4.00027 2.82287 3.99997 3.00007V16.1701C3.40982 16.3691 2.89814 16.7505 2.53869 17.2591C2.17924 17.7677 1.9906 18.3773 1.99997 19.0001C1.99969 19.782 2.30475 20.5332 2.85018 21.0936C3.3956 21.654 4.13826 21.9792 4.91997 22.0001H5.49997C8.7767 21.9924 11.9931 21.1178 14.8225 19.4651C17.6519 17.8124 19.9937 15.4404 21.61 12.5901C21.9833 11.9081 22.0772 11.1078 21.872 10.3579C21.6668 9.60795 21.1785 8.96699 20.51 8.57007H20.5ZM5.99997 4.73007L15.89 10.4401C14.7928 12.0773 13.3259 13.4335 11.608 14.3994C9.88996 15.3652 7.96893 15.9135 5.99997 16.0001V4.73007ZM19.87 11.6101C18.3854 14.2257 16.2174 16.3883 13.5979 17.8663C10.9785 19.3442 8.00645 20.0818 4.99997 20.0001C4.73475 20.0001 4.4804 19.8947 4.29286 19.7072C4.10532 19.5196 3.99997 19.2653 3.99997 19.0001C3.99918 18.8661 4.02534 18.7333 4.07687 18.6096C4.12841 18.4859 4.20427 18.3739 4.29997 18.2801C4.48783 18.099 4.73904 17.9985 4.99997 18.0001H5.50997C8.07768 17.999 10.5991 17.3162 12.8164 16.0213C15.0337 14.7264 16.8674 12.8659 18.13 10.6301C18.1907 10.5204 18.2736 10.4246 18.3735 10.3488C18.4734 10.273 18.588 10.219 18.71 10.1901C18.9621 10.1209 19.2313 10.1532 19.46 10.2801C19.6894 10.4034 19.8617 10.6114 19.9401 10.8598C20.0185 11.1082 19.997 11.3773 19.88 11.6101H19.87Z" fill="WHITE"/>
</svg>
