<svg width="24" height="24" viewBox="0 0 24 24" fill="none" xmlns="http://www.w3.org/2000/svg">
<path d="M3.7483 16.1587H6.81216L5.89802 20.6989C5.87793 20.8049 5.86788 20.9125 5.86802 21.0204C5.86802 21.5124 6.20916 21.7837 6.68144 21.7837C7.16359 21.7837 7.51502 21.5222 7.61573 21.0302L8.59973 16.1587H13.3509L12.4372 20.6989C12.4072 20.7992 12.3973 20.9201 12.3973 21.0204C12.3973 21.5124 12.7389 21.7837 13.221 21.7837C13.7032 21.7837 14.0546 21.5222 14.1553 21.0302L15.1286 16.1587H18.7144C19.2669 16.1587 19.6487 15.7571 19.6487 15.2145C19.6487 14.7727 19.3474 14.4109 18.8953 14.4109H15.4899L16.5557 9.10737H20.0713C20.6242 9.10737 21.0056 8.7058 21.0056 8.16323C21.0056 7.72137 20.7043 7.35965 20.2522 7.35965H16.9072L17.7309 3.3118C17.7407 3.25137 17.7609 3.12065 17.7609 2.99037C17.7609 2.49794 17.4094 2.2168 16.9273 2.2168C16.365 2.2168 16.1139 2.52794 16.0132 3.00023L15.1294 7.35965H10.3779L11.2016 3.3118C11.2114 3.25137 11.2316 3.12065 11.2316 2.99037C11.2316 2.49794 10.8699 2.2168 10.398 2.2168C9.82544 2.2168 9.56402 2.52794 9.47359 3.00023L8.58987 7.35965H5.29544C4.74259 7.35965 4.36116 7.78137 4.36116 8.3338C4.36116 8.78594 4.66244 9.10737 5.11459 9.10737H8.23844L7.17344 14.4109H3.92916C3.3763 14.4109 2.99487 14.8327 2.99487 15.3851C2.99487 15.8372 3.29616 16.1587 3.7483 16.1587ZM8.95116 14.4109L10.0264 9.10737H14.7772L13.7023 14.4109H8.95116Z" fill="inherit"/>
</svg>
