<svg width="24" height="24" viewBox="0 0 24 24" fill="none" xmlns="http://www.w3.org/2000/svg">
<path fill-rule="evenodd" clip-rule="evenodd" d="M24 12C24 15.1826 22.7357 18.2348 20.4853 20.4853C18.2348 22.7357 15.1826 24 12 24C8.8174 24 5.76516 22.7357 3.51472 20.4853C1.26428 18.2348 0 15.1826 0 12C0 8.8174 1.26428 5.76516 3.51472 3.51472C5.76516 1.26428 8.8174 0 12 0C15.1826 0 18.2348 1.26428 20.4853 3.51472C22.7357 5.76516 24 8.8174 24 12ZM17.4651 6.53486C17.3656 6.43534 17.2475 6.35639 17.1175 6.30253C16.9875 6.24867 16.8482 6.22094 16.7074 6.22094C16.5667 6.22094 16.4274 6.24867 16.2973 6.30253C16.1673 6.35639 16.0492 6.43534 15.9497 6.53486L6.53486 15.9497C6.43535 16.0492 6.35642 16.1673 6.30257 16.2974C6.24872 16.4274 6.221 16.5667 6.221 16.7074C6.221 16.8481 6.24872 16.9875 6.30257 17.1175C6.35642 17.2475 6.43535 17.3656 6.53486 17.4651C6.63436 17.5646 6.75249 17.6436 6.8825 17.6974C7.01251 17.7513 7.15185 17.779 7.29257 17.779C7.43329 17.779 7.57264 17.7513 7.70264 17.6974C7.83265 17.6436 7.95078 17.5646 8.05029 17.4651L17.4651 8.05029C17.5647 7.95079 17.6436 7.83266 17.6975 7.70265C17.7513 7.57264 17.7791 7.4333 17.7791 7.29257C17.7791 7.15185 17.7513 7.0125 17.6975 6.88249C17.6436 6.75248 17.5647 6.63435 17.4651 6.53486ZM8.23371 6.22286C7.69972 6.22286 7.1876 6.43499 6.81001 6.81258C6.43241 7.19017 6.22029 7.70229 6.22029 8.23629C6.22029 8.77028 6.43241 9.2824 6.81001 9.65999C7.1876 10.0376 7.69972 10.2497 8.23371 10.2497C8.76771 10.2497 9.27983 10.0376 9.65742 9.65999C10.035 9.2824 10.2471 8.77028 10.2471 8.23629C10.2471 7.70229 10.035 7.19017 9.65742 6.81258C9.27983 6.43499 8.76771 6.22286 8.23371 6.22286ZM15.7663 13.7537C15.2323 13.7537 14.7202 13.9658 14.3426 14.3434C13.965 14.721 13.7529 15.2331 13.7529 15.7671C13.7529 16.3011 13.965 16.8133 14.3426 17.1909C14.7202 17.5684 15.2323 17.7806 15.7663 17.7806C16.3003 17.7806 16.8124 17.5684 17.19 17.1909C17.5676 16.8133 17.7797 16.3011 17.7797 15.7671C17.7797 15.2331 17.5676 14.721 17.19 14.3434C16.8124 13.9658 16.3003 13.7537 15.7663 13.7537Z" fill="black"/>
</svg>
