<svg width="24" height="24" viewBox="0 0 24 24" fill="none" xmlns="http://www.w3.org/2000/svg">
<path d="M15.5 17.5H19.9297L18.8428 19.666L18.8418 19.668C18.7176 19.9176 18.5261 20.1275 18.2891 20.2744C18.052 20.4214 17.7789 20.4998 17.5 20.5H15.5V21.793L12.707 19L15.5 16.207V17.5ZM9.5 17.5V20.5H6.32031C5.85993 20.5 5.44452 20.2375 5.24902 19.8398C5.06139 19.4574 5.07902 19.0171 5.28906 18.667L5.29004 18.666L5.98438 17.5H9.5ZM7.07227 14.3398L6.37793 13.9219L5.94727 13.6631L5.69043 14.0938L3.8877 17.1191L2.66699 14.6768L2.66602 14.6738L2.59082 14.5C2.46472 14.1458 2.47921 13.7562 2.63184 13.4062L2.71973 13.2354L3.12988 12.5459L3.38379 12.1172L2.95703 11.8613L2.29199 11.4619L6.11523 10.5059L7.07227 14.3398ZM21.2842 13.2139V13.2148C21.4264 13.4677 21.5 13.7343 21.5 14C21.5 14.3978 21.3419 14.7792 21.0605 15.0605C20.7792 15.3419 20.3978 15.5 20 15.5H19.1533L17.3496 12.4883L19.9443 10.9883L21.2842 13.2139ZM14 2.5C14.5223 2.5 15.0128 2.77662 15.2939 3.23242V3.23145L16.5908 5.39648L16.8486 5.82715L17.2783 5.56836L17.9521 5.16211L16.9951 8.99316L13.1641 8.03711L13.8467 7.62891L14.2764 7.37207L14.0186 6.94238L11.3525 2.5H14ZM8.65918 3.32715C8.85507 3.00108 9.32574 3.00091 9.52148 3.32715V3.32812L10.8467 5.53027L9.77441 7.32715L9.0332 8.52637L6.45605 6.97949L7.62793 5.03809L8.6582 3.32812L8.65918 3.32715Z" stroke="white"/>
</svg>
